<?xml version="1.0" standalone="no"?>
<!DOCTYPE svg PUBLIC "-//W3C//DTD SVG 20010904//EN"
 "http://www.w3.org/TR/2001/REC-SVG-20010904/DTD/svg10.dtd">
<svg version="1.0" xmlns="http://www.w3.org/2000/svg"
 width="1084.000000pt" height="912.000000pt" viewBox="0 0 1084.000000 912.000000"
 preserveAspectRatio="xMidYMid meet">

<g transform="translate(0.000000,912.000000) scale(0.100000,-0.100000)"
fill="#000000" stroke="none">
<path d="M5739 9109 c-143 -15 -430 -100 -617 -182 -115 -51 -344 -182 -422
-242 -149 -114 -241 -273 -315 -541 -78 -283 -97 -545 -77 -1044 9 -226 10
-238 41 -325 17 -49 49 -152 71 -228 43 -148 65 -201 99 -231 19 -17 23 -18
37 -5 20 21 74 289 74 371 0 37 -9 125 -21 195 -29 174 -23 408 14 563 66 277
159 430 308 506 198 100 585 135 889 80 80 -14 170 -33 200 -42 105 -31 384
-26 595 11 160 28 183 29 240 11 152 -48 332 -320 396 -601 6 -27 14 -147 18
-265 l6 -215 75 -155 c102 -210 94 -199 118 -177 39 35 56 155 68 477 7 184 2
222 -81 646 -65 328 -111 476 -220 699 -103 214 -209 348 -343 436 -80 53
-332 156 -458 188 -115 29 -307 58 -463 71 -74 5 -140 9 -145 9 -6 -1 -45 -5
-87 -10z"/>
<path d="M6385 7652 c-85 -23 -129 -42 -174 -76 -99 -75 -94 -168 12 -197 32
-8 72 -8 167 1 197 20 308 16 425 -16 138 -37 146 -38 183 -15 53 34 45 63
-42 147 -113 109 -241 161 -415 170 -62 3 -105 -1 -156 -14z"/>
<path d="M5287 7564 c-90 -20 -165 -54 -242 -109 -107 -76 -180 -174 -173
-233 5 -44 36 -38 169 32 183 96 245 112 540 144 100 11 143 28 147 60 5 32
-44 74 -110 96 -74 25 -243 30 -331 10z"/>
<path d="M6323 7211 c-76 -26 -134 -76 -160 -139 -20 -47 -18 -128 3 -172 18
-37 49 -69 68 -71 6 -1 18 -2 26 -3 8 -1 26 4 39 12 13 8 26 10 30 5 7 -10 22
-10 39 0 6 5 17 5 24 1 6 -4 48 -7 92 -7 60 0 93 5 126 20 60 27 147 119 155
166 15 81 -12 117 -130 173 -52 25 -73 29 -160 31 -76 2 -113 -2 -152 -16z
m372 -75 c44 -19 69 -57 60 -93 -6 -27 -81 -110 -90 -101 -3 3 2 19 10 36 19
36 7 98 -26 145 -17 23 -17 27 -4 27 9 0 31 -6 50 -14z m-261 -70 c-8 -35 13
-100 42 -130 24 -23 24 -26 8 -26 -27 0 -80 35 -94 60 -14 27 -7 58 21 93 25
33 31 34 23 3z"/>
<path d="M5341 7068 c-44 -12 -93 -48 -66 -48 17 0 17 -1 0 -20 -18 -20 -18
-21 -1 -14 16 6 17 4 7 -14 -6 -11 -11 -32 -11 -46 0 -14 -4 -26 -10 -26 -19
0 -10 -38 16 -69 47 -57 150 -65 254 -20 115 49 121 133 14 204 -84 56 -139
70 -203 53z m209 -121 c31 -50 3 -100 -72 -132 l-37 -15 25 37 c21 31 25 47
22 88 -3 28 -8 58 -13 69 -8 17 -7 17 24 2 18 -10 41 -31 51 -49z"/>
<path d="M6025 6346 c-16 -13 -27 -27 -23 -31 7 -8 84 -9 113 -1 11 2 23 5 28
5 12 2 8 19 -9 35 -23 24 -74 20 -109 -8z"/>
<path d="M1430 6174 c-15 -39 -26 -100 -40 -219 -6 -55 -13 -118 -16 -140 -12
-105 -10 -141 8 -186 36 -87 85 -84 170 10 25 27 48 48 51 45 3 -3 8 9 12 26
4 17 23 47 42 67 24 23 28 31 14 23 -20 -10 -22 -10 -13 7 6 10 11 84 11 164
2 118 -1 148 -13 158 -16 13 -24 -9 -92 -249 -14 -52 -33 -108 -42 -125 l-15
-30 -13 32 c-8 17 -20 122 -28 233 -8 111 -17 204 -20 207 -3 3 -10 -7 -16
-23z"/>
<path d="M6345 6060 c-169 -49 -288 -64 -510 -65 -110 0 -206 -4 -212 -8 -19
-12 -15 -68 6 -104 59 -96 330 -233 462 -233 57 0 162 36 224 78 79 53 210
185 235 237 24 49 19 87 -13 110 -31 22 -79 18 -192 -15z m93 -72 c-33 -52
-161 -91 -362 -109 -125 -12 -232 -7 -298 13 -39 12 -66 34 -54 45 3 3 93 5
198 4 191 -2 195 -1 328 33 74 19 150 35 169 35 32 1 33 0 19 -21z"/>
<path d="M1108 5855 c-5 -38 -13 -55 -36 -76 -56 -50 -176 -48 -239 5 -48 39
-61 31 -69 -42 -8 -75 -24 -97 -102 -138 -47 -24 -56 -26 -89 -16 -20 6 -38
10 -40 9 -1 -2 6 -17 17 -35 24 -39 91 -74 144 -74 23 0 120 -5 217 -11 176
-10 177 -10 215 13 33 21 57 43 103 96 21 24 24 130 5 185 -17 55 -45 83 -82
85 -19 0 -28 7 -32 25 -5 18 -8 12 -12 -26z m3 -118 c-13 -13 -15 11 -4 40 7
16 8 15 11 -6 2 -13 -1 -28 -7 -34z"/>
<path d="M1753 5823 c9 -2 25 -2 35 0 9 3 1 5 -18 5 -19 0 -27 -2 -17 -5z"/>
<path d="M1646 5495 c-8 -40 1 -98 19 -135 23 -44 50 -62 91 -58 46 4 53 21
29 72 -16 33 -109 147 -125 154 -4 2 -11 -13 -14 -33z"/>
<path d="M6663 5035 c-34 -7 -108 -33 -165 -56 -224 -92 -298 -109 -298 -70 0
32 -15 33 -91 6 -40 -14 -84 -25 -97 -25 -14 0 -127 20 -250 45 -123 26 -232
44 -241 43 -23 -5 122 -52 269 -87 173 -41 225 -65 333 -155 23 -19 60 -49 82
-66 22 -17 54 -42 70 -56 78 -66 175 -113 175 -84 0 7 6 7 19 0 26 -14 31 -13
25 4 -4 11 0 13 17 9 15 -4 20 -3 15 5 -4 7 -1 12 8 12 9 0 16 7 16 15 0 8 9
15 20 15 11 0 20 7 20 15 0 8 9 19 20 25 11 6 20 17 20 25 0 8 7 15 15 15 8 0
15 7 15 15 0 8 4 15 10 15 5 0 7 7 4 15 -4 9 0 15 8 15 8 0 20 16 27 35 7 19
17 33 22 30 5 -3 6 2 2 11 -5 13 -3 15 7 9 10 -6 12 -4 7 8 -3 9 0 20 7 24 35
20 86 155 69 181 -13 22 -79 25 -160 7z"/>
<path d="M5202 4405 c-29 -64 -10 -115 70 -190 81 -77 108 -96 58 -40 -66 73
-88 113 -99 184 -6 35 -12 65 -14 67 -2 2 -9 -7 -15 -21z"/>
<path d="M7160 4370 c0 -93 -51 -132 -211 -163 -90 -17 -135 -38 -304 -139
-97 -58 -147 -91 -249 -166 -28 -20 -61 -42 -75 -49 -53 -24 3 -12 116 26 273
90 595 231 695 306 58 43 78 72 85 125 5 34 2 45 -18 66 -13 14 -23 29 -21 32
2 4 -1 8 -7 10 -7 2 -11 -16 -11 -48z"/>
<path d="M4998 4207 c-62 -34 -82 -48 -438 -305 -215 -155 -290 -220 -327
-286 -5 -10 -87 -39 -208 -75 -632 -188 -955 -338 -1464 -678 -118 -79 -215
-142 -217 -140 -2 1 -8 196 -13 432 -11 425 -22 610 -42 672 -8 26 -16 32 -51
38 -29 5 -43 3 -49 -6 -5 -8 -9 -9 -9 -4 0 6 -5 3 -10 -5 -8 -12 -10 -8 -11
15 l-1 30 -8 -30 -7 -30 -11 25 c-10 24 -11 24 -11 -9 -1 -53 -12 -30 -20 46
l-8 68 -2 -73 c-1 -79 -13 -88 -27 -20 l-8 43 -3 -35 c-2 -19 -6 -46 -10 -60
-5 -22 -7 -19 -14 20 -4 25 -8 72 -9 105 -1 33 -6 71 -10 85 -5 15 -6 -17 -3
-76 6 -109 -2 -176 -17 -139 -5 11 -9 36 -9 55 -2 70 -19 64 -26 -9 -4 -39
-11 -71 -15 -71 -4 0 -11 51 -15 113 -11 166 -24 174 -24 15 -1 -142 -13 -182
-25 -80 -5 42 -11 59 -21 59 -12 0 -15 -14 -15 -59 0 -43 -3 -59 -12 -56 -9 3
-15 37 -19 96 -4 50 -10 113 -14 140 l-6 49 108 1 c165 0 229 3 216 9 -7 2
-13 10 -13 17 0 17 -161 50 -210 42 -45 -7 -110 -35 -110 -48 0 -4 -8 -8 -17
-8 -17 -1 -17 -1 -1 -11 16 -9 18 -27 18 -154 0 -117 -3 -145 -14 -145 -10 0
-16 24 -22 88 -4 48 -9 78 -12 67 -2 -11 -8 -24 -13 -29 -5 -6 -9 -36 -9 -68
0 -42 -4 -58 -14 -58 -16 0 -26 62 -26 160 0 81 -9 132 -22 124 -5 -4 -9 -32
-8 -63 5 -141 0 -231 -14 -231 -9 0 -15 20 -19 66 -4 37 -9 69 -11 71 -13 14
-25 -14 -31 -72 -5 -45 -12 -65 -21 -65 -10 0 -14 15 -14 53 -1 93 -12 222
-21 231 -4 5 -8 1 -8 -10 0 -10 -2 -46 -4 -79 -2 -33 -5 -90 -5 -127 -2 -50
-6 -68 -16 -68 -14 0 -26 60 -26 132 0 33 -2 37 -14 26 -9 -8 -10 -15 -4 -19
7 -4 6 -8 -1 -10 -6 -2 -14 -32 -17 -66 -4 -39 -11 -63 -19 -63 -15 0 -25 74
-25 182 0 65 -2 76 -15 72 -18 -7 -20 -34 -3 -34 9 0 9 -3 0 -12 -8 -8 -12
-47 -12 -110 0 -91 -1 -98 -20 -98 -11 0 -19 3 -19 8 1 4 1 33 0 65 -1 55 -2
57 -21 45 -14 -9 -20 -24 -20 -50 0 -46 -8 -68 -26 -68 -11 0 -14 19 -15 83
-1 45 -1 86 0 90 1 4 -3 17 -9 27 -6 12 -7 20 -1 20 5 0 8 8 6 18 -2 9 -4 23
-4 30 -1 6 -5 12 -11 12 -6 0 -10 -46 -10 -117 0 -130 -6 -163 -26 -163 -8 0
-15 10 -16 23 0 12 -2 27 -3 32 -2 6 -3 16 -4 24 -2 25 -29 -8 -35 -44 -4 -20
-13 -35 -21 -35 -15 0 -26 75 -28 193 -1 98 -16 94 -17 -5 0 -46 -2 -94 -4
-108 -2 -14 -4 -37 -5 -52 -1 -30 -27 -39 -37 -13 -4 8 -12 15 -19 15 -7 0
-15 -7 -19 -15 -7 -18 -35 -20 -38 -2 -4 34 -8 74 -9 95 -2 32 -15 36 -14 4 0
-15 -2 -45 -5 -66 l-5 -39 -305 2 c-291 2 -305 3 -318 22 -20 29 -73 22 -89
-11 -17 -36 -40 -206 -57 -425 -17 -214 -19 -245 -47 -725 -10 -190 -26 -451
-35 -580 -58 -882 -28 -1363 107 -1746 32 -92 97 -229 131 -276 l19 -28 5275
0 5275 0 -3 308 -4 307 -42 180 c-188 800 -359 1256 -617 1646 -330 496 -799
822 -1417 983 -140 37 -325 75 -493 101 -98 15 -101 17 -150 64 -27 27 -124
103 -215 170 -91 66 -221 164 -290 216 -125 96 -280 186 -280 164 0 -6 16 -59
37 -117 29 -85 34 -108 25 -123 -10 -15 -9 -19 2 -19 24 0 28 -18 12 -42 -21
-29 -20 -35 4 -41 39 -10 18 -26 -85 -63 -58 -21 -105 -42 -105 -46 0 -13 28
-9 43 7 8 8 17 12 19 9 3 -2 34 2 69 10 70 17 102 7 64 -19 -11 -8 -28 -22
-38 -32 -18 -17 -17 -18 18 -21 22 -2 35 -8 32 -15 -2 -7 -54 -32 -115 -56
-65 -26 -108 -48 -101 -52 10 -6 57 6 109 28 18 7 23 9 73 18 44 9 50 -6 11
-31 -14 -10 -23 -23 -20 -31 3 -8 2 -12 -3 -9 -5 3 -14 -1 -21 -9 -11 -14 -10
-14 14 -5 38 14 56 13 56 -5 0 -8 -31 -29 -74 -48 -40 -19 -76 -39 -80 -45 -4
-6 -13 -9 -20 -6 -7 3 -19 -2 -26 -11 -17 -20 -14 -20 80 15 85 31 120 37 120
20 0 -6 -16 -20 -35 -31 -20 -12 -40 -30 -46 -41 -10 -19 -9 -20 30 -13 32 5
41 4 41 -8 0 -19 -112 -69 -245 -108 -109 -31 -150 -47 -143 -54 2 -3 26 3 53
11 49 15 255 65 265 63 15 -1 -108 -44 -202 -70 -105 -28 -205 -41 -149 -18
13 5 21 12 18 15 -3 3 -19 -1 -36 -9 -60 -30 -86 -30 -143 -1 -29 15 -59 35
-66 45 -7 11 -18 19 -24 19 -7 0 -7 -4 0 -13 6 -7 14 -39 18 -70 4 -32 11 -60
16 -63 5 -3 8 -2 7 3 -4 17 14 83 22 83 5 0 15 -12 22 -27 18 -42 47 -58 47
-27 0 30 34 10 43 -26 13 -53 24 -57 32 -11 7 45 30 55 44 19 8 -21 8 -21 31
10 13 18 27 32 31 32 4 0 11 -21 14 -47 16 -124 29 -136 26 -24 -2 74 11 99
35 66 11 -15 16 -16 29 -5 8 7 15 19 15 26 0 23 20 16 30 -11 16 -42 27 -319
24 -625 -2 -298 -14 -414 -27 -274 -4 38 -8 110 -8 159 -1 50 -4 79 -6 66 -4
-19 -7 -21 -14 -10 -5 9 -9 -31 -9 -106 -1 -66 -3 -142 -5 -170 -2 -27 -6
-105 -10 -172 -9 -186 -24 -197 -24 -18 -1 118 -6 364 -14 643 0 6 -4 12 -9
12 -4 0 -8 -150 -8 -332 -1 -334 -12 -629 -26 -684 l-8 -29 -7 40 c-5 22 -8
59 -8 83 -1 40 -2 42 -17 28 -11 -12 -17 -43 -20 -109 -8 -159 -23 -291 -36
-330 -11 -31 -13 60 -11 573 1 352 -1 609 -6 605 -5 -3 -9 -78 -9 -168 -2
-684 -37 -1285 -78 -1326 -3 -3 -4 43 -2 102 2 59 1 107 -2 107 -9 0 -30 -23
-30 -33 0 -4 4 -6 9 -3 5 3 8 -5 7 -19 0 -14 -6 -27 -12 -29 -7 -3 -15 -43
-19 -98 -10 -137 -31 -289 -44 -318 -9 -19 -10 21 -5 165 3 105 8 210 10 235
2 25 6 123 8 218 2 96 7 176 10 179 10 10 7 81 -4 88 -5 3 -10 11 -10 16 0 6
4 7 10 4 13 -8 13 515 0 535 -7 10 -10 -24 -11 -105 -2 -188 -2 -199 7 -219 5
-13 4 -17 -3 -13 -7 5 -11 -35 -11 -123 0 -72 4 -133 9 -136 5 -3 9 -13 9 -22
0 -14 -2 -15 -10 -2 -6 9 -9 -8 -9 -52 0 -36 -3 -82 -6 -101 -4 -21 -2 -44 5
-57 8 -15 8 -20 1 -16 -7 4 -11 -2 -11 -16 0 -13 -4 -77 -9 -143 -5 -66 -14
-194 -21 -285 -7 -91 -15 -183 -19 -205 -18 -103 -23 378 -6 552 3 23 0 45 -6
48 -5 4 -9 31 -8 61 1 30 -1 57 -4 61 -4 3 -8 -14 -8 -38 l-1 -44 -8 50 c-15
91 -30 505 -30 825 0 317 -4 550 -16 887 -6 192 -2 232 21 213 8 -6 17 -24 20
-40 8 -36 31 -46 45 -19 13 24 11 29 -75 125 -144 164 -279 289 -380 356 -55
36 -107 75 -115 87 -16 23 -32 28 -24 7 5 -13 -5 -18 -76 -36 -24 -6 -37 -5
-42 3 -5 8 -8 7 -8 -3 0 -18 -115 -75 -130 -65 -6 4 -13 -1 -16 -10 -8 -20
-105 -85 -128 -85 -9 0 -16 -6 -16 -12 0 -19 -102 -103 -125 -103 -12 0 -20
-7 -20 -17 0 -22 -92 -101 -110 -94 -8 3 -17 1 -20 -4 -3 -4 0 -10 7 -12 6 -2
-15 -25 -46 -51 -45 -37 -61 -45 -72 -36 -15 12 -37 3 -28 -13 20 -32 -107
-38 -174 -8 -54 24 -102 58 -102 71 0 6 9 7 20 4 36 -12 23 31 -20 66 -22 18
-40 38 -40 46 0 16 8 16 40 -2 32 -18 40 -18 40 0 0 8 -18 27 -40 41 -44 29
-54 57 -18 52 32 -4 29 19 -6 54 -34 34 -31 41 12 29 42 -13 43 8 1 33 -31 18
-35 43 -5 38 21 -4 20 10 -4 41 -27 34 -25 47 6 47 l27 0 -27 21 c-22 17 -26
27 -21 50 4 15 2 36 -4 47 -7 13 -7 22 2 31 9 9 9 16 0 30 -17 27 2 153 32
210 34 69 55 121 47 121 -4 0 -33 -15 -64 -33z m596 -924 c3 -21 6 -53 6 -70
0 -35 14 -44 24 -17 3 9 6 29 6 45 0 39 18 37 36 -6 8 -19 21 -35 29 -35 23 0
72 -81 79 -133 7 -46 26 -57 26 -15 l0 21 24 -22 c39 -37 38 -76 -2 -135 -53
-77 -117 -264 -159 -461 -14 -67 -18 -75 -23 -50 -9 45 -16 9 -19 -100 -2 -79
-17 -209 -37 -328 -4 -21 -10 -40 -15 -42 -4 -3 -5 -21 -2 -40 4 -26 2 -36
-11 -41 -11 -4 -13 -11 -6 -24 5 -9 8 -19 6 -21 -3 -2 -7 -62 -10 -134 -8
-194 -18 -308 -26 -294 -4 6 -11 107 -15 223 -4 116 -9 222 -10 236 -2 14 -5
73 -6 131 -2 80 -6 106 -16 106 -7 0 -13 -11 -13 -24 0 -12 3 -23 8 -23 4 0 7
-93 7 -208 1 -114 4 -333 9 -487 6 -196 5 -277 -2 -270 -10 9 -30 171 -47 379
-5 52 -10 74 -16 65 -5 -8 -9 -11 -9 -6 0 4 6 16 13 28 10 17 9 22 -5 33 -15
11 -16 15 -3 32 20 26 19 33 -5 27 -18 -5 -19 -13 -15 -162 l4 -156 -19 55
c-10 31 -21 103 -24 165 -4 61 -9 144 -11 185 -3 41 -10 165 -16 275 -6 119
-16 206 -23 214 -8 12 -8 13 2 7 9 -5 11 1 8 26 -3 19 -6 103 -7 188 -1 85 -4
159 -7 164 -2 4 -5 39 -5 76 0 52 -3 67 -13 63 -7 -2 -11 -10 -8 -17 3 -7 6
-138 8 -292 2 -153 6 -387 9 -519 6 -218 5 -235 -8 -186 -16 63 -42 416 -51
701 -4 107 -10 197 -14 200 -4 3 -10 14 -13 25 -2 11 -6 -115 -7 -280 -2 -333
-13 -349 -30 -45 -5 102 -15 268 -20 370 -11 206 -13 420 -4 444 9 24 21 19
33 -14 13 -39 36 -38 47 1 13 44 27 37 39 -17 l10 -48 13 27 c6 16 12 41 12
56 0 16 6 34 14 40 11 9 16 6 24 -19 14 -40 39 -30 47 18 3 21 10 44 15 52 16
24 30 -6 30 -62 0 -36 4 -48 15 -48 12 0 15 13 15 59 0 62 13 111 29 111 12 0
25 -47 23 -85 l-1 -30 13 24 c10 17 15 20 18 10 3 -8 8 14 12 47 4 34 10 64
13 68 13 13 21 5 27 -31z m1016 -240 c6 -95 9 -177 5 -183 -3 -5 -4 -14 -1
-19 5 -8 10 -527 6 -701 l-2 -95 -18 118 c-10 66 -21 182 -25 258 -4 77 -12
142 -16 145 -14 8 -10 26 4 18 6 -4 4 2 -5 13 -10 11 -19 33 -20 49 0 17 -4 8
-7 -21 l-6 -50 -22 86 c-19 72 -23 116 -24 263 -1 130 2 180 12 192 15 18 29
2 29 -36 0 -19 2 -22 9 -10 6 8 8 17 5 21 -2 4 1 9 7 11 6 2 14 30 18 63 8 71
21 98 31 69 4 -10 13 -96 20 -191z m794 115 c9 -35 6 -177 -3 -153 -14 33 -24
175 -13 175 5 0 12 -10 16 -22z m-46 -168 c6 -91 7 -190 3 -220 -5 -48 -8 -32
-24 125 -19 192 -21 258 -10 269 16 16 22 -18 31 -174z m-78 134 c6 -14 10
-37 10 -52 0 -21 2 -24 10 -12 5 8 10 10 10 4 0 -6 -3 -13 -6 -17 -3 -3 -5
-129 -5 -280 2 -278 -5 -407 -20 -357 -4 14 -8 90 -8 170 -1 80 -8 231 -15
337 -8 105 -12 201 -9 212 7 28 21 26 33 -5z m-2177 -202 c4 -119 9 -267 12
-327 l5 -110 -15 68 c-34 163 -50 587 -22 587 11 0 15 -46 20 -218z m1345 -26
l-3 -51 -19 40 c-22 45 -24 118 -4 142 11 14 14 10 21 -32 4 -26 7 -71 5 -99z
m1454 -2286 c51 -12 160 -25 242 -30 125 -7 153 -12 163 -26 19 -26 16 -33
-14 -40 -50 -13 -562 12 -578 28 -4 3 5 25 19 47 31 49 38 49 168 21z"/>
<path d="M5780 3000 c0 -5 5 -10 10 -10 6 0 10 5 10 10 0 6 -4 10 -10 10 -5 0
-10 -4 -10 -10z"/>
<path d="M5275 2800 c-3 -5 0 -22 8 -37 l15 -27 0 27 c0 16 -5 24 -11 20 -6
-4 -8 0 -4 10 7 18 2 23 -8 7z"/>
<path d="M5190 2776 c0 -14 4 -27 8 -30 5 -3 6 8 4 25 -5 35 -12 38 -12 5z"/>
<path d="M5195 2699 c2 -28 15 -55 15 -30 0 7 5 9 10 6 14 -9 12 8 -2 24 -11
11 -10 12 1 6 9 -5 12 -3 9 5 -2 7 -11 14 -19 15 -11 2 -15 -5 -14 -26z"/>
<path d="M5460 2119 c0 -5 5 -7 10 -4 6 3 10 8 10 11 0 2 -4 4 -10 4 -5 0 -10
-5 -10 -11z"/>
<path d="M5391 1710 c1 -32 5 -57 10 -55 4 3 6 23 4 45 -2 26 0 38 7 34 6 -4
6 2 -1 15 -18 33 -22 26 -20 -39z"/>
<path d="M7105 4135 c-16 -8 -65 -30 -107 -50 -43 -19 -78 -37 -78 -39 0 -4
27 -1 40 4 3 1 8 2 13 1 4 0 7 4 7 9 0 6 9 10 19 10 11 0 27 8 37 18 10 9 20
16 23 14 5 -3 37 5 51 13 3 1 15 6 27 10 13 4 20 11 17 16 -7 12 -14 11 -49
-6z"/>
<path d="M1355 4040 c-3 -5 -1 -10 4 -10 6 0 11 5 11 10 0 6 -2 10 -4 10 -3 0
-8 -4 -11 -10z"/>
<path d="M2082 4020 c0 -14 2 -19 5 -12 2 6 2 18 0 25 -3 6 -5 1 -5 -13z"/>
<path d="M6888 4023 c7 -3 16 -2 19 1 4 3 -2 6 -13 5 -11 0 -14 -3 -6 -6z"/>
<path d="M7124 3982 c-5 -4 -10 -12 -11 -19 -2 -9 5 -9 27 -1 17 5 30 13 30
17 0 9 -34 11 -46 3z"/>
<path d="M7080 3949 c0 -5 -5 -7 -10 -4 -6 3 -18 -1 -27 -11 -16 -16 -16 -16
7 -9 29 8 61 35 42 35 -7 0 -12 -5 -12 -11z"/>
<path d="M1840 3936 c0 -18 19 -31 28 -21 4 4 1 10 -6 12 -6 3 -10 9 -6 14 3
5 0 9 -5 9 -6 0 -11 -6 -11 -14z"/>
<path d="M1571 3924 c0 -11 3 -14 6 -6 3 7 2 16 -1 19 -3 4 -6 -2 -5 -13z"/>
<path d="M7005 3920 c3 -5 8 -10 11 -10 2 0 4 5 4 10 0 6 -5 10 -11 10 -5 0
-7 -4 -4 -10z"/>
<path d="M6965 3900 c-8 -13 5 -13 25 0 13 8 13 10 -2 10 -9 0 -20 -4 -23 -10z"/>
<path d="M7234 3854 c-17 -14 -17 -15 -1 -10 10 3 23 6 28 6 5 0 9 5 9 10 0
14 -13 12 -36 -6z"/>
<path d="M7183 3839 c-28 -10 -30 -29 -3 -22 20 5 36 21 29 27 -2 2 -14 0 -26
-5z"/>
<path d="M7125 3810 c-3 -5 -13 -6 -23 -3 -13 4 -14 3 -6 -6 11 -12 44 -5 44
10 0 12 -7 11 -15 -1z"/>
<path d="M7150 3660 c0 -5 5 -10 11 -10 5 0 7 5 4 10 -3 6 -8 10 -11 10 -2 0
-4 -4 -4 -10z"/>
<path d="M7110 3639 c0 -5 5 -7 10 -4 6 3 10 8 10 11 0 2 -4 4 -10 4 -5 0 -10
-5 -10 -11z"/>
<path d="M6995 3590 c-3 -6 1 -7 9 -4 18 7 21 14 7 14 -6 0 -13 -4 -16 -10z"/>
<path d="M7316 3491 c-4 -5 3 -7 14 -4 23 6 26 13 6 13 -8 0 -17 -4 -20 -9z"/>
<path d="M7145 3330 c-3 -6 1 -7 9 -4 18 7 21 14 7 14 -6 0 -13 -4 -16 -10z"/>
<path d="M7101 2943 c0 -6 -4 -20 -7 -30 -5 -14 -4 -15 5 -7 7 7 11 20 8 30
-3 11 -5 14 -6 7z"/>
<path d="M7098 2819 c-6 -16 0 -170 8 -178 9 -10 10 8 5 99 -3 52 -9 88 -13
79z"/>
<path d="M6788 2748 c-2 -7 -3 -44 -2 -83 3 -90 3 -90 11 -81 10 10 11 136 1
136 -5 0 -6 9 -3 20 3 11 4 20 2 20 -3 0 -7 -6 -9 -12z"/>
<path d="M6945 2710 c3 -5 8 -10 11 -10 2 0 4 5 4 10 0 6 -5 10 -11 10 -5 0
-7 -4 -4 -10z"/>
<path d="M6945 2648 c0 -23 6 -43 13 -46 15 -5 12 39 -3 50 -6 5 -5 8 3 8 6 0
12 7 12 15 0 8 -6 15 -13 15 -9 0 -13 -14 -12 -42z"/>
<path d="M6953 2565 c-16 -17 -17 -29 -2 -19 8 4 8 1 1 -12 -7 -14 -6 -25 4
-39 13 -17 14 -14 14 33 0 29 -1 52 -2 52 -2 -1 -9 -7 -15 -15z"/>
<path d="M6786 2558 c3 -4 9 -8 15 -8 5 0 9 4 9 8 0 5 -7 9 -15 9 -8 0 -12 -4
-9 -9z"/>
<path d="M6790 2520 c0 -11 5 -20 10 -20 6 0 10 9 10 20 0 11 -4 20 -10 20 -5
0 -10 -9 -10 -20z"/>
<path d="M6791 2298 c-1 -89 2 -158 6 -154 9 9 21 116 13 116 -3 0 -4 45 -3
100 1 55 -2 100 -7 100 -4 0 -9 -73 -9 -162z"/>
<path d="M6860 1199 c0 -5 5 -7 10 -4 6 3 10 8 10 11 0 2 -4 4 -10 4 -5 0 -10
-5 -10 -11z"/>
</g>
</svg>
