<svg class="animated" id="freepik_stories-online-transactions" xmlns="http://www.w3.org/2000/svg" viewBox="0 0 500 500" version="1.1" xmlns:xlink="http://www.w3.org/1999/xlink" xmlns:svgjs="http://svgjs.com/svgjs"><style>svg#freepik_stories-online-transactions:not(.animated) .animable {opacity: 0;}svg#freepik_stories-online-transactions.animated #freepik--device-2--inject-174 {animation: 1.5s Infinite  linear heartbeat;animation-delay: 0s;}svg#freepik_stories-online-transactions.animated #freepik--device-1--inject-174 {animation: 1.5s Infinite  linear floating;animation-delay: 0s;}            @keyframes heartbeat {                0% {                    transform: scale(1);                }                10% {                    transform: scale(1.1);                }                30% {                    transform: scale(1);                }                40% {                    transform: scale(1);                }                50% {                    transform: scale(1.1);                }                60% {                    transform: scale(1);                }                100% {                    transform: scale(1);                }            }                    @keyframes floating {                0% {                    opacity: 1;                    transform: translateY(0px);                }                50% {                    transform: translateY(-10px);                }                100% {                    opacity: 1;                    transform: translateY(0px);                }            }        .animator-hidden { display: none; }</style><g id="freepik--background-complete--inject-174" class="animable animator-hidden" style="transform-origin: 250px 228.23px;"><rect x="416.78" y="398.49" width="33.12" height="0.25" style="fill: rgb(235, 235, 235); transform-origin: 433.34px 398.615px;" id="el9tirmokr7m" class="animable"></rect><rect x="322.53" y="401.21" width="8.69" height="0.25" style="fill: rgb(235, 235, 235); transform-origin: 326.875px 401.335px;" id="el34zmlczpq7r" class="animable"></rect><rect x="396.59" y="389.21" width="19.19" height="0.25" style="fill: rgb(235, 235, 235); transform-origin: 406.185px 389.335px;" id="elcfop7dg2a17" class="animable"></rect><rect x="52.46" y="390.89" width="43.19" height="0.25" style="fill: rgb(235, 235, 235); transform-origin: 74.055px 391.015px;" id="el1yy85siwpq8" class="animable"></rect><rect x="104.56" y="390.89" width="6.33" height="0.25" style="fill: rgb(235, 235, 235); transform-origin: 107.725px 391.015px;" id="eluizbxa2kt" class="animable"></rect><rect x="131.47" y="395.11" width="93.68" height="0.25" style="fill: rgb(235, 235, 235); transform-origin: 178.31px 395.235px;" id="elzkgy4urqgxp" class="animable"></rect><path d="M237,337.8H43.92a5.71,5.71,0,0,1-5.71-5.71V60.66A5.71,5.71,0,0,1,43.92,55H237a5.71,5.71,0,0,1,5.71,5.71V332.09A5.71,5.71,0,0,1,237,337.8ZM43.92,55.2a5.47,5.47,0,0,0-5.46,5.46V332.09a5.47,5.47,0,0,0,5.46,5.46H237a5.47,5.47,0,0,0,5.46-5.46V60.66A5.47,5.47,0,0,0,237,55.2Z" style="fill: rgb(235, 235, 235); transform-origin: 140.46px 196.4px;" id="elelykemlqhzh" class="animable"></path><path d="M453.31,337.8H260.21a5.72,5.72,0,0,1-5.71-5.71V60.66A5.72,5.72,0,0,1,260.21,55h193.1A5.71,5.71,0,0,1,459,60.66V332.09A5.71,5.71,0,0,1,453.31,337.8ZM260.21,55.2a5.47,5.47,0,0,0-5.46,5.46V332.09a5.47,5.47,0,0,0,5.46,5.46h193.1a5.47,5.47,0,0,0,5.46-5.46V60.66a5.47,5.47,0,0,0-5.46-5.46Z" style="fill: rgb(235, 235, 235); transform-origin: 356.75px 196.4px;" id="elmjmjkvotu4e" class="animable"></path><rect y="382.4" width="500" height="0.25" style="fill: rgb(235, 235, 235); transform-origin: 250px 382.525px;" id="ellyyv1w196sc" class="animable"></rect><rect x="79.45" y="96.5" width="124.79" height="258.18" style="fill: rgb(240, 240, 240); transform-origin: 141.845px 225.59px;" id="elao3wr7qbrjn" class="animable"></rect><rect x="86.95" y="104" width="109.79" height="243.18" style="fill: rgb(250, 250, 250); transform-origin: 141.845px 225.59px;" id="el23d7ja0rinw" class="animable"></rect><polygon points="130.04 347.18 163.04 347.18 194.02 104 161.02 104 130.04 347.18" style="fill: rgb(245, 245, 245); transform-origin: 162.03px 225.59px;" id="elt5qhjbjicb" class="animable"></polygon><polygon points="145.69 104 114.71 347.18 122.71 347.18 153.69 104 145.69 104" style="fill: rgb(245, 245, 245); transform-origin: 134.2px 225.59px;" id="el9gxnuubo05c" class="animable"></polygon><polygon points="205.82 102.76 77.87 102.76 75.17 96.46 208.52 96.46 205.82 102.76" style="fill: rgb(245, 245, 245); transform-origin: 141.845px 99.61px;" id="eln4azu3i5mai" class="animable"></polygon><polygon points="205.82 106.41 77.87 106.41 75.17 100.11 208.52 100.11 205.82 106.41" style="fill: rgb(240, 240, 240); transform-origin: 141.845px 103.26px;" id="eldt47jxujgho" class="animable"></polygon><polygon points="205.82 110.05 77.87 110.05 75.17 103.75 208.52 103.75 205.82 110.05" style="fill: rgb(230, 230, 230); transform-origin: 141.845px 106.9px;" id="eloja8lpvg74s" class="animable"></polygon><polygon points="205.82 113.7 77.87 113.7 75.17 107.4 208.52 107.4 205.82 113.7" style="fill: rgb(224, 224, 224); transform-origin: 141.845px 110.55px;" id="eldrrjt5krt4" class="animable"></polygon><rect x="70.52" y="88.57" width="142.65" height="8.4" style="fill: rgb(240, 240, 240); transform-origin: 141.845px 92.77px;" id="el5j042jbfc8h" class="animable"></rect><path d="M72,173.13h0a1.45,1.45,0,0,1-1.45-1.46v-49A1.45,1.45,0,0,1,72,121.23h0a1.45,1.45,0,0,1,1.45,1.45v49A1.45,1.45,0,0,1,72,173.13Z" style="fill: rgb(224, 224, 224); transform-origin: 72px 147.18px;" id="eludm5hqcpvsi" class="animable"></path><rect x="71.46" y="95.28" width="1.05" height="29.1" style="fill: rgb(224, 224, 224); transform-origin: 71.985px 109.83px;" id="elcbi70l6nwgu" class="animable"></rect><rect x="295.76" y="96.5" width="124.79" height="258.18" style="fill: rgb(240, 240, 240); transform-origin: 358.155px 225.59px;" id="elsl72248z9d" class="animable"></rect><rect x="303.26" y="104" width="109.79" height="243.18" style="fill: rgb(250, 250, 250); transform-origin: 358.155px 225.59px;" id="elgg2ru4z2chn" class="animable"></rect><polygon points="346.36 347.18 379.36 347.18 410.34 104 377.34 104 346.36 347.18" style="fill: rgb(245, 245, 245); transform-origin: 378.35px 225.59px;" id="el4uei1wgrd5c" class="animable"></polygon><polygon points="362 104 331.02 347.18 339.02 347.18 370 104 362 104" style="fill: rgb(245, 245, 245); transform-origin: 350.51px 225.59px;" id="elkxlmpm901q9" class="animable"></polygon><polygon points="422.13 102.76 294.18 102.76 291.48 96.46 424.83 96.46 422.13 102.76" style="fill: rgb(245, 245, 245); transform-origin: 358.155px 99.61px;" id="el492qhjg26t2" class="animable"></polygon><polygon points="422.13 106.41 294.18 106.41 291.48 100.11 424.83 100.11 422.13 106.41" style="fill: rgb(240, 240, 240); transform-origin: 358.155px 103.26px;" id="elzthbyngfj1h" class="animable"></polygon><polygon points="422.13 110.05 294.18 110.05 291.48 103.75 424.83 103.75 422.13 110.05" style="fill: rgb(230, 230, 230); transform-origin: 358.155px 106.9px;" id="eles7e1p2no8" class="animable"></polygon><polygon points="422.13 113.7 294.18 113.7 291.48 107.4 424.83 107.4 422.13 113.7" style="fill: rgb(224, 224, 224); transform-origin: 358.155px 110.55px;" id="el095ybbwf6gzl" class="animable"></polygon><rect x="286.83" y="88.57" width="142.65" height="8.4" style="fill: rgb(240, 240, 240); transform-origin: 358.155px 92.77px;" id="el8co55wo5t8i" class="animable"></rect><path d="M288.3,173.13h0a1.45,1.45,0,0,1-1.45-1.46v-49a1.45,1.45,0,0,1,1.45-1.45h0a1.45,1.45,0,0,1,1.45,1.45v49A1.45,1.45,0,0,1,288.3,173.13Z" style="fill: rgb(224, 224, 224); transform-origin: 288.3px 147.175px;" id="el6xkotidk23p" class="animable"></path><rect x="287.77" y="95.28" width="1.05" height="29.1" style="fill: rgb(224, 224, 224); transform-origin: 288.295px 109.83px;" id="elcjjhp1tszvo" class="animable"></rect><polygon points="401.52 284.58 407.08 357.45 410.46 357.15 402.19 284.28 401.52 284.58" style="fill: rgb(224, 224, 224); transform-origin: 405.99px 320.865px;" id="elvkrnjx3onv" class="animable"></polygon><polygon points="431.5 294.76 421.58 354.93 418.79 354.43 430.96 294.46 431.5 294.76" style="fill: rgb(224, 224, 224); transform-origin: 425.145px 324.695px;" id="elqvd9u2u43hg" class="animable"></polygon><polygon points="418.14 270.99 416.39 359.17 412.99 358.95 417.46 270.66 418.14 270.99" style="fill: rgb(224, 224, 224); transform-origin: 415.565px 314.915px;" id="el59xxxukrpeo" class="animable"></polygon><path d="M401.72,284c-3.83-.71-15.33,0-15.33,2.67s11.5-.33,10.5,2.33-11.67,1.84-11.34,4.34,10.17-1.34,10,.33-8.5,4.17-6.83,6,7.67-4.3,7.67-1.9-4.37,6.76-1.67,7.4c4.24,1,3-7.47,4.5-7.4s1.56,7.1,4.11,6.73-2.11-7.88-1.28-9.19,6.67,4.69,8.5,3.36-6.83-6.67-5.66-8.33,6.26,3.5,7.38.83S404.85,284.55,401.72,284Z" style="fill: rgb(240, 240, 240); transform-origin: 398.957px 294.497px;" id="elsjt71lcliug" class="animable"></path><path d="M418.25,275.76c3.45-1.79,12.08-9.44,10.44-11.54s-8.85,7.34-9.71,4.63,8.07-8.63,6.26-10.4-7.19,7.31-8.08,5.9,4.13-8.52,1.69-8.94-3.39,8.11-4.87,6.22-.73-8-3.25-6.86c-4,1.83,2.24,7.74,1,8.61s-5.61-4.64-7.39-2.78,6.52,4.91,6.67,6.46-8.15.41-8.77,2.58,9.49,1.05,9.6,3.08-7.1,1.1-6.33,3.89S415.42,277.23,418.25,275.76Z" style="fill: rgb(235, 235, 235); transform-origin: 415.554px 266.294px;" id="elkdqyfujurx" class="animable"></path><path d="M418.92,273.21c3.83-.71,15.34,0,15.34,2.67s-11.5-.34-10.5,2.33,11.66,1.83,11.33,4.33-10.17-1.33-10,.34,8.5,4.16,6.83,6-7.66-4.31-7.66-1.9,4.36,6.76,1.66,7.4c-4.23,1-3-7.47-4.5-7.4s-1.56,7.1-4.1,6.73,2.1-7.88,1.27-9.19-6.67,4.69-8.5,3.36,6.83-6.67,5.67-8.34-6.27,3.5-7.39.84S415.79,273.79,418.92,273.21Z" style="fill: rgb(230, 230, 230); transform-origin: 421.683px 283.707px;" id="els6c7sxzl85m" class="animable"></path><path d="M428,294.9c2.2-2.35,10.25-7.53,11.56-5.75s-7.86,5.43-5.88,6.72,8.7-4.5,9.71-2.67-7.45,4.1-6.52,5.14,7.73-1.39,7.51.65-7.24.89-6.06,2.5,6.25,2.37,4.75,4.13c-2.34,2.75-5.67-3.52-6.64-2.74s2.45,5.51.56,6.52-2.46-6.31-3.66-6.77-2.15,6.41-4,6.42,1.29-7.81-.31-8.36-2.47,5.42-4.53,4.19S426.16,296.83,428,294.9Z" style="fill: rgb(245, 245, 245); transform-origin: 434.136px 299.14px;" id="elxlw1h1235zh" class="animable"></path><path d="M403.81,307c-3.17-.42-12.72,0-12.72,1.61s9.54-.2,8.71,1.41-9.68,1.1-9.4,2.61,8.43-.81,8.29.2-7.05,2.51-5.67,3.61,6.36-2.59,6.36-1.15-3.62,4.08-1.38,4.46c3.52.6,2.49-4.5,3.73-4.46s1.3,4.28,3.41,4.06-1.75-4.75-1.05-5.53,5.53,2.82,7.05,2-5.67-4-4.7-5,5.2,2.11,6.12.5S406.41,307.36,403.81,307Z" style="fill: rgb(230, 230, 230); transform-origin: 401.518px 313.323px;" id="el3x99bsha5lh" class="animable"></path><path d="M426.61,314.54c3.17-.42,12.72,0,12.72,1.61s-9.54-.2-8.71,1.41,9.68,1.1,9.4,2.61-8.44-.81-8.3.2,7,2.51,5.67,3.61-6.36-2.59-6.36-1.15,3.62,4.08,1.38,4.46c-3.51.6-2.49-4.5-3.73-4.46s-1.29,4.28-3.41,4.06,1.75-4.75,1.06-5.54-5.53,2.83-7.05,2,5.67-4,4.7-5-5.2,2.11-6.13.5S424,314.9,426.61,314.54Z" style="fill: rgb(235, 235, 235); transform-origin: 428.896px 320.863px;" id="el1vukdcu13e5" class="animable"></path><polygon points="393.61 334.33 399.61 384 429.13 384 435.13 334.33 393.61 334.33" style="fill: rgb(235, 235, 235); transform-origin: 414.37px 359.165px;" id="elfc83arq7i0c" class="animable"></polygon></g><g id="freepik--Shadow--inject-174" class="animable" style="transform-origin: 245.18px 412.39px;"><ellipse id="freepik--path--inject-174" cx="245.18" cy="412.39" rx="193.89" ry="11.32" style="fill: rgb(245, 245, 245); transform-origin: 245.18px 412.39px;" class="animable"></ellipse></g><g id="freepik--Graphics--inject-174" class="animable" style="transform-origin: 244.43px 202.73px;"><path d="M413.7,173.06a1.25,1.25,0,0,0,.45,1,4,4,0,0,0,1.33.65v-3.42a2.54,2.54,0,0,0-1.35.69A1.53,1.53,0,0,0,413.7,173.06Z" style="fill: #0095E8; transform-origin: 414.59px 173px;" id="elwlcufnr5kw7" class="animable"></path><path d="M417.89,178.84v3.32a2.64,2.64,0,0,0,1.3-.63,1.44,1.44,0,0,0,.43-1,1.25,1.25,0,0,0-.45-1A3.71,3.71,0,0,0,417.89,178.84Z" style="fill: #0095E8; transform-origin: 418.755px 180.5px;" id="elui4un04hzeq" class="animable"></path><path d="M416.49,158.77a17.95,17.95,0,1,0,17.95,17.95A18,18,0,0,0,416.49,158.77Zm5.56,24.82a7,7,0,0,1-4.16,1.74V188h-2.41v-2.62a13.39,13.39,0,0,1-3.39-.63,8.41,8.41,0,0,1-2.6-1.3l1.32-2.94a8.85,8.85,0,0,0,2.14,1.14,10,10,0,0,0,2.53.57v-4a17.73,17.73,0,0,1-2.89-.91,5.08,5.08,0,0,1-2-1.48,4,4,0,0,1-.8-2.59,4.66,4.66,0,0,1,1.46-3.43,7,7,0,0,1,4.2-1.74v-2.67h2.41V168a10.53,10.53,0,0,1,4.88,1.47l-1.2,3a9.53,9.53,0,0,0-3.68-1.25v4.09a16.72,16.72,0,0,1,2.85.88,5,5,0,0,1,2,1.47,3.92,3.92,0,0,1,.79,2.56A4.57,4.57,0,0,1,422.05,183.59Z" style="fill: #0095E8; transform-origin: 416.49px 176.72px;" id="elmlino1080os" class="animable"></path><g id="elfav287drv"><g style="opacity: 0.6; transform-origin: 416.49px 176.72px;" class="animable" id="eler65k41fv0q"><path d="M413.7,173.06a1.25,1.25,0,0,0,.45,1,4,4,0,0,0,1.33.65v-3.42a2.54,2.54,0,0,0-1.35.69A1.53,1.53,0,0,0,413.7,173.06Z" style="fill: rgb(255, 255, 255); transform-origin: 414.59px 173px;" id="elyi9i3hvo43h" class="animable"></path><path d="M417.89,178.84v3.32a2.64,2.64,0,0,0,1.3-.63,1.44,1.44,0,0,0,.43-1,1.25,1.25,0,0,0-.45-1A3.71,3.71,0,0,0,417.89,178.84Z" style="fill: rgb(255, 255, 255); transform-origin: 418.755px 180.5px;" id="el9s3hfwn8ttu" class="animable"></path><path d="M416.49,158.77a17.95,17.95,0,1,0,17.95,17.95A18,18,0,0,0,416.49,158.77Zm5.56,24.82a7,7,0,0,1-4.16,1.74V188h-2.41v-2.62a13.39,13.39,0,0,1-3.39-.63,8.41,8.41,0,0,1-2.6-1.3l1.32-2.94a8.85,8.85,0,0,0,2.14,1.14,10,10,0,0,0,2.53.57v-4a17.73,17.73,0,0,1-2.89-.91,5.08,5.08,0,0,1-2-1.48,4,4,0,0,1-.8-2.59,4.66,4.66,0,0,1,1.46-3.43,7,7,0,0,1,4.2-1.74v-2.67h2.41V168a10.53,10.53,0,0,1,4.88,1.47l-1.2,3a9.53,9.53,0,0,0-3.68-1.25v4.09a16.72,16.72,0,0,1,2.85.88,5,5,0,0,1,2,1.47,3.92,3.92,0,0,1,.79,2.56A4.57,4.57,0,0,1,422.05,183.59Z" style="fill: rgb(255, 255, 255); transform-origin: 416.49px 176.72px;" id="elh4h1vh04ynh" class="animable"></path></g></g><path d="M62.27,235.24a.65.65,0,0,0,.24.51,2,2,0,0,0,.69.33v-1.77a1.4,1.4,0,0,0-.7.36A.81.81,0,0,0,62.27,235.24Z" style="fill: #0095E8; transform-origin: 62.735px 235.195px;" id="elsoih8wuh7bc" class="animable"></path><path d="M64.44,238.23v1.71a1.28,1.28,0,0,0,.67-.32.74.74,0,0,0,.23-.54.68.68,0,0,0-.23-.51A2,2,0,0,0,64.44,238.23Z" style="fill: #0095E8; transform-origin: 64.89px 239.085px;" id="ele2zsnl7vtnt" class="animable"></path><path d="M63.72,227.84A9.29,9.29,0,1,0,73,237.13,9.29,9.29,0,0,0,63.72,227.84Zm2.88,12.84a3.65,3.65,0,0,1-2.16.91V243H63.2v-1.35a7.22,7.22,0,0,1-1.76-.33,4.47,4.47,0,0,1-1.35-.67l.69-1.52a4.15,4.15,0,0,0,1.11.58,4.89,4.89,0,0,0,1.31.3v-2.08a10,10,0,0,1-1.5-.47,2.52,2.52,0,0,1-1-.77,2.05,2.05,0,0,1-.41-1.33,2.41,2.41,0,0,1,.75-1.78,3.62,3.62,0,0,1,2.18-.9v-1.39h1.24v1.36a5.6,5.6,0,0,1,2.53.76l-.62,1.53a5,5,0,0,0-1.91-.64v2.11a10.08,10.08,0,0,1,1.48.46,2.53,2.53,0,0,1,1,.76,2,2,0,0,1,.41,1.32A2.36,2.36,0,0,1,66.6,240.68Z" style="fill: #0095E8; transform-origin: 63.71px 237.13px;" id="ellp6kpvidxld" class="animable"></path><g id="elrdm4qy8x4bl"><g style="opacity: 0.6; transform-origin: 63.71px 237.13px;" class="animable" id="elcd566p13psc"><path d="M62.27,235.24a.65.65,0,0,0,.24.51,2,2,0,0,0,.69.33v-1.77a1.4,1.4,0,0,0-.7.36A.81.81,0,0,0,62.27,235.24Z" style="fill: rgb(255, 255, 255); transform-origin: 62.735px 235.195px;" id="elwdzlwp9oyn" class="animable"></path><path d="M64.44,238.23v1.71a1.28,1.28,0,0,0,.67-.32.74.74,0,0,0,.23-.54.68.68,0,0,0-.23-.51A2,2,0,0,0,64.44,238.23Z" style="fill: rgb(255, 255, 255); transform-origin: 64.89px 239.085px;" id="el0jz7160tylc" class="animable"></path><path d="M63.72,227.84A9.29,9.29,0,1,0,73,237.13,9.29,9.29,0,0,0,63.72,227.84Zm2.88,12.84a3.65,3.65,0,0,1-2.16.91V243H63.2v-1.35a7.22,7.22,0,0,1-1.76-.33,4.47,4.47,0,0,1-1.35-.67l.69-1.52a4.15,4.15,0,0,0,1.11.58,4.89,4.89,0,0,0,1.31.3v-2.08a10,10,0,0,1-1.5-.47,2.52,2.52,0,0,1-1-.77,2.05,2.05,0,0,1-.41-1.33,2.41,2.41,0,0,1,.75-1.78,3.62,3.62,0,0,1,2.18-.9v-1.39h1.24v1.36a5.6,5.6,0,0,1,2.53.76l-.62,1.53a5,5,0,0,0-1.91-.64v2.11a10.08,10.08,0,0,1,1.48.46,2.53,2.53,0,0,1,1,.76,2,2,0,0,1,.41,1.32A2.36,2.36,0,0,1,66.6,240.68Z" style="fill: rgb(255, 255, 255); transform-origin: 63.71px 237.13px;" id="elx8nt79a50fg" class="animable"></path></g></g><path d="M404.34,213.08a.77.77,0,0,0,.3.63,2.24,2.24,0,0,0,.85.42v-2.2a1.7,1.7,0,0,0-.87.44A1,1,0,0,0,404.34,213.08Z" style="fill: #0095E8; transform-origin: 404.915px 213.03px;" id="el811ggsbctsh" class="animable"></path><path d="M407,216.8V219a1.7,1.7,0,0,0,.84-.41.89.89,0,0,0,.28-.67.8.8,0,0,0-.29-.63A2.45,2.45,0,0,0,407,216.8Z" style="fill: #0095E8; transform-origin: 407.56px 217.9px;" id="elim52ml4bv1f" class="animable"></path><path d="M406.14,203.86a11.58,11.58,0,1,0,11.58,11.58A11.58,11.58,0,0,0,406.14,203.86Zm3.59,16A4.54,4.54,0,0,1,407,221v1.73h-1.55V221a8.24,8.24,0,0,1-2.19-.4,5.72,5.72,0,0,1-1.68-.84l.86-1.89a5.62,5.62,0,0,0,1.38.73,6.53,6.53,0,0,0,1.63.37v-2.6a10.79,10.79,0,0,1-1.86-.59,3.26,3.26,0,0,1-1.28-.95,2.56,2.56,0,0,1-.51-1.67,3,3,0,0,1,.94-2.21,4.48,4.48,0,0,1,2.71-1.13v-1.72H407v1.69a6.81,6.81,0,0,1,3.15.95l-.77,1.91a6.07,6.07,0,0,0-2.38-.81v2.64a11.58,11.58,0,0,1,1.84.57,3.23,3.23,0,0,1,1.27.95,2.52,2.52,0,0,1,.51,1.65A2.94,2.94,0,0,1,409.73,219.87Z" style="fill: #0095E8; transform-origin: 406.14px 215.44px;" id="elxtskcdx97n" class="animable"></path><g id="elndewom0sng8"><g style="opacity: 0.6; transform-origin: 406.14px 215.44px;" class="animable" id="el3dxe97c88j3"><path d="M404.34,213.08a.77.77,0,0,0,.3.63,2.24,2.24,0,0,0,.85.42v-2.2a1.7,1.7,0,0,0-.87.44A1,1,0,0,0,404.34,213.08Z" style="fill: rgb(255, 255, 255); transform-origin: 404.915px 213.03px;" id="elrcetuxenja" class="animable"></path><path d="M407,216.8V219a1.7,1.7,0,0,0,.84-.41.89.89,0,0,0,.28-.67.8.8,0,0,0-.29-.63A2.45,2.45,0,0,0,407,216.8Z" style="fill: rgb(255, 255, 255); transform-origin: 407.56px 217.9px;" id="elrtpkr6b9pn" class="animable"></path><path d="M406.14,203.86a11.58,11.58,0,1,0,11.58,11.58A11.58,11.58,0,0,0,406.14,203.86Zm3.59,16A4.54,4.54,0,0,1,407,221v1.73h-1.55V221a8.24,8.24,0,0,1-2.19-.4,5.72,5.72,0,0,1-1.68-.84l.86-1.89a5.62,5.62,0,0,0,1.38.73,6.53,6.53,0,0,0,1.63.37v-2.6a10.79,10.79,0,0,1-1.86-.59,3.26,3.26,0,0,1-1.28-.95,2.56,2.56,0,0,1-.51-1.67,3,3,0,0,1,.94-2.21,4.48,4.48,0,0,1,2.71-1.13v-1.72H407v1.69a6.81,6.81,0,0,1,3.15.95l-.77,1.91a6.07,6.07,0,0,0-2.38-.81v2.64a11.58,11.58,0,0,1,1.84.57,3.23,3.23,0,0,1,1.27.95,2.52,2.52,0,0,1,.51,1.65A2.94,2.94,0,0,1,409.73,219.87Z" style="fill: rgb(255, 255, 255); transform-origin: 406.14px 215.44px;" id="elf8ro192qewm" class="animable"></path></g></g><path d="M76.15,266.62a.8.8,0,0,0,.3.64,2.4,2.4,0,0,0,.85.41v-2.2a1.7,1.7,0,0,0-.87.44A1,1,0,0,0,76.15,266.62Z" style="fill: #0095E8; transform-origin: 76.7249px 266.57px;" id="el3wy8yzqjd2w" class="animable"></path><path d="M78.85,270.34v2.15a1.74,1.74,0,0,0,.84-.41.88.88,0,0,0,.28-.66.82.82,0,0,0-.29-.64A2.55,2.55,0,0,0,78.85,270.34Z" style="fill: #0095E8; transform-origin: 79.4101px 271.415px;" id="eljv6c6t8uj6d" class="animable"></path><path d="M78,257.4A11.58,11.58,0,1,0,89.53,269,11.58,11.58,0,0,0,78,257.4Zm3.59,16a4.54,4.54,0,0,1-2.69,1.13v1.74H77.3v-1.7a8.24,8.24,0,0,1-2.19-.4,5.72,5.72,0,0,1-1.68-.84l.86-1.89a5.62,5.62,0,0,0,1.38.73,6.53,6.53,0,0,0,1.63.37V270a12.48,12.48,0,0,1-1.86-.59,3.31,3.31,0,0,1-1.28-1,2.56,2.56,0,0,1-.51-1.67,3,3,0,0,1,.94-2.21,4.48,4.48,0,0,1,2.71-1.13v-1.72h1.55v1.69a6.85,6.85,0,0,1,3.15.95l-.77,1.91a6.41,6.41,0,0,0-2.38-.81v2.64a11.58,11.58,0,0,1,1.84.57,3.23,3.23,0,0,1,1.27.95,2.54,2.54,0,0,1,.51,1.65A2.93,2.93,0,0,1,81.54,273.41Z" style="fill: #0095E8; transform-origin: 77.95px 268.98px;" id="elzl43ivsn7ac" class="animable"></path><g id="elgnly2kdloc8"><g style="opacity: 0.6; transform-origin: 77.95px 268.98px;" class="animable" id="el2armghnhhpm"><path d="M76.15,266.62a.8.8,0,0,0,.3.64,2.4,2.4,0,0,0,.85.41v-2.2a1.7,1.7,0,0,0-.87.44A1,1,0,0,0,76.15,266.62Z" style="fill: rgb(255, 255, 255); transform-origin: 76.7249px 266.57px;" id="el0wyvi2yu64ah" class="animable"></path><path d="M78.85,270.34v2.15a1.74,1.74,0,0,0,.84-.41.88.88,0,0,0,.28-.66.82.82,0,0,0-.29-.64A2.55,2.55,0,0,0,78.85,270.34Z" style="fill: rgb(255, 255, 255); transform-origin: 79.4101px 271.415px;" id="el3jqzm8yw848" class="animable"></path><path d="M78,257.4A11.58,11.58,0,1,0,89.53,269,11.58,11.58,0,0,0,78,257.4Zm3.59,16a4.54,4.54,0,0,1-2.69,1.13v1.74H77.3v-1.7a8.24,8.24,0,0,1-2.19-.4,5.72,5.72,0,0,1-1.68-.84l.86-1.89a5.62,5.62,0,0,0,1.38.73,6.53,6.53,0,0,0,1.63.37V270a12.48,12.48,0,0,1-1.86-.59,3.31,3.31,0,0,1-1.28-1,2.56,2.56,0,0,1-.51-1.67,3,3,0,0,1,.94-2.21,4.48,4.48,0,0,1,2.71-1.13v-1.72h1.55v1.69a6.85,6.85,0,0,1,3.15.95l-.77,1.91a6.41,6.41,0,0,0-2.38-.81v2.64a11.58,11.58,0,0,1,1.84.57,3.23,3.23,0,0,1,1.27.95,2.54,2.54,0,0,1,.51,1.65A2.93,2.93,0,0,1,81.54,273.41Z" style="fill: rgb(255, 255, 255); transform-origin: 77.95px 268.98px;" id="el9ehr2333wm" class="animable"></path></g></g><path d="M417.11,117.65a5.69,5.69,0,0,0-3.3-1.05h-92.4a5.74,5.74,0,0,0-5.74,5.75V136.1a5.67,5.67,0,0,0,.77,2.87,24.63,24.63,0,0,0,3.61,3.78,5.74,5.74,0,0,0,3.36,1.09h92.4a5.74,5.74,0,0,0,5.74-5.74V124.35a5.69,5.69,0,0,0-1.11-3.39A29.75,29.75,0,0,0,417.11,117.65Z" style="fill: #0095E8; transform-origin: 368.61px 130.22px;" id="el21fa6yoccx9" class="animable"></path><g id="elu9fu44t8gr"><path d="M417.11,117.65a5.69,5.69,0,0,0-3.3-1.05h-92.4a5.74,5.74,0,0,0-5.74,5.75V136.1a5.67,5.67,0,0,0,.77,2.87,24.63,24.63,0,0,0,3.61,3.78,5.74,5.74,0,0,0,3.36,1.09h92.4a5.74,5.74,0,0,0,5.74-5.74V124.35a5.69,5.69,0,0,0-1.11-3.39A29.75,29.75,0,0,0,417.11,117.65Z" style="fill: rgb(255, 255, 255); opacity: 0.4; transform-origin: 368.61px 130.22px;" class="animable" id="el5a6m16dmzz"></path></g><g id="el2dzkh5axn7x"><rect x="315.67" y="116.6" width="103.88" height="25.23" rx="5.74" style="fill: rgb(255, 255, 255); opacity: 0.4; transform-origin: 367.61px 129.215px;" class="animable" id="elabicqs1tme6"></rect></g><polygon points="329.39 120.96 331.84 125.91 337.3 126.7 333.35 130.56 334.28 135.99 329.39 133.43 324.51 135.99 325.44 130.56 321.49 126.7 326.95 125.91 329.39 120.96" style="fill: #0095E8; transform-origin: 329.395px 128.475px;" id="elccotq7hn82" class="animable"></polygon><polygon points="348.79 120.96 351.23 125.91 356.69 126.7 352.74 130.56 353.68 135.99 348.79 133.43 343.91 135.99 344.84 130.56 340.89 126.7 346.35 125.91 348.79 120.96" style="fill: #0095E8; transform-origin: 348.79px 128.475px;" id="elzpb94ghz34" class="animable"></polygon><polygon points="368.19 120.96 370.63 125.91 376.09 126.7 372.14 130.56 373.07 135.99 368.19 133.43 363.3 135.99 364.24 130.56 360.28 126.7 365.75 125.91 368.19 120.96" style="fill: #0095E8; transform-origin: 368.185px 128.475px;" id="ela2ojj00grrt" class="animable"></polygon><polygon points="387.59 120.96 390.03 125.91 395.49 126.7 391.54 130.56 392.47 135.99 387.59 133.43 382.7 135.99 383.63 130.56 379.68 126.7 385.14 125.91 387.59 120.96" style="fill: #0095E8; transform-origin: 387.585px 128.475px;" id="elfd9wwmn64vl" class="animable"></polygon><polygon points="406.98 120.96 409.43 125.91 414.89 126.7 410.94 130.56 411.87 135.99 406.98 133.43 402.1 135.99 403.03 130.56 399.08 126.7 404.54 125.91 406.98 120.96" style="fill: #0095E8; transform-origin: 406.985px 128.475px;" id="eldyg9azwfl1k" class="animable"></polygon><g id="eluuwbeaqgy2h"><polygon points="329.39 120.96 331.84 125.91 337.3 126.7 333.35 130.56 334.28 135.99 329.39 133.43 324.51 135.99 325.44 130.56 321.49 126.7 326.95 125.91 329.39 120.96" style="fill: rgb(255, 255, 255); opacity: 0.9; transform-origin: 329.395px 128.475px;" class="animable" id="ellrkwdh2rxr"></polygon></g><g id="elvjgl7cjv4eo"><polygon points="348.79 120.96 351.23 125.91 356.69 126.7 352.74 130.56 353.68 135.99 348.79 133.43 343.91 135.99 344.84 130.56 340.89 126.7 346.35 125.91 348.79 120.96" style="fill: rgb(255, 255, 255); opacity: 0.9; transform-origin: 348.79px 128.475px;" class="animable" id="els30og842lyd"></polygon></g><g id="elqcyx1bdtid"><polygon points="368.19 120.96 370.63 125.91 376.09 126.7 372.14 130.56 373.07 135.99 368.19 133.43 363.3 135.99 364.24 130.56 360.28 126.7 365.75 125.91 368.19 120.96" style="fill: rgb(255, 255, 255); opacity: 0.9; transform-origin: 368.185px 128.475px;" class="animable" id="els5dnegoh1sk"></polygon></g><g id="ellhybnuwqvf"><polygon points="387.59 120.96 390.03 125.91 395.49 126.7 391.54 130.56 392.47 135.99 387.59 133.43 382.7 135.99 383.63 130.56 379.68 126.7 385.14 125.91 387.59 120.96" style="fill: rgb(255, 255, 255); opacity: 0.9; transform-origin: 387.585px 128.475px;" class="animable" id="elxutzlomgh1"></polygon></g><g id="elphovj6jzapm"><polygon points="406.98 120.96 409.43 125.91 414.89 126.7 410.94 130.56 411.87 135.99 406.98 133.43 402.1 135.99 403.03 130.56 399.08 126.7 404.54 125.91 406.98 120.96" style="fill: rgb(255, 255, 255); opacity: 0.9; transform-origin: 406.985px 128.475px;" class="animable" id="el5d5v6buuuiq"></polygon></g><path d="M267.83,269.28v-3.77a9.38,9.38,0,0,0-18.76,0v3.77h-2.51v19.58h23.78V269.28Zm-16.24-3.77a6.86,6.86,0,1,1,13.72,0v3.77H251.59ZM259.7,279v3.16a1.25,1.25,0,0,1-2.5,0V279a2.31,2.31,0,0,1-1-2.42,2.32,2.32,0,0,1,4.6.47A2.29,2.29,0,0,1,259.7,279Z" style="fill: #0095E8; transform-origin: 258.45px 272.495px;" id="el2zta1dkbu4p" class="animable"></path><g id="elqjwrwjiqwn"><path d="M267.83,269.28v-3.77a9.38,9.38,0,0,0-18.76,0v3.77h-2.51v19.58h23.78V269.28Zm-16.24-3.77a6.86,6.86,0,1,1,13.72,0v3.77H251.59ZM259.7,279v3.16a1.25,1.25,0,0,1-2.5,0V279a2.31,2.31,0,0,1-1-2.42,2.32,2.32,0,0,1,4.6.47A2.29,2.29,0,0,1,259.7,279Z" style="fill: rgb(255, 255, 255); opacity: 0.6; transform-origin: 258.45px 272.495px;" class="animable" id="elwzfw5wpk9e"></path></g><circle cx="67.13" cy="166.5" r="3.42" style="fill: #0095E8; transform-origin: 67.13px 166.5px;" id="el19lez0r7hcm" class="animable"></circle><path d="M95,166.5a3.42,3.42,0,1,1-3.41-3.41A3.42,3.42,0,0,1,95,166.5Z" style="fill: #0095E8; transform-origin: 91.58px 166.51px;" id="elfjas45q45o4" class="animable"></path><circle cx="116.1" cy="166.5" r="3.41" style="fill: #0095E8; transform-origin: 116.1px 166.5px;" id="elqh1g22277ls" class="animable"></circle><path d="M70.55,143.64a3.42,3.42,0,1,1-3.42-3.42A3.42,3.42,0,0,1,70.55,143.64Z" style="fill: #0095E8; transform-origin: 67.13px 143.64px;" id="eljmhvz5r0zh" class="animable"></path><path d="M95,143.64a3.42,3.42,0,1,1-3.41-3.42A3.41,3.41,0,0,1,95,143.64Z" style="fill: #0095E8; transform-origin: 91.58px 143.64px;" id="elvzjleswbfzm" class="animable"></path><path d="M119.51,143.64a3.42,3.42,0,1,1-3.41-3.42A3.41,3.41,0,0,1,119.51,143.64Z" style="fill: #0095E8; transform-origin: 116.09px 143.64px;" id="elmqy4u4s4v7e" class="animable"></path><circle cx="67.13" cy="120.77" r="3.42" style="fill: #0095E8; transform-origin: 67.13px 120.77px;" id="elpbj5ls8lbw" class="animable"></circle><path d="M95,120.77a3.42,3.42,0,1,1-3.41-3.41A3.42,3.42,0,0,1,95,120.77Z" style="fill: #0095E8; transform-origin: 91.58px 120.78px;" id="elnervuiween" class="animable"></path><circle cx="116.1" cy="120.77" r="3.41" style="fill: #0095E8; transform-origin: 116.1px 120.77px;" id="el2l35o317r9p" class="animable"></circle><g id="elz23s459c3pc"><g style="opacity: 0.3; transform-origin: 91.61px 143.64px;" class="animable" id="elb1avg71ypnn"><circle cx="67.13" cy="166.5" r="3.42" style="fill: rgb(255, 255, 255); transform-origin: 67.13px 166.5px;" id="el0nxj62c5isj" class="animable"></circle><path d="M95,166.5a3.42,3.42,0,1,1-3.41-3.41A3.42,3.42,0,0,1,95,166.5Z" style="fill: rgb(255, 255, 255); transform-origin: 91.58px 166.51px;" id="elw0h88fppuq" class="animable"></path><circle cx="116.1" cy="166.5" r="3.41" style="fill: rgb(255, 255, 255); transform-origin: 116.1px 166.5px;" id="el37lirewg3nx" class="animable"></circle><path d="M70.55,143.64a3.42,3.42,0,1,1-3.42-3.42A3.42,3.42,0,0,1,70.55,143.64Z" style="fill: rgb(255, 255, 255); transform-origin: 67.13px 143.64px;" id="elnsj9w6wcksc" class="animable"></path><path d="M95,143.64a3.42,3.42,0,1,1-3.41-3.42A3.41,3.41,0,0,1,95,143.64Z" style="fill: rgb(255, 255, 255); transform-origin: 91.58px 143.64px;" id="eliwiirsw67d8" class="animable"></path><path d="M119.51,143.64a3.42,3.42,0,1,1-3.41-3.42A3.41,3.41,0,0,1,119.51,143.64Z" style="fill: rgb(255, 255, 255); transform-origin: 116.09px 143.64px;" id="elk6f9cxxyzpo" class="animable"></path><circle cx="67.13" cy="120.77" r="3.42" style="fill: rgb(255, 255, 255); transform-origin: 67.13px 120.77px;" id="el0bi2tl712a6" class="animable"></circle><path d="M95,120.77a3.42,3.42,0,1,1-3.41-3.41A3.42,3.42,0,0,1,95,120.77Z" style="fill: rgb(255, 255, 255); transform-origin: 91.58px 120.78px;" id="elnhbq9r5erd" class="animable"></path><circle cx="116.1" cy="120.77" r="3.41" style="fill: rgb(255, 255, 255); transform-origin: 116.1px 120.77px;" id="elzcpjtwsiuji" class="animable"></circle></g></g><path d="M116.1,166.5a1.65,1.65,0,0,1-1.65,1.65H67.94a2,2,0,0,1-1.34-3.4l45.33-42.33H68.78a1.65,1.65,0,0,1-1.65-1.65h0a1.64,1.64,0,0,1,1.65-1.64h46.51a2,2,0,0,1,1.34,3.4L71.31,164.86h43.14a1.65,1.65,0,0,1,1.65,1.64Z" style="fill: #0095E8; transform-origin: 91.615px 143.64px;" id="elxhmyut0icgc" class="animable"></path><g id="elhlqrfx8e88h"><g style="opacity: 0.6; transform-origin: 91.615px 143.64px;" class="animable" id="elzhexwiejewh"><path d="M116.1,166.5a1.65,1.65,0,0,1-1.65,1.65H67.94a2,2,0,0,1-1.34-3.4l45.33-42.33H68.78a1.65,1.65,0,0,1-1.65-1.65h0a1.64,1.64,0,0,1,1.65-1.64h46.51a2,2,0,0,1,1.34,3.4L71.31,164.86h43.14a1.65,1.65,0,0,1,1.65,1.64Z" style="fill: rgb(255, 255, 255); transform-origin: 91.615px 143.64px;" id="eldcsz60jgsd9" class="animable"></path></g></g></g><g id="freepik--device-2--inject-174" class="animable" style="transform-origin: 335.575px 253.925px;"><path d="M297.59,354.94h72.22a14.71,14.71,0,0,0,14.71-14.71V167.62a14.72,14.72,0,0,0-14.71-14.71H297.59a14.71,14.71,0,0,0-14.71,14.71V340.23A14.7,14.7,0,0,0,297.59,354.94Z" style="fill: #0095E8; transform-origin: 333.7px 253.925px;" id="el5i63vgt3srx" class="animable"></path><path d="M301.34,354.94h72.22a14.71,14.71,0,0,0,14.71-14.71V167.62a14.72,14.72,0,0,0-14.71-14.71H301.34a14.71,14.71,0,0,0-14.71,14.71V340.23A14.7,14.7,0,0,0,301.34,354.94Z" style="fill: rgb(38, 50, 56); transform-origin: 337.45px 253.925px;" id="elllug6ae6nce" class="animable"></path><path d="M301.34,156.29h18.77a2.43,2.43,0,0,1,2.42,2.13l.08.59a6,6,0,0,0,5.92,5.21h17.84a6,6,0,0,0,5.92-5.21l.07-.59a2.45,2.45,0,0,1,2.43-2.13h18.77a11.33,11.33,0,0,1,11.33,11.33V340.23a11.34,11.34,0,0,1-11.33,11.34H301.34A11.34,11.34,0,0,1,290,340.23V167.62A11.34,11.34,0,0,1,301.34,156.29Z" style="fill: #0095E8; transform-origin: 337.445px 253.93px;" id="elaiskon12qeh" class="animable"></path><g id="el4tljcb77ul6"><path d="M301.34,156.29h18.77a2.43,2.43,0,0,1,2.42,2.13l.08.59a6,6,0,0,0,5.92,5.21h17.84a6,6,0,0,0,5.92-5.21l.07-.59a2.45,2.45,0,0,1,2.43-2.13h18.77a11.33,11.33,0,0,1,11.33,11.33V340.23a11.34,11.34,0,0,1-11.33,11.34H301.34A11.34,11.34,0,0,1,290,340.23V167.62A11.34,11.34,0,0,1,301.34,156.29Z" style="fill: rgb(255, 255, 255); opacity: 0.8; transform-origin: 337.445px 253.93px;" class="animable" id="el07sg4lampb8k"></path></g><g id="elvs4qin6hmtb"><g style="opacity: 0.9; transform-origin: 337.385px 158.195px;" class="animable" id="elooa032uos6"><path d="M341.82,158.2a1.43,1.43,0,1,0,1.43-1.44A1.43,1.43,0,0,0,341.82,158.2Z" id="el5b0cl0t4goq" class="animable" style="transform-origin: 343.25px 158.19px;"></path><path d="M331.65,156.76h4.91a1.44,1.44,0,1,1,0,2.87h-4.91a1.44,1.44,0,1,1,0-2.87Z" id="elgy9zlxnksas" class="animable" style="transform-origin: 334.105px 158.195px;"></path></g></g><rect x="298.96" y="162.67" width="1.52" height="1.52" style="fill: #0095E8; transform-origin: 299.72px 163.43px;" id="elrztww8lna29" class="animable"></rect><polygon points="302 162.67 302 164.19 303.52 164.19 303.52 162.67 303.52 161.15 302 161.15 302 162.67" style="fill: #0095E8; transform-origin: 302.76px 162.67px;" id="el1zjt4j5rer9" class="animable"></polygon><polygon points="305.04 159.63 305.04 161.15 305.04 162.67 305.04 164.19 306.56 164.19 306.56 162.67 306.56 161.15 306.56 159.63 305.04 159.63" style="fill: #0095E8; transform-origin: 305.8px 161.91px;" id="elm5zniekgzcb" class="animable"></polygon><path d="M370.35,159.73v1.12h-.74v2.22h.74v1.12H377v-4.46Zm3,3.34h-2.23v-2.22h2.23Z" style="fill: #0095E8; transform-origin: 373.305px 161.96px;" id="elhpt63atnm8m" class="animable"></path><g id="elixncv66issi"><circle cx="337.22" cy="312.11" r="13.47" style="fill: rgb(255, 255, 255); opacity: 0.9; transform-origin: 337.22px 312.11px;" class="animable" id="ellodej7n9a2"></circle></g><path d="M337,319.31l-11.75-11.75a2.61,2.61,0,0,1,0-3.71h0a2.61,2.61,0,0,1,3.71,0l8,8,13.26-13.26a2.62,2.62,0,0,1,3.71,0h0a2.63,2.63,0,0,1,0,3.71Z" style="fill: #0095E8; transform-origin: 339.586px 308.565px;" id="elrpy2kprw5q" class="animable"></path></g><g id="freepik--Money--inject-174" class="animable" style="transform-origin: 260.815px 213.88px;"><g id="elvw9h6auq1r8"><path d="M379.39,287H295.64a2.5,2.5,0,0,1-2.5-2.5h0a2.5,2.5,0,0,1,2.5-2.5h83.75a2.5,2.5,0,0,1,2.5,2.5h0A2.5,2.5,0,0,1,379.39,287Z" style="opacity: 0.3; transform-origin: 337.515px 284.5px;" class="animable" id="elgq7cb7nhj96"></path></g><rect x="139.74" y="237.33" width="84.66" height="47.08" style="fill: #0095E8; transform-origin: 182.07px 260.87px;" id="eltw8t6195za" class="animable"></rect><g id="elu4a03f6ptdn"><rect x="139.74" y="237.33" width="84.66" height="47.08" style="fill: rgb(255, 255, 255); opacity: 0.3; transform-origin: 182.07px 260.87px;" class="animable" id="elrojnpleyn87"></rect></g><g id="elp2y1edihrf"><path d="M220.6,277V244.74a3.61,3.61,0,0,1-3.61-3.61H147.15a3.61,3.61,0,0,1-3.61,3.61V277a3.61,3.61,0,0,1,3.61,3.61H217A3.61,3.61,0,0,1,220.6,277Z" style="fill: rgb(255, 255, 255); opacity: 0.8; transform-origin: 182.07px 260.87px;" class="animable" id="elotk7jns783n"></path></g><path d="M180,258.18a.93.93,0,0,0,.34.73,2.74,2.74,0,0,0,1,.48v-2.52a2,2,0,0,0-1,.51A1.16,1.16,0,0,0,180,258.18Z" style="fill: #0095E8; transform-origin: 180.67px 258.13px;" id="elaz26ay9gtlq" class="animable"></path><path d="M183.1,262.43v2.45a2,2,0,0,0,1-.46,1.07,1.07,0,0,0,.32-.77.91.91,0,0,0-.33-.72A2.83,2.83,0,0,0,183.1,262.43Z" style="fill: #0095E8; transform-origin: 183.76px 263.655px;" id="elmar3a779k7i" class="animable"></path><path d="M182.07,247.67a13.21,13.21,0,1,0,13.2,13.2A13.21,13.21,0,0,0,182.07,247.67Zm4.09,18.26a5.14,5.14,0,0,1-3.06,1.28v2h-1.78v-1.93a9.71,9.71,0,0,1-2.49-.46,6.19,6.19,0,0,1-1.91-1l1-2.16a6.2,6.2,0,0,0,1.58.83,7,7,0,0,0,1.85.43v-3a13.34,13.34,0,0,1-2.12-.67,3.74,3.74,0,0,1-1.45-1.09,2.92,2.92,0,0,1-.59-1.9,3.41,3.41,0,0,1,1.08-2.53,5.05,5.05,0,0,1,3.08-1.28v-2h1.78v1.93a7.8,7.8,0,0,1,3.59,1.08l-.89,2.18a7,7,0,0,0-2.7-.92v3a12.1,12.1,0,0,1,2.09.65,3.62,3.62,0,0,1,1.45,1.08,2.85,2.85,0,0,1,.58,1.88A3.34,3.34,0,0,1,186.16,265.93Z" style="fill: #0095E8; transform-origin: 182.06px 260.88px;" id="el9xwivhy1ufc" class="animable"></path><g id="els32144g58v"><g style="opacity: 0.3; transform-origin: 182.06px 260.88px;" class="animable" id="el0nopieldric"><path d="M180,258.18a.93.93,0,0,0,.34.73,2.74,2.74,0,0,0,1,.48v-2.52a2,2,0,0,0-1,.51A1.16,1.16,0,0,0,180,258.18Z" style="fill: rgb(255, 255, 255); transform-origin: 180.67px 258.13px;" id="elbjuufnbgxak" class="animable"></path><path d="M183.1,262.43v2.45a2,2,0,0,0,1-.46,1.07,1.07,0,0,0,.32-.77.91.91,0,0,0-.33-.72A2.83,2.83,0,0,0,183.1,262.43Z" style="fill: rgb(255, 255, 255); transform-origin: 183.76px 263.655px;" id="eld4brrqthl4r" class="animable"></path><path d="M182.07,247.67a13.21,13.21,0,1,0,13.2,13.2A13.21,13.21,0,0,0,182.07,247.67Zm4.09,18.26a5.14,5.14,0,0,1-3.06,1.28v2h-1.78v-1.93a9.71,9.71,0,0,1-2.49-.46,6.19,6.19,0,0,1-1.91-1l1-2.16a6.2,6.2,0,0,0,1.58.83,7,7,0,0,0,1.85.43v-3a13.34,13.34,0,0,1-2.12-.67,3.74,3.74,0,0,1-1.45-1.09,2.92,2.92,0,0,1-.59-1.9,3.41,3.41,0,0,1,1.08-2.53,5.05,5.05,0,0,1,3.08-1.28v-2h1.78v1.93a7.8,7.8,0,0,1,3.59,1.08l-.89,2.18a7,7,0,0,0-2.7-.92v3a12.1,12.1,0,0,1,2.09.65,3.62,3.62,0,0,1,1.45,1.08,2.85,2.85,0,0,1,.58,1.88A3.34,3.34,0,0,1,186.16,265.93Z" style="fill: rgb(255, 255, 255); transform-origin: 182.06px 260.88px;" id="elh1tcbn2qjo7" class="animable"></path></g></g><g id="elellej1zd7o"><rect x="164.45" y="188.78" width="47.08" height="84.66" style="fill: #0095E8; transform-origin: 187.99px 231.11px; transform: rotate(-67.5deg);" class="animable" id="elbi6w7qvvs4d"></rect></g><g id="el7b4eg594xy"><rect x="164.45" y="188.78" width="47.08" height="84.66" style="fill: rgb(255, 255, 255); opacity: 0.3; transform-origin: 187.99px 231.11px; transform: rotate(-67.5deg);" class="animable" id="elxxq2r9md48"></rect></g><g id="elcnl4r6tol4n"><path d="M158.57,201.46l-12.35,29.81a3.61,3.61,0,0,1,1.95,4.72l64.53,26.72a3.6,3.6,0,0,1,4.71-1.95L229.76,231a3.62,3.62,0,0,1-1.95-4.72L163.28,199.5A3.6,3.6,0,0,1,158.57,201.46Z" style="fill: rgb(255, 255, 255); opacity: 0.8; transform-origin: 187.99px 231.105px;" class="animable" id="el0ltam4exo7kb"></path></g><path d="M188.86,234.38a.9.9,0,0,0,0-.8,2.67,2.67,0,0,0-.71-.81l-1,2.32a1.92,1.92,0,0,0,1.1-.09A1.16,1.16,0,0,0,188.86,234.38Z" style="fill: #0095E8; transform-origin: 188.052px 233.951px;" id="elrkibwxmt21a" class="animable"></path><path d="M187.64,229.28l.93-2.26a1.83,1.83,0,0,0-1.06.06,1,1,0,0,0-.58.58.9.9,0,0,0,0,.8A3,3,0,0,0,187.64,229.28Z" style="fill: #0095E8; transform-origin: 187.703px 228.124px;" id="ely6xl35scrb" class="animable"></path><path d="M182.94,243.31a13.2,13.2,0,1,0-7.15-17.25A13.2,13.2,0,0,0,182.94,243.31Zm3.21-18.44a5.19,5.19,0,0,1,3.32,0l.75-1.83,1.64.68-.74,1.78a9.74,9.74,0,0,1,2.13,1.38,6.27,6.27,0,0,1,1.4,1.61l-1.72,1.63a6.24,6.24,0,0,0-1.14-1.37,7.13,7.13,0,0,0-1.56-1.11l-1.13,2.73a13.64,13.64,0,0,1,1.71,1.44,3.66,3.66,0,0,1,.92,1.56,2.86,2.86,0,0,1-.19,2,3.36,3.36,0,0,1-1.95,1.92,5.09,5.09,0,0,1-3.35,0l-.75,1.81-1.63-.68.73-1.78a7.81,7.81,0,0,1-2.9-2.37l1.65-1.68a7,7,0,0,0,2.15,1.89l1.15-2.78a13.21,13.21,0,0,1-1.69-1.4,3.66,3.66,0,0,1-.92-1.55,2.84,2.84,0,0,1,.18-2A3.36,3.36,0,0,1,186.15,224.87Z" style="fill: #0095E8; transform-origin: 187.985px 231.112px;" id="eljniewsn6b7d" class="animable"></path><g id="elxfb486ma1wp"><g style="opacity: 0.3; transform-origin: 187.985px 231.112px;" class="animable" id="ell1o4s7tz3yh"><path d="M188.86,234.38a.9.9,0,0,0,0-.8,2.67,2.67,0,0,0-.71-.81l-1,2.32a1.92,1.92,0,0,0,1.1-.09A1.16,1.16,0,0,0,188.86,234.38Z" style="fill: rgb(255, 255, 255); transform-origin: 188.052px 233.951px;" id="elzqqjs2jp9qs" class="animable"></path><path d="M187.64,229.28l.93-2.26a1.83,1.83,0,0,0-1.06.06,1,1,0,0,0-.58.58.9.9,0,0,0,0,.8A3,3,0,0,0,187.64,229.28Z" style="fill: rgb(255, 255, 255); transform-origin: 187.703px 228.124px;" id="elzy9bftiemik" class="animable"></path><path d="M182.94,243.31a13.2,13.2,0,1,0-7.15-17.25A13.2,13.2,0,0,0,182.94,243.31Zm3.21-18.44a5.19,5.19,0,0,1,3.32,0l.75-1.83,1.64.68-.74,1.78a9.74,9.74,0,0,1,2.13,1.38,6.27,6.27,0,0,1,1.4,1.61l-1.72,1.63a6.24,6.24,0,0,0-1.14-1.37,7.13,7.13,0,0,0-1.56-1.11l-1.13,2.73a13.64,13.64,0,0,1,1.71,1.44,3.66,3.66,0,0,1,.92,1.56,2.86,2.86,0,0,1-.19,2,3.36,3.36,0,0,1-1.95,1.92,5.09,5.09,0,0,1-3.35,0l-.75,1.81-1.63-.68.73-1.78a7.81,7.81,0,0,1-2.9-2.37l1.65-1.68a7,7,0,0,0,2.15,1.89l1.15-2.78a13.21,13.21,0,0,1-1.69-1.4,3.66,3.66,0,0,1-.92-1.55,2.84,2.84,0,0,1,.18-2A3.36,3.36,0,0,1,186.15,224.87Z" style="fill: rgb(255, 255, 255); transform-origin: 187.985px 231.112px;" id="el3jyg22j2oeq" class="animable"></path></g></g><g id="elea0kgcjxva6"><rect x="181.31" y="163.55" width="47.08" height="84.66" style="fill: #0095E8; transform-origin: 204.85px 205.88px; transform: rotate(-45deg);" class="animable" id="elty5sfk978h"></rect></g><g id="el2dfpkhubaxu"><rect x="181.31" y="163.55" width="47.08" height="84.66" style="fill: rgb(255, 255, 255); opacity: 0.3; transform-origin: 204.85px 205.88px; transform: rotate(-45deg);" class="animable" id="elh3d9y2lkn3"></rect></g><g id="elfuxrylka2vv"><path d="M189,167.22,166.2,190a3.6,3.6,0,0,1,0,5.1l49.38,49.39a3.62,3.62,0,0,1,5.11,0l22.81-22.82a3.6,3.6,0,0,1,0-5.1l-49.38-49.39A3.6,3.6,0,0,1,189,167.22Z" style="fill: rgb(255, 255, 255); opacity: 0.8; transform-origin: 204.85px 205.835px;" class="animable" id="eldaeboe9cgzr"></path></g><path d="M204.4,209.23a.92.92,0,0,0,.28-.75,2.89,2.89,0,0,0-.36-1l-1.77,1.78a1.85,1.85,0,0,0,1,.34A1.13,1.13,0,0,0,204.4,209.23Z" style="fill: #0095E8; transform-origin: 203.617px 208.54px;" id="elizcc1i0jqbm" class="animable"></path><path d="M205.23,204.05l1.72-1.73a1.92,1.92,0,0,0-1-.35,1,1,0,0,0-.76.31.92.92,0,0,0-.28.75A2.79,2.79,0,0,0,205.23,204.05Z" style="fill: #0095E8; transform-origin: 205.928px 203.01px;" id="elmr8gd8c0jak" class="animable"></path><path d="M195.51,215.21a13.21,13.21,0,1,0,0-18.67A13.21,13.21,0,0,0,195.51,215.21Zm10-15.8a5.14,5.14,0,0,1,3.08,1.26l1.4-1.41,1.25,1.26-1.36,1.36a9.58,9.58,0,0,1,1.43,2.09,6.06,6.06,0,0,1,.68,2l-2.22.84a6.12,6.12,0,0,0-.52-1.7,7.47,7.47,0,0,0-1-1.62l-2.1,2.09a12.69,12.69,0,0,1,1,2,3.82,3.82,0,0,1,.26,1.8,3,3,0,0,1-.93,1.76,3.43,3.43,0,0,1-2.55,1,5.06,5.06,0,0,1-3.09-1.28l-1.39,1.39L198.24,211l1.36-1.36a7.75,7.75,0,0,1-1.77-3.31l2.16-.91a7.12,7.12,0,0,0,1.27,2.57l2.13-2.13a12.05,12.05,0,0,1-1-1.94,3.78,3.78,0,0,1-.26-1.79,2.93,2.93,0,0,1,.92-1.74A3.35,3.35,0,0,1,205.53,199.41Z" style="fill: #0095E8; transform-origin: 204.857px 205.875px;" id="elzsi8tevto2" class="animable"></path><g id="elrr5pthm9rv"><g style="opacity: 0.3; transform-origin: 204.857px 205.875px;" class="animable" id="eljj4epj7wour"><path d="M204.4,209.23a.92.92,0,0,0,.28-.75,2.89,2.89,0,0,0-.36-1l-1.77,1.78a1.85,1.85,0,0,0,1,.34A1.13,1.13,0,0,0,204.4,209.23Z" style="fill: rgb(255, 255, 255); transform-origin: 203.617px 208.54px;" id="elf20u5jgxuni" class="animable"></path><path d="M205.23,204.05l1.72-1.73a1.92,1.92,0,0,0-1-.35,1,1,0,0,0-.76.31.92.92,0,0,0-.28.75A2.79,2.79,0,0,0,205.23,204.05Z" style="fill: rgb(255, 255, 255); transform-origin: 205.928px 203.01px;" id="el9l877nc5uwi" class="animable"></path><path d="M195.51,215.21a13.21,13.21,0,1,0,0-18.67A13.21,13.21,0,0,0,195.51,215.21Zm10-15.8a5.14,5.14,0,0,1,3.08,1.26l1.4-1.41,1.25,1.26-1.36,1.36a9.58,9.58,0,0,1,1.43,2.09,6.06,6.06,0,0,1,.68,2l-2.22.84a6.12,6.12,0,0,0-.52-1.7,7.47,7.47,0,0,0-1-1.62l-2.1,2.09a12.69,12.69,0,0,1,1,2,3.82,3.82,0,0,1,.26,1.8,3,3,0,0,1-.93,1.76,3.43,3.43,0,0,1-2.55,1,5.06,5.06,0,0,1-3.09-1.28l-1.39,1.39L198.24,211l1.36-1.36a7.75,7.75,0,0,1-1.77-3.31l2.16-.91a7.12,7.12,0,0,0,1.27,2.57l2.13-2.13a12.05,12.05,0,0,1-1-1.94,3.78,3.78,0,0,1-.26-1.79,2.93,2.93,0,0,1,.92-1.74A3.35,3.35,0,0,1,205.53,199.41Z" style="fill: rgb(255, 255, 255); transform-origin: 204.857px 205.875px;" id="elm7yz2uzqwyo" class="animable"></path></g></g><g id="el0smbeqc0utz"><rect x="206.54" y="146.69" width="47.08" height="84.66" style="fill: #0095E8; transform-origin: 230.08px 189.02px; transform: rotate(-22.5deg);" class="animable" id="el8jn7h2vworg"></rect></g><g id="elk0jbn9hjybm"><rect x="206.54" y="146.69" width="47.08" height="84.66" style="fill: rgb(255, 255, 255); opacity: 0.3; transform-origin: 230.08px 189.02px; transform: rotate(-22.5deg);" class="animable" id="elq3s0igab61i"></rect></g><g id="elhde9jpcsjvn"><path d="M230.25,147.24l-29.82,12.35a3.61,3.61,0,0,1-2,4.72l26.73,64.52a3.6,3.6,0,0,1,4.71,1.95l29.82-12.34a3.6,3.6,0,0,1,1.95-4.72L235,149.2A3.61,3.61,0,0,1,230.25,147.24Z" style="fill: rgb(255, 255, 255); opacity: 0.8; transform-origin: 230.035px 189.01px;" class="animable" id="elrtt43aas9yl"></path></g><path d="M228.38,191.94a.9.9,0,0,0,.55-.59,3,3,0,0,0,.07-1.08l-2.33,1a1.8,1.8,0,0,0,.85.72A1.11,1.11,0,0,0,228.38,191.94Z" style="fill: #0095E8; transform-origin: 227.845px 191.162px;" id="elrtty8s4d5js" class="animable"></path><path d="M231.13,187.47l2.26-.94a1.94,1.94,0,0,0-.79-.7,1,1,0,0,0-.83,0,.94.94,0,0,0-.54.58A2.86,2.86,0,0,0,231.13,187.47Z" style="fill: #0095E8; transform-origin: 232.254px 186.605px;" id="elv094c38izp" class="animable"></path><path d="M217.88,194.07A13.21,13.21,0,1,0,225,176.81,13.22,13.22,0,0,0,217.88,194.07Zm15.31-10.77a5.19,5.19,0,0,1,2.36,2.34l1.83-.76.68,1.64-1.79.73a9.64,9.64,0,0,1,.53,2.49,5.94,5.94,0,0,1-.15,2.13l-2.37-.07a6.34,6.34,0,0,0,.17-1.78,7.05,7.05,0,0,0-.32-1.88l-2.73,1.13a13.65,13.65,0,0,1,.19,2.22,3.8,3.8,0,0,1-.45,1.76,2.9,2.9,0,0,1-1.53,1.27,3.42,3.42,0,0,1-2.75,0,5.09,5.09,0,0,1-2.36-2.37l-1.82.76-.68-1.64,1.79-.74a7.67,7.67,0,0,1-.38-3.73l2.35,0a7,7,0,0,0,.19,2.86l2.78-1.16a12.33,12.33,0,0,1-.21-2.18,3.59,3.59,0,0,1,.45-1.75,2.92,2.92,0,0,1,1.51-1.26A3.36,3.36,0,0,1,233.19,183.3Z" style="fill: #0095E8; transform-origin: 230.082px 189.004px;" id="el4b71uyenbp" class="animable"></path><g id="eltti9zsx89si"><g style="opacity: 0.3; transform-origin: 230.082px 189.004px;" class="animable" id="elvtw5d00vrtp"><path d="M228.38,191.94a.9.9,0,0,0,.55-.59,3,3,0,0,0,.07-1.08l-2.33,1a1.8,1.8,0,0,0,.85.72A1.11,1.11,0,0,0,228.38,191.94Z" style="fill: rgb(255, 255, 255); transform-origin: 227.845px 191.162px;" id="elgky3iv5ffls" class="animable"></path><path d="M231.13,187.47l2.26-.94a1.94,1.94,0,0,0-.79-.7,1,1,0,0,0-.83,0,.94.94,0,0,0-.54.58A2.86,2.86,0,0,0,231.13,187.47Z" style="fill: rgb(255, 255, 255); transform-origin: 232.254px 186.605px;" id="elsftp8kxxd9" class="animable"></path><path d="M217.88,194.07A13.21,13.21,0,1,0,225,176.81,13.22,13.22,0,0,0,217.88,194.07Zm15.31-10.77a5.19,5.19,0,0,1,2.36,2.34l1.83-.76.68,1.64-1.79.73a9.64,9.64,0,0,1,.53,2.49,5.94,5.94,0,0,1-.15,2.13l-2.37-.07a6.34,6.34,0,0,0,.17-1.78,7.05,7.05,0,0,0-.32-1.88l-2.73,1.13a13.65,13.65,0,0,1,.19,2.22,3.8,3.8,0,0,1-.45,1.76,2.9,2.9,0,0,1-1.53,1.27,3.42,3.42,0,0,1-2.75,0,5.09,5.09,0,0,1-2.36-2.37l-1.82.76-.68-1.64,1.79-.74a7.67,7.67,0,0,1-.38-3.73l2.35,0a7,7,0,0,0,.19,2.86l2.78-1.16a12.33,12.33,0,0,1-.21-2.18,3.59,3.59,0,0,1,.45-1.75,2.92,2.92,0,0,1,1.51-1.26A3.36,3.36,0,0,1,233.19,183.3Z" style="fill: rgb(255, 255, 255); transform-origin: 230.082px 189.004px;" id="elv0vj1ogdsx" class="animable"></path></g></g><rect x="236.31" y="140.76" width="47.08" height="84.66" style="fill: #0095E8; transform-origin: 259.85px 183.09px;" id="eln2ev6edtnz" class="animable"></rect><g id="el5bcvzicbxx6"><rect x="236.31" y="140.76" width="47.08" height="84.66" style="fill: rgb(255, 255, 255); opacity: 0.3; transform-origin: 259.85px 183.09px;" class="animable" id="elu0m5r7xzdth"></rect></g><g id="el3ehrdeh6mym"><path d="M276,144.56H243.71a3.6,3.6,0,0,1-3.6,3.61V218a3.61,3.61,0,0,1,3.6,3.61H276a3.61,3.61,0,0,1,3.6-3.61V148.17A3.6,3.6,0,0,1,276,144.56Z" style="fill: rgb(255, 255, 255); opacity: 0.8; transform-origin: 259.855px 183.085px;" class="animable" id="elld1u2hr1zco"></path></g><path d="M257.16,185.15a.94.94,0,0,0,.73-.34,2.92,2.92,0,0,0,.47-1h-2.51a1.85,1.85,0,0,0,.5,1A1.17,1.17,0,0,0,257.16,185.15Z" style="fill: #0095E8; transform-origin: 257.105px 184.48px;" id="elj9u7cftdo9j" class="animable"></path><path d="M261.41,182.07h2.44a1.88,1.88,0,0,0-.46-1,1,1,0,0,0-.76-.32.92.92,0,0,0-.73.33A2.79,2.79,0,0,0,261.41,182.07Z" style="fill: #0095E8; transform-origin: 262.63px 181.41px;" id="elnzh97vopjg7" class="animable"></path><path d="M246.65,183.09a13.2,13.2,0,1,0,13.2-13.2A13.2,13.2,0,0,0,246.65,183.09ZM264.9,179a5.15,5.15,0,0,1,1.29,3.07h2v1.77h-1.93a9.71,9.71,0,0,1-.46,2.49,6.42,6.42,0,0,1-.95,1.91l-2.17-1a6.32,6.32,0,0,0,.84-1.57,7.58,7.58,0,0,0,.42-1.86H261a14.38,14.38,0,0,1-.68,2.12,3.74,3.74,0,0,1-1.09,1.45,2.9,2.9,0,0,1-1.9.59,3.42,3.42,0,0,1-2.52-1.07,5.18,5.18,0,0,1-1.29-3.09h-2v-1.77h1.93a7.84,7.84,0,0,1,1.08-3.6l2.18.89a6.88,6.88,0,0,0-.92,2.71h3a12,12,0,0,1,.64-2.1,3.69,3.69,0,0,1,1.08-1.45,3,3,0,0,1,1.89-.58A3.34,3.34,0,0,1,264.9,179Z" style="fill: #0095E8; transform-origin: 259.85px 183.09px;" id="el59sb7z6sic4" class="animable"></path><g id="elgq88hme9sa9"><g style="opacity: 0.3; transform-origin: 259.85px 183.09px;" class="animable" id="elwfx6pns12k"><path d="M257.16,185.15a.94.94,0,0,0,.73-.34,2.92,2.92,0,0,0,.47-1h-2.51a1.85,1.85,0,0,0,.5,1A1.17,1.17,0,0,0,257.16,185.15Z" style="fill: rgb(255, 255, 255); transform-origin: 257.105px 184.48px;" id="eltjlqsumkkgk" class="animable"></path><path d="M261.41,182.07h2.44a1.88,1.88,0,0,0-.46-1,1,1,0,0,0-.76-.32.92.92,0,0,0-.73.33A2.79,2.79,0,0,0,261.41,182.07Z" style="fill: rgb(255, 255, 255); transform-origin: 262.63px 181.41px;" id="elni61o57m4rk" class="animable"></path><path d="M246.65,183.09a13.2,13.2,0,1,0,13.2-13.2A13.2,13.2,0,0,0,246.65,183.09ZM264.9,179a5.15,5.15,0,0,1,1.29,3.07h2v1.77h-1.93a9.71,9.71,0,0,1-.46,2.49,6.42,6.42,0,0,1-.95,1.91l-2.17-1a6.32,6.32,0,0,0,.84-1.57,7.58,7.58,0,0,0,.42-1.86H261a14.38,14.38,0,0,1-.68,2.12,3.74,3.74,0,0,1-1.09,1.45,2.9,2.9,0,0,1-1.9.59,3.42,3.42,0,0,1-2.52-1.07,5.18,5.18,0,0,1-1.29-3.09h-2v-1.77h1.93a7.84,7.84,0,0,1,1.08-3.6l2.18.89a6.88,6.88,0,0,0-.92,2.71h3a12,12,0,0,1,.64-2.1,3.69,3.69,0,0,1,1.08-1.45,3,3,0,0,1,1.89-.58A3.34,3.34,0,0,1,264.9,179Z" style="fill: rgb(255, 255, 255); transform-origin: 259.85px 183.09px;" id="el0m3yt2qzjhy" class="animable"></path></g></g><g id="eltasdi4xfgvh"><rect x="247.29" y="165.47" width="84.66" height="47.08" style="fill: #0095E8; transform-origin: 289.62px 189.01px; transform: rotate(-67.5deg);" class="animable" id="el0nzgy9xkggf"></rect></g><g id="el5j9jgm196xe"><rect x="247.29" y="165.47" width="84.66" height="47.08" style="fill: rgb(255, 255, 255); opacity: 0.3; transform-origin: 289.62px 189.01px; transform: rotate(-67.5deg);" class="animable" id="elawyeqcg90ml"></rect></g><g id="elcsksrx2db1h"><path d="M319.27,159.59l-29.82-12.35a3.61,3.61,0,0,1-4.71,2L258,213.72a3.6,3.6,0,0,1,1.95,4.72l29.82,12.34a3.6,3.6,0,0,1,4.71-1.95l26.73-64.52A3.61,3.61,0,0,1,319.27,159.59Z" style="fill: rgb(255, 255, 255); opacity: 0.8; transform-origin: 289.605px 189.01px;" class="animable" id="ely9m5k13pes"></path></g><path d="M286.34,189.88a.93.93,0,0,0,.8,0,2.89,2.89,0,0,0,.82-.72l-2.33-1a2,2,0,0,0,.09,1.11A1.17,1.17,0,0,0,286.34,189.88Z" style="fill: #0095E8; transform-origin: 286.775px 189.065px;" id="elewri0rv82lp" class="animable"></path><path d="M291.45,188.66l2.26.94a2,2,0,0,0-.06-1.06,1,1,0,0,0-.59-.59.91.91,0,0,0-.79,0A2.8,2.8,0,0,0,291.45,188.66Z" style="fill: #0095E8; transform-origin: 292.602px 188.73px;" id="el18l47tqi3wx" class="animable"></path><path d="M277.42,184a13.21,13.21,0,1,0,17.25-7.15A13.19,13.19,0,0,0,277.42,184Zm18.43,3.21a5.13,5.13,0,0,1,0,3.32l1.84.76-.68,1.64-1.78-.74a9.74,9.74,0,0,1-1.38,2.13,6.46,6.46,0,0,1-1.62,1.4L290.62,194a7.11,7.11,0,0,0,2.47-2.69l-2.73-1.13a13.36,13.36,0,0,1-1.43,1.7,3.78,3.78,0,0,1-1.56.93,3,3,0,0,1-2-.19,3.46,3.46,0,0,1-1.92-2,5.13,5.13,0,0,1,0-3.34l-1.82-.75.68-1.64,1.78.74a7.78,7.78,0,0,1,2.38-2.91l1.67,1.65a7.09,7.09,0,0,0-1.89,2.15l2.78,1.16a12.71,12.71,0,0,1,1.4-1.7,3.83,3.83,0,0,1,1.55-.92,2.94,2.94,0,0,1,2,.19A3.36,3.36,0,0,1,295.85,187.17Z" style="fill: #0095E8; transform-origin: 289.623px 189.055px;" id="el82cf2rtrlr" class="animable"></path><g id="el10y4g7zsnw5"><g style="opacity: 0.3; transform-origin: 289.623px 189.055px;" class="animable" id="elgrq21cq1dk5"><path d="M286.34,189.88a.93.93,0,0,0,.8,0,2.89,2.89,0,0,0,.82-.72l-2.33-1a2,2,0,0,0,.09,1.11A1.17,1.17,0,0,0,286.34,189.88Z" style="fill: rgb(255, 255, 255); transform-origin: 286.775px 189.065px;" id="el6ex4yhyxb3a" class="animable"></path><path d="M291.45,188.66l2.26.94a2,2,0,0,0-.06-1.06,1,1,0,0,0-.59-.59.91.91,0,0,0-.79,0A2.8,2.8,0,0,0,291.45,188.66Z" style="fill: rgb(255, 255, 255); transform-origin: 292.602px 188.73px;" id="elzljku5qnkfr" class="animable"></path><path d="M277.42,184a13.21,13.21,0,1,0,17.25-7.15A13.19,13.19,0,0,0,277.42,184Zm18.43,3.21a5.13,5.13,0,0,1,0,3.32l1.84.76-.68,1.64-1.78-.74a9.74,9.74,0,0,1-1.38,2.13,6.46,6.46,0,0,1-1.62,1.4L290.62,194a7.11,7.11,0,0,0,2.47-2.69l-2.73-1.13a13.36,13.36,0,0,1-1.43,1.7,3.78,3.78,0,0,1-1.56.93,3,3,0,0,1-2-.19,3.46,3.46,0,0,1-1.92-2,5.13,5.13,0,0,1,0-3.34l-1.82-.75.68-1.64,1.78.74a7.78,7.78,0,0,1,2.38-2.91l1.67,1.65a7.09,7.09,0,0,0-1.89,2.15l2.78,1.16a12.71,12.71,0,0,1,1.4-1.7,3.83,3.83,0,0,1,1.55-.92,2.94,2.94,0,0,1,2,.19A3.36,3.36,0,0,1,295.85,187.17Z" style="fill: rgb(255, 255, 255); transform-origin: 289.623px 189.055px;" id="elaenys3f1sto" class="animable"></path></g></g><g id="eljtr3k50537i"><rect x="272.52" y="182.33" width="84.66" height="47.08" style="fill: #0095E8; transform-origin: 314.85px 205.87px; transform: rotate(-45deg);" class="animable" id="elkbbotb68pti"></rect></g><g id="eldononvc6lce"><rect x="272.52" y="182.33" width="84.66" height="47.08" style="fill: rgb(255, 255, 255); opacity: 0.3; transform-origin: 314.85px 205.87px; transform: rotate(-45deg);" class="animable" id="elobyvhib1vtn"></rect></g><g id="el19ndwm5itwh"><path d="M353.5,190l-22.82-22.82a3.6,3.6,0,0,1-5.1,0L276.2,216.61a3.6,3.6,0,0,1,0,5.1L299,244.53a3.62,3.62,0,0,1,5.11,0l49.38-49.39A3.6,3.6,0,0,1,353.5,190Z" style="fill: rgb(255, 255, 255); opacity: 0.8; transform-origin: 314.85px 205.855px;" class="animable" id="elqgzobc8hctl"></path></g><path d="M311.49,205.42a.93.93,0,0,0,.76.28,2.81,2.81,0,0,0,1-.35l-1.78-1.78a2,2,0,0,0-.34,1.06A1.15,1.15,0,0,0,311.49,205.42Z" style="fill: #0095E8; transform-origin: 312.19px 204.637px;" id="el73rn4troam7" class="animable"></path><path d="M316.68,206.25l1.73,1.73a2,2,0,0,0,.35-1,1.06,1.06,0,0,0-.32-.77.9.9,0,0,0-.74-.28A2.87,2.87,0,0,0,316.68,206.25Z" style="fill: #0095E8; transform-origin: 317.72px 206.953px;" id="el6ct9vp2k0vb" class="animable"></path><path d="M305.51,196.54a13.21,13.21,0,1,0,18.68,0A13.21,13.21,0,0,0,305.51,196.54Zm15.81,10a5.24,5.24,0,0,1-1.26,3.07l1.4,1.4-1.25,1.25-1.37-1.36a9.74,9.74,0,0,1-2.09,1.44,6.32,6.32,0,0,1-2,.68l-.84-2.22a6.26,6.26,0,0,0,1.7-.53,6.92,6.92,0,0,0,1.61-1l-2.09-2.09a13.59,13.59,0,0,1-2,1,3.67,3.67,0,0,1-1.79.25,2.91,2.91,0,0,1-1.76-.93,3.42,3.42,0,0,1-1-2.54,5.12,5.12,0,0,1,1.28-3.09l-1.39-1.39,1.25-1.26,1.37,1.37a7.8,7.8,0,0,1,3.3-1.78l.92,2.17a7,7,0,0,0-2.57,1.26l2.13,2.13a12.87,12.87,0,0,1,1.94-1,3.62,3.62,0,0,1,1.78-.25,2.87,2.87,0,0,1,1.75.92A3.37,3.37,0,0,1,321.32,206.56Z" style="fill: #0095E8; transform-origin: 314.85px 205.882px;" id="elcf021uaagvm" class="animable"></path><g id="el708kyh4wed3"><g style="opacity: 0.3; transform-origin: 314.85px 205.882px;" class="animable" id="elvpkdnavk76j"><path d="M311.49,205.42a.93.93,0,0,0,.76.28,2.81,2.81,0,0,0,1-.35l-1.78-1.78a2,2,0,0,0-.34,1.06A1.15,1.15,0,0,0,311.49,205.42Z" style="fill: rgb(255, 255, 255); transform-origin: 312.19px 204.637px;" id="eltz7jux93cvn" class="animable"></path><path d="M316.68,206.25l1.73,1.73a2,2,0,0,0,.35-1,1.06,1.06,0,0,0-.32-.77.9.9,0,0,0-.74-.28A2.87,2.87,0,0,0,316.68,206.25Z" style="fill: rgb(255, 255, 255); transform-origin: 317.72px 206.953px;" id="el4hkwdsednak" class="animable"></path><path d="M305.51,196.54a13.21,13.21,0,1,0,18.68,0A13.21,13.21,0,0,0,305.51,196.54Zm15.81,10a5.24,5.24,0,0,1-1.26,3.07l1.4,1.4-1.25,1.25-1.37-1.36a9.74,9.74,0,0,1-2.09,1.44,6.32,6.32,0,0,1-2,.68l-.84-2.22a6.26,6.26,0,0,0,1.7-.53,6.92,6.92,0,0,0,1.61-1l-2.09-2.09a13.59,13.59,0,0,1-2,1,3.67,3.67,0,0,1-1.79.25,2.91,2.91,0,0,1-1.76-.93,3.42,3.42,0,0,1-1-2.54,5.12,5.12,0,0,1,1.28-3.09l-1.39-1.39,1.25-1.26,1.37,1.37a7.8,7.8,0,0,1,3.3-1.78l.92,2.17a7,7,0,0,0-2.57,1.26l2.13,2.13a12.87,12.87,0,0,1,1.94-1,3.62,3.62,0,0,1,1.78-.25,2.87,2.87,0,0,1,1.75.92A3.37,3.37,0,0,1,321.32,206.56Z" style="fill: rgb(255, 255, 255); transform-origin: 314.85px 205.882px;" id="el713xdfesjmx" class="animable"></path></g></g><g id="el93b2x6ea43"><rect x="289.38" y="207.57" width="84.66" height="47.08" style="fill: #0095E8; transform-origin: 331.71px 231.11px; transform: rotate(-22.5deg);" class="animable" id="el9kirtea3hs5"></rect></g><g id="elyrjwqhbt44"><rect x="289.38" y="207.57" width="84.66" height="47.08" style="fill: rgb(255, 255, 255); opacity: 0.3; transform-origin: 331.71px 231.11px; transform: rotate(-22.5deg);" class="animable" id="elnokug67wl48"></rect></g><g id="elx9km73hy2a"><path d="M373.48,231.27l-12.35-29.81a3.6,3.6,0,0,1-4.71-2l-64.53,26.73a3.62,3.62,0,0,1-1.95,4.72l12.35,29.81a3.6,3.6,0,0,1,4.71,1.95L371.53,236A3.61,3.61,0,0,1,373.48,231.27Z" style="fill: rgb(255, 255, 255); opacity: 0.8; transform-origin: 331.71px 231.065px;" class="animable" id="elcmptm58bdod"></path></g><path d="M328.78,229.41a.93.93,0,0,0,.59.54,2.78,2.78,0,0,0,1.08.07l-1-2.32a2,2,0,0,0-.72.84A1.19,1.19,0,0,0,328.78,229.41Z" style="fill: #0095E8; transform-origin: 329.56px 228.872px;" id="elomijsa91pdd" class="animable"></path><path d="M333.26,232.16l.93,2.25a1.91,1.91,0,0,0,.71-.79,1.06,1.06,0,0,0,0-.82.91.91,0,0,0-.58-.55A2.83,2.83,0,0,0,333.26,232.16Z" style="fill: #0095E8; transform-origin: 334.121px 233.277px;" id="elbvisqmzl7d5" class="animable"></path><path d="M326.66,218.91a13.2,13.2,0,1,0,17.25,7.15A13.2,13.2,0,0,0,326.66,218.91Zm10.76,15.3a5.15,5.15,0,0,1-2.34,2.36l.76,1.83-1.63.68-.74-1.78a9.57,9.57,0,0,1-2.48.53,6.44,6.44,0,0,1-2.13-.15l.07-2.37a6.28,6.28,0,0,0,1.77.16,7,7,0,0,0,1.88-.31l-1.13-2.74a13.77,13.77,0,0,1-2.22.2,3.8,3.8,0,0,1-1.76-.45,3,3,0,0,1-1.27-1.54,3.44,3.44,0,0,1,0-2.74,5.12,5.12,0,0,1,2.36-2.37l-.75-1.81,1.64-.68.73,1.78a7.82,7.82,0,0,1,3.74-.38v2.35a7.09,7.09,0,0,0-2.85.19l1.15,2.78a13.37,13.37,0,0,1,2.19-.21,3.75,3.75,0,0,1,1.74.45,2.9,2.9,0,0,1,1.26,1.52A3.34,3.34,0,0,1,337.42,234.21Z" style="fill: #0095E8; transform-origin: 331.712px 231.105px;" id="elxvh6r4y4y98" class="animable"></path><g id="elrcpyvhvvsno"><g style="opacity: 0.3; transform-origin: 331.712px 231.105px;" class="animable" id="elyn15feypcf"><path d="M328.78,229.41a.93.93,0,0,0,.59.54,2.78,2.78,0,0,0,1.08.07l-1-2.32a2,2,0,0,0-.72.84A1.19,1.19,0,0,0,328.78,229.41Z" style="fill: rgb(255, 255, 255); transform-origin: 329.56px 228.872px;" id="el60jyk9pfvo8" class="animable"></path><path d="M333.26,232.16l.93,2.25a1.91,1.91,0,0,0,.71-.79,1.06,1.06,0,0,0,0-.82.91.91,0,0,0-.58-.55A2.83,2.83,0,0,0,333.26,232.16Z" style="fill: rgb(255, 255, 255); transform-origin: 334.121px 233.277px;" id="elxzyqlfq6sn" class="animable"></path><path d="M326.66,218.91a13.2,13.2,0,1,0,17.25,7.15A13.2,13.2,0,0,0,326.66,218.91Zm10.76,15.3a5.15,5.15,0,0,1-2.34,2.36l.76,1.83-1.63.68-.74-1.78a9.57,9.57,0,0,1-2.48.53,6.44,6.44,0,0,1-2.13-.15l.07-2.37a6.28,6.28,0,0,0,1.77.16,7,7,0,0,0,1.88-.31l-1.13-2.74a13.77,13.77,0,0,1-2.22.2,3.8,3.8,0,0,1-1.76-.45,3,3,0,0,1-1.27-1.54,3.44,3.44,0,0,1,0-2.74,5.12,5.12,0,0,1,2.36-2.37l-.75-1.81,1.64-.68.73,1.78a7.82,7.82,0,0,1,3.74-.38v2.35a7.09,7.09,0,0,0-2.85.19l1.15,2.78a13.37,13.37,0,0,1,2.19-.21,3.75,3.75,0,0,1,1.74.45,2.9,2.9,0,0,1,1.26,1.52A3.34,3.34,0,0,1,337.42,234.21Z" style="fill: rgb(255, 255, 255); transform-origin: 331.712px 231.105px;" id="elh6vrvlevms" class="animable"></path></g></g><rect x="295.3" y="237.33" width="84.66" height="47.08" style="fill: #0095E8; transform-origin: 337.63px 260.87px;" id="elxio8b2ruwcm" class="animable"></rect><g id="ela7hxjzc37v"><path d="M376.16,277V244.74a3.61,3.61,0,0,1-3.61-3.61H302.71a3.61,3.61,0,0,1-3.61,3.61V277a3.61,3.61,0,0,1,3.61,3.61h69.84A3.61,3.61,0,0,1,376.16,277Z" style="fill: rgb(255, 255, 255); opacity: 0.8; transform-origin: 337.63px 260.87px;" class="animable" id="el1d7p9me1z3x"></path></g><path d="M335.58,258.18a.92.92,0,0,0,.33.73,2.79,2.79,0,0,0,1,.48v-2.52a1.93,1.93,0,0,0-1,.51A1.12,1.12,0,0,0,335.58,258.18Z" style="fill: rgb(38, 50, 56); transform-origin: 336.245px 258.13px;" id="eli5tjc7j52z" class="animable"></path><path d="M338.66,262.43v2.45a2,2,0,0,0,.95-.46,1,1,0,0,0,.32-.77.93.93,0,0,0-.32-.72A2.89,2.89,0,0,0,338.66,262.43Z" style="fill: rgb(38, 50, 56); transform-origin: 339.295px 263.655px;" id="elgdsa1y2s4o" class="animable"></path><path d="M337.63,247.67a13.21,13.21,0,1,0,13.21,13.2A13.2,13.2,0,0,0,337.63,247.67Zm4.09,18.26a5.14,5.14,0,0,1-3.06,1.28v2h-1.77v-1.93a9.71,9.71,0,0,1-2.5-.46,6.19,6.19,0,0,1-1.91-1l1-2.16a6.38,6.38,0,0,0,1.58.83,7,7,0,0,0,1.86.43v-3a13.16,13.16,0,0,1-2.13-.67,3.81,3.81,0,0,1-1.45-1.09,2.91,2.91,0,0,1-.58-1.9,3.4,3.4,0,0,1,1.07-2.53,5.06,5.06,0,0,1,3.09-1.28v-2h1.77v1.93a7.8,7.8,0,0,1,3.59,1.08l-.88,2.18a7.1,7.1,0,0,0-2.71-.92v3a12.52,12.52,0,0,1,2.1.65,3.66,3.66,0,0,1,1.44,1.08,2.85,2.85,0,0,1,.58,1.88A3.34,3.34,0,0,1,341.72,265.93Z" style="fill: rgb(38, 50, 56); transform-origin: 337.63px 260.88px;" id="el2lahqx99owo" class="animable"></path></g><g id="freepik--Arrow--inject-174" class="animable" style="transform-origin: 257.934px 243.123px;"><path d="M277.07,241.64h0a1.12,1.12,0,0,0-1.1,1.15l0,1.69a29,29,0,0,0-38.09,1,1.12,1.12,0,0,0,0,1.61h0a1.14,1.14,0,0,0,1.57,0,26.7,26.7,0,0,1,35.07-.93l-1.87,0a1.14,1.14,0,0,0-1.1,1.16h0a1.12,1.12,0,0,0,1.15,1.09l5.63-.13-.14-5.63A1.12,1.12,0,0,0,277.07,241.64Z" style="fill: #0095E8; transform-origin: 257.934px 243.123px;" id="eljswonsc326" class="animable"></path></g><g id="freepik--device-1--inject-174" class="animable" style="transform-origin: 180.355px 235.86px;"><path d="M218.34,354.56H146.12a14.72,14.72,0,0,1-14.71-14.71V167.23a14.72,14.72,0,0,1,14.71-14.71h72.22a14.72,14.72,0,0,1,14.71,14.71V339.85A14.72,14.72,0,0,1,218.34,354.56Z" style="fill: #0095E8; transform-origin: 182.23px 253.54px;" id="elr0t1uq4kt4o" class="animable"></path><path d="M214.59,354.56H142.37a14.72,14.72,0,0,1-14.71-14.71V167.23a14.72,14.72,0,0,1,14.71-14.71h72.22a14.72,14.72,0,0,1,14.71,14.71V339.85A14.72,14.72,0,0,1,214.59,354.56Z" style="fill: rgb(38, 50, 56); transform-origin: 178.48px 253.54px;" id="elb9tj7zbulqj" class="animable"></path><path d="M214.59,155.9H195.82A2.43,2.43,0,0,0,193.4,158l-.08.59a6,6,0,0,1-5.92,5.21H169.56a6,6,0,0,1-5.92-5.21l-.07-.59a2.45,2.45,0,0,0-2.43-2.13H142.37A11.33,11.33,0,0,0,131,167.23V339.85a11.33,11.33,0,0,0,11.33,11.33h72.22a11.34,11.34,0,0,0,11.34-11.33V167.23A11.34,11.34,0,0,0,214.59,155.9Z" style="fill: #0095E8; transform-origin: 178.445px 253.525px;" id="elgtvk7hsne1f" class="animable"></path><g id="eln46kbsl9mha"><path d="M214.59,155.9H195.82A2.43,2.43,0,0,0,193.4,158l-.08.59a6,6,0,0,1-5.92,5.21H169.56a6,6,0,0,1-5.92-5.21l-.07-.59a2.45,2.45,0,0,0-2.43-2.13H142.37A11.33,11.33,0,0,0,131,167.23V339.85a11.33,11.33,0,0,0,11.33,11.33h72.22a11.34,11.34,0,0,0,11.34-11.33V167.23A11.34,11.34,0,0,0,214.59,155.9Z" style="fill: rgb(255, 255, 255); opacity: 0.8; transform-origin: 178.445px 253.525px;" class="animable" id="eladitbwvzk5e"></path></g><g id="elwzhn8dtfmcr"><g style="opacity: 0.7; transform-origin: 178.47px 157.82px;" class="animable" id="el2ix760r0exq"><path d="M174.11,157.81a1.44,1.44,0,1,1-1.43-1.43A1.43,1.43,0,0,1,174.11,157.81Z" id="elp37zgn5n24" class="animable" style="transform-origin: 172.67px 157.82px;"></path><path d="M184.28,156.38h-4.92a1.43,1.43,0,0,0,0,2.86h4.92a1.43,1.43,0,1,0,0-2.86Z" id="elumlx7rn9wca" class="animable" style="transform-origin: 181.82px 157.81px;"></path></g></g><rect x="138.9" y="162.28" width="1.52" height="1.52" style="fill: #0095E8; transform-origin: 139.66px 163.04px;" id="elbawru7ixhbw" class="animable"></rect><polygon points="141.93 162.28 141.93 163.8 143.45 163.8 143.45 162.28 143.45 160.76 141.93 160.76 141.93 162.28" style="fill: #0095E8; transform-origin: 142.69px 162.28px;" id="elu7c59lcjekn" class="animable"></polygon><polygon points="144.97 159.25 144.97 160.76 144.97 162.28 144.97 163.8 146.49 163.8 146.49 162.28 146.49 160.76 146.49 159.25 144.97 159.25" style="fill: #0095E8; transform-origin: 145.73px 161.525px;" id="elmhbateu1a4b" class="animable"></polygon><path d="M210.28,159.35v1.11h-.74v2.23h.74v1.11H217v-4.45Zm3,3.34H211v-2.23h2.23Z" style="fill: #0095E8; transform-origin: 213.27px 161.575px;" id="elus68ypu3sc9" class="animable"></path><path d="M186.68,194.57h-2.25v-5.43a6.14,6.14,0,1,0-12.27,0v5.43h-2.25v-5.43a8.39,8.39,0,1,1,16.77,0Z" style="fill: rgb(38, 50, 56); transform-origin: 178.295px 187.515px;" id="el5dvloa1xmnl" class="animable"></path><path d="M167.67,192.5V210h21.25V192.5Zm11.75,8.69V204a1.12,1.12,0,0,1-1.12,1.12h0a1.12,1.12,0,0,1-1.12-1.12v-2.83a2.07,2.07,0,1,1,2.24,0Z" style="fill: rgb(38, 50, 56); transform-origin: 178.295px 201.25px;" id="el86wx8nidvjo" class="animable"></path><rect x="158.81" y="246.58" width="38.25" height="25.5" rx="3.95" style="fill: #0095E8; transform-origin: 177.935px 259.33px;" id="elcf42t7t5jkr" class="animable"></rect><rect x="158.81" y="250.95" width="38.25" height="6.77" style="fill: rgb(38, 50, 56); transform-origin: 177.935px 254.335px;" id="elqika33sh4a" class="animable"></rect><g id="elzovork2n2kj"><g style="opacity: 0.6; transform-origin: 177.93px 266.365px;" class="animable" id="elcuuv69znx1w"><path d="M179.81,269H164.05a1.5,1.5,0,0,1-1.5-1.5h0a1.5,1.5,0,0,1,1.5-1.5h15.76a1.5,1.5,0,0,1,1.5,1.5h0A1.5,1.5,0,0,1,179.81,269Z" style="fill: rgb(255, 255, 255); transform-origin: 171.93px 267.5px;" id="elnxzqdrwnkrg" class="animable"></path><rect x="188.06" y="263.73" width="5.25" height="5.25" rx="1.95" style="fill: rgb(255, 255, 255); transform-origin: 190.685px 266.355px;" id="elp68ouv3wg9c" class="animable"></rect></g></g><g id="elay8xy7imfrt"><path d="M204.84,319.85V299.5h-8.65V280h5.09a3.72,3.72,0,0,0,3.71-3.71V242.37a3.72,3.72,0,0,0-3.71-3.71h-46a3.72,3.72,0,0,0-3.71,3.71v33.92a3.72,3.72,0,0,0,3.71,3.71h5.08v15.57h-8.64V309a1.06,1.06,0,0,0-.47.87,1.07,1.07,0,1,0,2.13,0A1,1,0,0,0,153,309V296.77h8.64V288h7.45V326a1.06,1.06,0,1,0,1.2,0V286.75H161.6V280h16.1v62.91a1.08,1.08,0,0,0-.47.88,1.07,1.07,0,1,0,1.67-.88V308.58h7.44v19a1.05,1.05,0,0,0-.46.88,1.07,1.07,0,1,0,1.66-.88V307.38H178.9V280H195v6.75h-8.65v7.76a1,1,0,0,0-.46.87,1.07,1.07,0,1,0,2.13,0,1.06,1.06,0,0,0-.47-.87V288H195v22.69a1.06,1.06,0,1,0,1.2,0V300.7h7.45v19.15a1.06,1.06,0,1,0,1.2,0Zm-51.73-43.56V242.37a2.21,2.21,0,0,1,2.21-2.21h46a2.21,2.21,0,0,1,2.21,2.21v33.92a2.21,2.21,0,0,1-2.21,2.21h-46A2.21,2.21,0,0,1,153.11,276.29Z" style="fill: rgb(38, 50, 56); opacity: 0.1; transform-origin: 178.278px 291.763px;" class="animable" id="el9m4skb7d0e7"></path></g><path d="M140.14,227.39a2.55,2.55,0,0,1-1-.5l.37-.83a3.25,3.25,0,0,0,.87.46,3.43,3.43,0,0,0,1,.17,1.86,1.86,0,0,0,1-.2.64.64,0,0,0,.32-.55.54.54,0,0,0-.18-.41,1.39,1.39,0,0,0-.45-.25c-.18-.06-.43-.13-.74-.2a8.44,8.44,0,0,1-1.07-.32,1.71,1.71,0,0,1-.7-.49,1.28,1.28,0,0,1-.29-.9,1.48,1.48,0,0,1,.26-.87,1.79,1.79,0,0,1,.78-.63,3.25,3.25,0,0,1,1.28-.23,4.07,4.07,0,0,1,1,.14,2.71,2.71,0,0,1,.88.37l-.33.84a3.5,3.5,0,0,0-.8-.34,2.82,2.82,0,0,0-.8-.12,1.69,1.69,0,0,0-.94.22.65.65,0,0,0-.31.57.5.5,0,0,0,.18.4,1.22,1.22,0,0,0,.45.25l.74.21a7.8,7.8,0,0,1,1.06.31,1.71,1.71,0,0,1,.7.49,1.26,1.26,0,0,1,.29.89,1.43,1.43,0,0,1-.26.86,1.7,1.7,0,0,1-.78.62,3.13,3.13,0,0,1-1.29.23A4.24,4.24,0,0,1,140.14,227.39Z" style="fill: rgb(38, 50, 56); transform-origin: 141.426px 224.61px;" id="el9pgu693t1d4" class="animable"></path><path d="M149.16,226.6v.9h-4.33v-5.77H149v.89H145.9v1.51h2.79V225H145.9v1.59Z" style="fill: rgb(38, 50, 56); transform-origin: 146.995px 224.615px;" id="eleknhsbdctwd" class="animable"></path><path d="M151.42,227.2a2.81,2.81,0,0,1-1.1-1.06,3.11,3.11,0,0,1,0-3,2.83,2.83,0,0,1,1.11-1.06,3.22,3.22,0,0,1,1.58-.39,3.42,3.42,0,0,1,1.3.25,2.75,2.75,0,0,1,1,.72l-.7.65a2,2,0,0,0-1.54-.68,2.19,2.19,0,0,0-1.06.26,1.92,1.92,0,0,0-.74.73,2.08,2.08,0,0,0-.26,1,2.15,2.15,0,0,0,.26,1,1.83,1.83,0,0,0,.74.72,2.08,2.08,0,0,0,1.06.26,2,2,0,0,0,1.54-.68l.7.66a2.7,2.7,0,0,1-1,.72,3.38,3.38,0,0,1-1.3.24A3.21,3.21,0,0,1,151.42,227.2Z" style="fill: rgb(38, 50, 56); transform-origin: 152.622px 224.617px;" id="elbyq43hr91tn" class="animable"></path><path d="M156.91,226.91a2.6,2.6,0,0,1-.67-1.93v-3.25h1.07v3.21c0,1.14.49,1.7,1.47,1.7s1.46-.56,1.46-1.7v-3.21h1V225a2.64,2.64,0,0,1-.66,1.93,2.92,2.92,0,0,1-3.72,0Z" style="fill: rgb(38, 50, 56); transform-origin: 158.74px 224.665px;" id="els03zkqio2r" class="animable"></path><path d="M166.58,227.5l-1.19-1.69h-1.52v1.68H162.8v-5.77h2.37a3.29,3.29,0,0,1,1.31.24,1.94,1.94,0,0,1,.85.71,2,2,0,0,1,.3,1.1,2,2,0,0,1-.32,1.12,1.8,1.8,0,0,1-.91.7l1.33,1.9Zm-.39-4.57a1.64,1.64,0,0,0-1.07-.3h-1.25v2.31h1.25a1.59,1.59,0,0,0,1.07-.31,1.18,1.18,0,0,0,0-1.7Z" style="fill: rgb(38, 50, 56); transform-origin: 165.265px 224.61px;" id="elod4qdlaiq9d" class="animable"></path><path d="M173.16,226.6v.9h-4.33v-5.77H173v.89H169.9v1.51h2.79V225H169.9v1.59Z" style="fill: rgb(38, 50, 56); transform-origin: 170.995px 224.615px;" id="elp324snrd0w" class="animable"></path><path d="M180.31,222a2,2,0,0,1,.86.71,2,2,0,0,1,.3,1.1,2,2,0,0,1-.3,1.09,1.92,1.92,0,0,1-.86.72,3.24,3.24,0,0,1-1.3.24H177.7v1.67h-1.07v-5.77H179A3.24,3.24,0,0,1,180.31,222Zm-.29,2.66a1.16,1.16,0,0,0,0-1.7,1.61,1.61,0,0,0-1.06-.3H177.7v2.3H179A1.61,1.61,0,0,0,180,224.63Z" style="fill: rgb(38, 50, 56); transform-origin: 179.05px 224.644px;" id="el2s8644m0zbq" class="animable"></path><path d="M186,226.16h-2.89l-.57,1.34h-1.11l2.6-5.77h1.06l2.6,5.77h-1.12Zm-.36-.84-1.09-2.52-1.08,2.52Z" style="fill: rgb(38, 50, 56); transform-origin: 184.56px 224.615px;" id="elk8vcnb335b" class="animable"></path><path d="M190.57,225.46v2H189.5v-2l-2.27-3.75h1.15l1.69,2.81,1.71-2.81h1.05Z" style="fill: rgb(38, 50, 56); transform-origin: 190.03px 224.585px;" id="el1120hjaigql9" class="animable"></path><path d="M198.76,227.5v-3.83l-1.9,3.17h-.48l-1.89-3.12v3.78h-1v-5.77h.89l2.29,3.82,2.25-3.82h.88v5.77Z" style="fill: rgb(38, 50, 56); transform-origin: 196.645px 224.615px;" id="elo0rja0op1d8" class="animable"></path><path d="M205.66,226.6v.9h-4.33v-5.77h4.22v.89H202.4v1.51h2.79V225H202.4v1.59Z" style="fill: rgb(38, 50, 56); transform-origin: 203.495px 224.615px;" id="elvnbv90fl6ug" class="animable"></path><path d="M212,221.73v5.77h-.88l-3.19-3.91v3.91h-1.06v-5.77h.88l3.19,3.91v-3.91Z" style="fill: rgb(38, 50, 56); transform-origin: 209.435px 224.615px;" id="elmjzaog20xg" class="animable"></path><path d="M214.71,222.63H212.8v-.9h4.9v.9h-1.91v4.87h-1.08Z" style="fill: rgb(38, 50, 56); transform-origin: 215.25px 224.615px;" id="elay0i5g8euqt" class="animable"></path><path d="M198,131.22a1.5,1.5,0,0,1-1.5-1.5c0-2.85-7.62-9.56-18-9.56-10,0-18,6.87-18,9.56a1.5,1.5,0,0,1-3,0c0-4.84,9.63-12.56,21-12.56,11.62,0,21,7.6,21,12.56A1.5,1.5,0,0,1,198,131.22Z" style="fill: #0095E8; transform-origin: 178.5px 124.19px;" id="el5pn75et87e" class="animable"></path><path d="M192.49,138.8a1.5,1.5,0,0,1-1.5-1.5c0-1.86-5.41-6.43-12.51-6.43S166,135.79,166,137.3a1.5,1.5,0,0,1-3,0c0-3.64,7.1-9.43,15.51-9.43,8.21,0,15.51,5.27,15.51,9.43A1.5,1.5,0,0,1,192.49,138.8Z" style="fill: #0095E8; transform-origin: 178.51px 133.335px;" id="elu2oeiok23nj" class="animable"></path><path d="M170,146.41a1.52,1.52,0,0,1-1.5-1.53c0-2.75,4.84-6.3,10-6.3,5.37,0,10,3.46,10,6.3a1.5,1.5,0,0,1-3,0c-.12-.84-3-3.3-7-3.3s-6.8,2.55-7,3.35A1.48,1.48,0,0,1,170,146.41Z" style="fill: #0095E8; transform-origin: 178.5px 142.495px;" id="elmnvuvh6thgg" class="animable"></path></g><g id="freepik--Character--inject-174" class="animable" style="transform-origin: 122.555px 292.796px;"><path d="M106.19,258.26a402.71,402.71,0,0,0-8.75,78.84c-.49,43.8,4.28,66.68,4.28,66.68h8.94s3.17-36.83,2.57-55.95c0-1.77-.14-3.37-.27-4.75a50.63,50.63,0,0,1,.68-14.33h0l4.44-22.92h0a52.69,52.69,0,0,1,3.22-10.48c.13-.3.26-.62.39-1,2.85-7,6.92-20.6,4.23-36.14Z" style="fill: #0095E8; transform-origin: 112.103px 330.995px;" id="elxu9yajangpr" class="animable"></path><g id="elfbpew4csjoe"><path d="M121.69,294.4a71.36,71.36,0,0,0,4.56-17.35c-1-4.14-2.3-13.54-4.12-9.53-3.39,7.46-3.13,27.28-2.78,33.23a52.74,52.74,0,0,1,2-5.4C121.43,295.05,121.56,294.73,121.69,294.4Z" style="opacity: 0.1; transform-origin: 122.703px 283.648px;" class="animable" id="el01bijxso3s78"></path></g><path d="M104.13,404.27l6.66,0a.62.62,0,0,1,.61.49l1.37,6.26a1,1,0,0,1-.77,1.24l-.22,0c-2.77-.05-5.24-.21-8.69-.21-4.08,0-3,.48-7.84.53-2.89,0-3.41-3.25-2.18-3.41,5.6-.69,7.22-2.4,9.39-4.4A2.48,2.48,0,0,1,104.13,404.27Z" style="fill: rgb(38, 50, 56); transform-origin: 102.625px 408.422px;" id="elyy8zwccaxhk" class="animable"></path><polygon points="100.18 401.45 101.23 405.02 111.73 405.02 112.1 401.45 100.18 401.45" style="fill: #0095E8; transform-origin: 106.14px 403.235px;" id="elss5x9dpdih" class="animable"></polygon><g id="elexd0cldv74n"><polygon points="100.18 401.45 101.23 405.02 111.73 405.02 112.1 401.45 100.18 401.45" style="fill: rgb(255, 255, 255); opacity: 0.5; transform-origin: 106.14px 403.235px;" class="animable" id="el4xtr7qcvhyp"></polygon></g><path d="M120.49,258.26s1.3,62.75,17.64,145.59l9.18-.2s-1.69-46.54-4.26-65.6c-.1-.72-.2-1.4-.3-2a73.74,73.74,0,0,1-.89-14.39l0-.42,1.26-32.09a162.08,162.08,0,0,0-2.78-30.86Z" style="fill: #0095E8; transform-origin: 133.9px 331.055px;" id="elt0c77zaozpo" class="animable"></path><path d="M140.29,404.27l6.66,0a.61.61,0,0,1,.6.49l1.38,6.26a1,1,0,0,1-.77,1.24l-.22,0c-2.78-.05-5.24-.21-8.7-.21-4.07,0-3,.48-7.83.53-2.89,0-3.41-3.25-2.19-3.41,5.61-.69,7.23-2.4,9.4-4.4A2.46,2.46,0,0,1,140.29,404.27Z" style="fill: rgb(38, 50, 56); transform-origin: 138.784px 408.422px;" id="elh82kcknakal" class="animable"></path><path d="M100.59,211.63H96.48a1.75,1.75,0,0,1-1.7-1.56l-1-11.84a1.41,1.41,0,0,1,1.42-1.57h4.11a1.73,1.73,0,0,1,1.7,1.57l1,11.84A1.41,1.41,0,0,1,100.59,211.63Z" style="fill: #0095E8; transform-origin: 97.8944px 204.145px;" id="elerxobfzbnx4" class="animable"></path><path d="M100.09,211.63H96a1.73,1.73,0,0,1-1.7-1.56l-1-11.84a1.41,1.41,0,0,1,1.43-1.57h4.1a1.75,1.75,0,0,1,1.71,1.57l1,11.84A1.41,1.41,0,0,1,100.09,211.63Z" style="fill: rgb(38, 50, 56); transform-origin: 97.4195px 204.145px;" id="elxgkzz0ejrx" class="animable"></path><g id="elip7mgavirce"><path d="M95.85,198.32a.8.8,0,0,1-.82.9,1,1,0,0,1-1-.9.83.83,0,0,1,.83-.91A1,1,0,0,1,95.85,198.32Z" style="fill: rgb(255, 255, 255); opacity: 0.3; transform-origin: 94.9412px 198.315px;" class="animable" id="el1d2659l1rac"></path></g><g id="elbb2jvdzwfcr"><path d="M95.36,198.32a.38.38,0,0,1-.38.41.46.46,0,0,1-.44-.41.37.37,0,0,1,.37-.41A.46.46,0,0,1,95.36,198.32Z" style="opacity: 0.3; transform-origin: 94.9495px 198.32px;" class="animable" id="el0ntygzyfymsh"></path></g><path d="M109.42,207.55a.68.68,0,0,0-1.16-.34,48.85,48.85,0,0,0-8.13,12.68C96,229,83.44,233.2,87.21,239s19.08-10.53,22-15C111.5,220.34,110.05,211,109.42,207.55Z" style="fill: rgb(38, 50, 56); transform-origin: 98.484px 223.615px;" id="el5t9fvs634vw" class="animable"></path><g id="el0fn7d360ymyb"><path d="M95.41,237.68a19.55,19.55,0,0,0,.91-12.31c-1.94,2.11-4.12,3.92-5.93,5.6l-2.75,5.33a27.14,27.14,0,0,0,.2,3.33C89.48,240.89,92.31,239.8,95.41,237.68Z" style="opacity: 0.6; transform-origin: 92.2776px 232.768px;" class="animable" id="el05umd0frhwj4"></path></g><g id="el4kle77wyg7x"><path d="M110,211.06l-2.17-.68s-3.23,6.72-5,20.92a55.1,55.1,0,0,0,6.32-7.34C110.92,221.24,110.54,215.31,110,211.06Z" style="opacity: 0.6; transform-origin: 106.64px 220.84px;" class="animable" id="elsh2y5jasiuj"></path></g><path d="M108.5,207.86c-1.29,3.54-2.76,13.74-2.74,37.16,0,5-.77,17-.77,17h36.66l5.18-53.88a1.67,1.67,0,0,0-1.67-1.84H110.75A2.39,2.39,0,0,0,108.5,207.86Z" style="fill: #0095E8; transform-origin: 125.914px 234.16px;" id="el5ht8jubrydc" class="animable"></path><g id="elybty8oaexu"><path d="M108.5,207.86c-1.29,3.54-2.76,13.74-2.74,37.16,0,5-.77,17-.77,17h36.66l5.18-53.88a1.67,1.67,0,0,0-1.67-1.84H110.75A2.39,2.39,0,0,0,108.5,207.86Z" style="fill: rgb(255, 255, 255); opacity: 0.5; transform-origin: 125.914px 234.16px;" class="animable" id="elrwn34fefu7"></path></g><path d="M126.46,204.82a16.64,16.64,0,0,1-3.31.07c-.32,0-.67,0-1.06,0-3,0-7.47.92-6.67,7.1a2.54,2.54,0,0,1,3.32-.39s1.56,5.31,2.72,6.87c0,0,6.29-4.17,8.19-5.73s4.62,1.11,4.62,1.11,6-9.79-6.15-9.13C127.6,204.7,127.05,204.75,126.46,204.82Z" style="fill: rgb(38, 50, 56); transform-origin: 125.539px 211.579px;" id="el727s65kkbeq" class="animable"></path><path d="M125.79,205.57c-3.28.37-10.37-2.12-4.26,12.18C121.53,217.75,144.85,203.41,125.79,205.57Z" style="fill: rgb(235, 179, 118); transform-origin: 126.205px 211.549px;" id="elstllaplshe" class="animable"></path><g id="elq5o1psni2j"><path d="M144.48,212.69l-2.08,1.77a48.84,48.84,0,0,0,1.79,21.17h0l1.94-20.22Z" style="opacity: 0.1; transform-origin: 144.043px 224.16px;" class="animable" id="elkuqrpa1lhjr"></path></g><g id="elxcldnwehgkn"><path d="M144,207.42s-3.58,2.34-3.24,11.67C140.8,219.09,137.2,210.35,144,207.42Z" style="opacity: 0.1; transform-origin: 141.922px 213.255px;" class="animable" id="el0av6y2jypg6v"></path></g><g id="elw0k7h0l08x"><path d="M110.16,207.62s-3.48,7.2-2.38,19.92Z" style="opacity: 0.1; transform-origin: 108.863px 217.58px;" class="animable" id="eluwx61s2h7bg"></path></g><path d="M129.59,191.22A50.68,50.68,0,0,0,132.71,207s-6.36,5.2-10.93,1a10.14,10.14,0,0,0,.13-7.57C120.35,196.29,129.59,191.22,129.59,191.22Z" style="fill: rgb(235, 179, 118); transform-origin: 127.221px 200.429px;" id="elaa2xgw2602n" class="animable"></path><g id="elykab90kjox"><path d="M129.57,194.81H127l-5.22,4.31a2.87,2.87,0,0,0,.14,1.3,10,10,0,0,1,.63,4.39C129.94,203.9,129.57,194.81,129.57,194.81Z" style="opacity: 0.1; transform-origin: 125.666px 199.81px;" class="animable" id="elx0h79s8pi2"></path></g><path d="M112.15,180.7c-3.58,2.32-2.52,8.13,1.21,10.52C114.42,184.56,112.15,180.7,112.15,180.7Z" style="fill: rgb(38, 50, 56); transform-origin: 111.795px 185.96px;" id="eljysnitlphhq" class="animable"></path><g id="ela1k9cthig2t"><path d="M112.15,180.7c-3.58,2.32-2.52,8.13,1.21,10.52C114.42,184.56,112.15,180.7,112.15,180.7Z" style="fill: rgb(255, 255, 255); opacity: 0.2; transform-origin: 111.795px 185.96px;" class="animable" id="elqyoez99y9l"></path></g><path d="M128.55,184.52c1.34,6.13,2.44,9.63.32,13.68a8.14,8.14,0,0,1-11,3.56,8.05,8.05,0,0,1-3.47-3.39c-2.82-5-4.55-14.16.59-18.43a8.24,8.24,0,0,1,11.63.76A8.34,8.34,0,0,1,128.55,184.52Z" style="fill: rgb(235, 179, 118); transform-origin: 120.877px 190.281px;" id="elqir1ogbzkd" class="animable"></path><path d="M120,189.12c.15.48,0,1-.33,1s-.68-.21-.82-.69,0-1,.34-1S119.88,188.63,120,189.12Z" style="fill: rgb(38, 50, 56); transform-origin: 119.427px 189.275px;" id="elljeopo3tqmj" class="animable"></path><path d="M114.55,190.88c.14.49,0,1-.33,1s-.69-.21-.83-.7,0-1,.34-1.05S114.41,190.39,114.55,190.88Z" style="fill: rgb(38, 50, 56); transform-origin: 113.97px 191.002px;" id="elh91kvdsf9zg" class="animable"></path><path d="M116.36,190.56a19.27,19.27,0,0,1-1.11,4.93,2.91,2.91,0,0,0,2.44-.28Z" style="fill: rgb(213, 135, 69); transform-origin: 116.47px 193.099px;" id="el6ifm8m72y35" class="animable"></path><path d="M121.2,186.78a.38.38,0,0,0,.13-.06.3.3,0,0,0,0-.41h0a2.87,2.87,0,0,0-2.68-.48.3.3,0,0,0-.17.38h0a.3.3,0,0,0,.38.17h0a2.34,2.34,0,0,1,2.09.37A.27.27,0,0,0,121.2,186.78Z" style="fill: rgb(38, 50, 56); transform-origin: 119.937px 186.242px;" id="el201f68du5td" class="animable"></path><path d="M111.66,189.74a.32.32,0,0,0,.17-.22,2.46,2.46,0,0,1,1.24-1.83.3.3,0,0,0-.26-.54h0a3.09,3.09,0,0,0-1.56,2.26.29.29,0,0,0,.24.34h0A.25.25,0,0,0,111.66,189.74Z" style="fill: rgb(38, 50, 56); transform-origin: 112.236px 188.443px;" id="elm1350x8icig" class="animable"></path><path d="M120.13,197.35a4.74,4.74,0,0,1-.85.17.16.16,0,0,1-.19-.14h0a.17.17,0,0,1,.16-.19,4.7,4.7,0,0,0,3.53-2.28.16.16,0,0,1,.23-.08.18.18,0,0,1,.08.23A4.8,4.8,0,0,1,120.13,197.35Z" style="fill: rgb(38, 50, 56); transform-origin: 121.097px 196.166px;" id="elbwih4hq4tmd" class="animable"></path><path d="M129.57,177.08s6.9,2.08.49,19.43l-1.56-6.75s-3.57,1-4.47-8.07Z" style="fill: rgb(38, 50, 56); transform-origin: 128.409px 186.795px;" id="elwdrua34srr" class="animable"></path><g id="el9eocfujgfrs"><path d="M129.57,177.08s6.9,2.08.49,19.43l-1.56-6.75s-3.57,1-4.47-8.07Z" style="fill: rgb(255, 255, 255); opacity: 0.2; transform-origin: 128.409px 186.795px;" class="animable" id="elppgzke2xm3r"></path></g><path d="M132.25,188.87a5.58,5.58,0,0,1-1.55,3.75c-1.29,1.31-2.76.32-3.09-1.4-.3-1.57,0-4.12,1.64-4.77S132.27,187.14,132.25,188.87Z" style="fill: rgb(235, 179, 118); transform-origin: 129.879px 189.753px;" id="elfc2s57dswyk" class="animable"></path><path d="M123.6,183.4c-3.9,3-13.25,2.39-15.94-1.34-2.93-4.08,1.48-7.53,5.46-8.77a2,2,0,0,1,2.43,1.55.73.73,0,0,0,.28.46,16,16,0,0,1,2.74-1.92,3.56,3.56,0,0,1,4.15.73c.46.42,1.59.51,3.86-.26,4.71-1.59,5.35,3.23,3.22,4.52C128.09,179.41,125.17,182.17,123.6,183.4Z" style="fill: rgb(38, 50, 56); transform-origin: 118.836px 179.159px;" id="elw5pjm61hlp8" class="animable"></path><path d="M144.46,258.26l-4.17,6a22.29,22.29,0,0,0-3.47-.6,15,15,0,0,0-2.29.6l6.85,6.75,7.09-9.83Z" style="fill: rgb(235, 179, 118); transform-origin: 141.5px 264.635px;" id="elgmwgfj27yie" class="animable"></path><path d="M145.89,207.12a1.1,1.1,0,0,1,1.7.38c2.53,5.42,12.49,27.47,11.19,36.33-1.49,10.13-12.36,21.9-12.36,21.9l-4.92-4.17s8-13.56,8-20.56c0-4.62-2.77-9.83-4.48-14.46S139.54,212.53,145.89,207.12Z" style="fill: rgb(38, 50, 56); transform-origin: 150.198px 236.298px;" id="el4ymaty7q235" class="animable"></path><path d="M90.73,225.62l3.64-6.72A20.78,20.78,0,0,1,92.15,215c-.34-1.47.33-6.06.33-6.06a1.57,1.57,0,0,1,1.41-1.48l2.86-.3a1.58,1.58,0,0,1,1.73,1.43s1.13,6.67.82,8.88c-.4,2.85-4.17,10.72-4.17,10.72Z" style="fill: rgb(235, 179, 118); transform-origin: 95.0419px 217.671px;" id="elohsry3s8np" class="animable"></path><path d="M91.88,222l5.56,2s-3.77,18.5-9.43,16.12S91.88,222,91.88,222Z" style="fill: rgb(38, 50, 56); transform-origin: 91.8272px 231.166px;" id="el6pz9u3988ny" class="animable"></path><polygon points="136.43 401.39 137.47 404.97 147.98 404.97 148.35 401.39 136.43 401.39" style="fill: #0095E8; transform-origin: 142.39px 403.18px;" id="elbjg8ubvne5m" class="animable"></polygon><g id="elv1vqyrd9meb"><polygon points="136.43 401.39 137.47 404.97 147.98 404.97 148.35 401.39 136.43 401.39" style="fill: rgb(255, 255, 255); opacity: 0.5; transform-origin: 142.39px 403.18px;" class="animable" id="elzia338gfmch"></polygon></g></g><defs>     <filter id="active" height="200%">         <feMorphology in="SourceAlpha" result="DILATED" operator="dilate" radius="2"></feMorphology>                <feFlood flood-color="#32DFEC" flood-opacity="1" result="PINK"></feFlood>        <feComposite in="PINK" in2="DILATED" operator="in" result="OUTLINE"></feComposite>        <feMerge>            <feMergeNode in="OUTLINE"></feMergeNode>            <feMergeNode in="SourceGraphic"></feMergeNode>        </feMerge>    </filter>    <filter id="hover" height="200%">        <feMorphology in="SourceAlpha" result="DILATED" operator="dilate" radius="2"></feMorphology>                <feFlood flood-color="#ff0000" flood-opacity="0.5" result="PINK"></feFlood>        <feComposite in="PINK" in2="DILATED" operator="in" result="OUTLINE"></feComposite>        <feMerge>            <feMergeNode in="OUTLINE"></feMergeNode>            <feMergeNode in="SourceGraphic"></feMergeNode>        </feMerge>            <feColorMatrix type="matrix" values="0   0   0   0   0                0   1   0   0   0                0   0   0   0   0                0   0   0   1   0 "></feColorMatrix>    </filter></defs></svg>