<?xml version="1.0" encoding="utf-8"?>
<!-- Generator: Adobe Illustrator 24.0.2, SVG Export Plug-In . SVG Version: 6.00 Build 0)  -->
<svg version="1.1" id="Layer_1" xmlns="http://www.w3.org/2000/svg" xmlns:xlink="http://www.w3.org/1999/xlink" x="0px" y="0px"
	 viewBox="0 0 200 200" style="enable-background:new 0 0 200 200;" xml:space="preserve">
<style type="text/css">
	.st0{fill:#D4DDED;}
	.st1{fill:#F17B21;}
	.st2{fill:#233F85;}
	.st3{fill:#FFFFFF;}
</style>
<g id="Group_14243" transform="translate(-859.802 -690.873)">
	<path id="Path_38623" class="st0" d="M927.2,715l22.6,0.2c0,0-3.9,53.8,29.5,65.6l0.8,17.3l-19.5-1l-28,0.1l0.3-3.4l4.6-9.8
		l9.9-13.5l3.7-6.1l1.7-3.8l-1.1-4.9l-3.8-3l-4.9,0.4l-4,1.6l-3.7,4l-3.7,6.1l-5,6.2l0.3-29.3l-0.4-25.6l-0.1-1.2L927.2,715z"/>
	<path id="Path_38624" class="st1" d="M1001.4,745.5l1,20.8l6.4,0.4l3-1l2.5,0.1l1.3,0.9l19.9-0.4l2.5-0.5l5.3-0.6l-0.7-8.4
		l-0.2-7.2c0,0-0.4-4.2-1-4.4c-0.6-0.2-33.8,0.3-33.8,0.3L1001.4,745.5z"/>
	<g id="Group_14229" transform="translate(860.25 691.358)">
		<path class="st2" d="M150.8,124.4c-0.9-2.4-1.4-4.8-1.5-7.4l-2.1-24c-0.5-4.6-0.7-9.3-0.5-13.9c0-1.3,0.4-2.7,1.2-3.9
			c1.5-1.7,3.9-1.6,5.9-1.4c0.4,0,0.9,0.2,1.4,0.4c0.6,0.5,1,1.2,1.1,1.9c1.3,4.3,2.7,8.9,3.6,13.5c0.5,2.7,0.9,5.5,1.3,8.2
			c0.9,6.4,1.8,13,4.7,18.9c0,0.1,0.1,0.2,0.1,0.3c0,0.1,0.1,0.2,0.1,0.3c0.1,0,0.1,0,0.2,0c0.2,0,0.4,0,0.6,0.1
			c0.1,0.1,0.3,0.1,0.4,0.2c0.1,0.1,0.2,0.1,0.3,0.1c0.5,0.1,1,0,1.5-0.2l1.6-0.6l0.5,1.3l-1.5,0.6c-0.7,0.4-1.6,0.5-2.5,0.3
			c-0.3-0.1-0.4-0.2-0.6-0.2c-0.1,0-0.2-0.1-0.3-0.1c0,0-0.1,0-0.2,0c-0.2,0-0.5,0-0.8-0.1c-0.4-0.2-0.5-0.7-0.7-1
			c0-0.1-0.1-0.1-0.1-0.2c-3-6.1-3.9-12.8-4.8-19.3c-0.4-2.7-0.8-5.5-1.3-8.2c-0.9-4.6-2.2-9.1-3.6-13.5c-0.1-0.5-0.3-0.8-0.6-1.1
			c-0.1-0.1-0.4-0.1-0.7-0.1c-1.7-0.2-3.6-0.3-4.7,0.9c-0.6,0.8-0.9,1.9-0.9,3c-0.2,4.6,0,9.2,0.5,13.7l2.1,24.1
			c0.1,2.4,0.5,4.7,1.4,6.9L150.8,124.4z"/>
		
			<rect x="171.4" y="116.9" transform="matrix(0.9707 -0.2402 0.2402 0.9707 -23.2218 44.6464)" class="st2" width="0.3" height="1.4"/>
		<path class="st2" d="M178.8,121.5c-0.6,0-1.3-0.2-1.8-0.5c-0.7-0.4-1.2-0.9-1.7-1.5c-0.4-0.5-0.8-0.9-1.3-1.2
			c-0.4-0.3-0.9-0.3-1.3-0.1l-0.5-1.3c0.8-0.3,1.8-0.2,2.6,0.3c0.6,0.4,1.2,0.9,1.7,1.5c0.4,0.5,0.8,0.9,1.3,1.2
			c0.5,0.3,1.1,0.4,1.7,0.2l0.3,1.3C179.4,121.5,179.1,121.5,178.8,121.5z"/>
		<path class="st2" d="M192.6,126.6c-0.6-0.7-1.5-0.9-2.5-1.2c-0.5-0.1-0.9-0.3-1.4-0.4c-1.2-0.5-2.2-1.2-3-2.2l-0.3-0.3
			c-0.4-0.5-0.7-0.9-1.1-1c-0.2,0-0.4-0.1-0.6-0.1l-3.3,0l0-1.4l3.3,0c0.3,0,0.7,0,1,0.1c0.9,0.2,1.4,0.9,1.9,1.5l0.3,0.3
			c0.7,0.8,1.5,1.4,2.5,1.8c0.4,0.2,0.8,0.3,1.2,0.4c1.1,0.3,2.3,0.7,3.1,1.6L192.6,126.6z"/>
		<path class="st2" d="M144,133c-3.3-3.1-6.3-6.5-9.1-10.1c-1.1-1.5-2.3-2.9-3.6-4.2c-1.2-1.2-2.9-1.9-4.6-1.9l0-1.4
			c2.1,0.1,4,0.9,5.5,2.3c1.4,1.3,2.6,2.8,3.7,4.4c2.7,3.5,5.7,6.9,8.9,9.9L144,133z"/>
		<path class="st2" d="M148.4,139.2c-0.2,0-0.4,0-0.6-0.1c-2.7-0.5-5.3-2.5-7.4-5.9c-0.6-1-1.2-2.1-1.8-3.1c-0.9-1.7-1.8-3.3-3-4.8
			c-1.4-1.6-3-3.1-4.8-4.3l0.8-1.1c1.9,1.3,3.6,2.8,5.1,4.6c1.3,1.6,2.2,3.3,3.1,5c0.5,1,1.1,2,1.7,3c1.3,2.1,3.6,4.8,6.6,5.3
			c0.2,0.1,0.4,0.1,0.5,0c0.2-0.1,0.3-0.3,0.3-0.6c1.2-4.7,1.8-9.4,1.9-14.2l1.4,0c-0.1,4.8-0.7,9.7-1.9,14.4
			c-0.1,0.5-0.4,1.1-0.9,1.5l-0.1,0.1C149.1,139.1,148.8,139.2,148.4,139.2z"/>
		<path class="st2" d="M151.8,130.5c-1-7.9-1.5-16-1.7-24l1.4,0c0.1,7.9,0.7,16,1.7,23.8L151.8,130.5z"/>
		<path class="st2" d="M144.9,135.4c-1.4-1-2.6-2.3-3.4-3.8l1.2-0.7c0.7,1.3,1.7,2.5,3,3.4L144.9,135.4z"/>
		<path class="st2" d="M130.8,137.9c-1.1-2.9-3.2-5.3-5.4-7.8c-1.8-2-3.6-4.1-4.9-6.5c-0.4-0.6-0.6-1.3-0.8-2
			c-0.1-0.9-0.1-1.7,0-2.5c0-0.7,0.3-1.6,0.7-2.3c0.7-0.9,1.7-1.3,2.7-1.4c0.9,0,1.8,0.1,2.6,0.3l-0.4,1.3c-0.7-0.2-1.5-0.3-2.2-0.3
			c-0.6,0-1.2,0.3-1.6,0.8c-0.3,0.4-0.4,1-0.5,1.6c-0.1,0.8-0.1,1.4,0,2.1c0.1,0.5,0.3,1.1,0.6,1.6c1.2,2.3,3,4.3,4.7,6.2
			c2.2,2.5,4.5,5,5.7,8.2L130.8,137.9z"/>
		<path class="st2" d="M141.1,155.1c-2.3-2.5-4.1-5.4-5.4-8.5c-0.4-1.1-0.8-2.2-1.2-3.3c-0.3-0.9-0.6-1.8-0.9-2.6
			c-2.2-5-4.9-9.7-8.3-14l1.1-0.8c3.4,4.4,6.2,9.2,8.4,14.3c0.4,0.9,0.7,1.8,1,2.7c0.4,1.1,0.7,2.2,1.2,3.2c1.2,3,3,5.7,5.2,8.1
			L141.1,155.1z"/>
		<path class="st2" d="M145.3,160.7c-3.9-3.7-6.5-8.4-9-13c-1.5-2.8-3.1-5.6-4.9-8.2l1.1-0.8c1.9,2.6,3.5,5.5,5,8.3
			c2.5,4.5,5,9.1,8.7,12.7L145.3,160.7z"/>
		<path class="st2" d="M154.3,174.2c-0.6-2.3-1.8-4.5-3.4-6.2l-8.5-10.5l1.1-0.9l8.4,10.4c1.8,1.9,3.1,4.2,3.8,6.8L154.3,174.2z"/>
		<path class="st2" d="M191.9,164.7l-1.4-0.1c0.4-4.4,1-8.8,1.9-13.1c0.3-1.3,0.7-2.7,1-4c0.7-2.7,1.5-5.6,1.8-8.4
			c0.3-2.7,0.3-7.9-2.9-11.5l1.1-0.9c2.6,3,3.7,7.5,3.2,12.6c-0.3,2.9-1.1,5.8-1.8,8.6c-0.3,1.3-0.7,2.6-1,3.9
			C192.9,156,192.3,160.3,191.9,164.7z"/>
		<path class="st2" d="M188,177.2l-1.4-0.1l0.8-12.5c0.1-1.9,0.2-3.9,0.5-5.8c0.5-3.1,1.4-6.1,2.3-9c0.5-1.5,0.9-3.1,1.3-4.6
			c1.5-5.5,1.6-9.8,0.4-13.5l1.3-0.4c1.2,3.9,1.1,8.4-0.4,14.2c-0.4,1.6-0.9,3.2-1.4,4.7c-0.9,2.9-1.8,5.8-2.2,8.8
			c-0.3,1.9-0.4,3.8-0.5,5.7L188,177.2z"/>
		<path class="st2" d="M189.7,179.6l-1.4-0.1c0.2-6.4,1.2-12.8,2.9-19l1.3,0.4C190.8,167.1,189.9,173.3,189.7,179.6z"/>
		<path class="st2" d="M155.7,180.8c-0.7-2-1-4-1.1-6.1l1.4,0c0,1.9,0.4,3.9,1,5.7L155.7,180.8z"/>
		<path class="st2" d="M161.4,183.8c-2.3,0-4.6-0.1-6.9-0.2l0.1-1.4c9.9,0.5,19.9-0.1,29.7-1.8l0.2,1.4
			C176.9,183.1,169.1,183.8,161.4,183.8z"/>
		
			<rect x="147.9" y="188.3" transform="matrix(4.292914e-02 -0.9991 0.9991 4.292914e-02 -41.9316 334.2219)" class="st2" width="11.2" height="1.4"/>
		<rect x="155" y="185.6" class="st2" width="1.4" height="9.9"/>
		<path class="st2" d="M191.4,197.5c-1.5-2.6-2.3-5.6-2.3-8.6c-0.1-2.8-0.3-5.7-0.7-8.5l-6.8,1.9l-0.4-1.3l6.8-1.9
			c0.3-0.1,0.7-0.1,1,0l0.2,0.1c0.3,0.3,0.5,0.7,0.6,1.1c0.4,2.8,0.6,5.7,0.7,8.6c0.1,2.8,0.8,5.5,2.1,7.9L191.4,197.5z"/>
		<path class="st2" d="M191.3,192.9c-0.2-1-0.4-1.9-0.8-2.8c-0.6-2-0.5-3.9-0.4-5.8c0.1-1.2,0.1-2.5,0-3.6l1.4-0.1
			c0.1,1.3,0.1,2.6,0,3.8c-0.1,1.9-0.2,3.7,0.3,5.3c0.4,0.9,0.7,2,0.8,3L191.3,192.9z"/>
		<path class="st2" d="M127.1,125.2l-1-1c0.7-0.7,1.1-1.7,1-2.8c-0.2-1-0.9-2-1.8-2.8l-0.1-0.1c-0.2-0.2-0.5-0.4-0.8-0.4l0-1.4
			c0.7,0,1.3,0.3,1.8,0.8c1.1,0.9,1.9,2.2,2.2,3.6C128.6,122.8,128.1,124.2,127.1,125.2z"/>
		<path class="st2" d="M126.5,125l-1.2-0.7c0.2-0.4,0.4-0.8,0.5-1.2c0.1-0.6-0.1-1.2-0.3-1.8c-0.2-0.5-0.4-0.8-0.7-1.2l1.1-0.9
			c0.4,0.4,0.6,0.9,0.8,1.5c0.4,0.8,0.5,1.7,0.4,2.6C127,123.9,126.8,124.4,126.5,125z"/>
		<path class="st2" d="M152.5,85.9c-0.1,0-0.2,0-0.4,0c-0.9-0.2-1.6-0.6-2.1-1.3c-0.4-0.6-0.8-1.2-1-1.8l-0.8-1.6l1.3-0.6l0.8,1.6
			c0.2,0.6,0.5,1.1,0.9,1.5c0.3,0.4,0.7,0.6,1.2,0.7c0.5,0.1,1-0.1,1.4-0.5c0.4-0.4,0.7-1,0.9-1.5l1.3,0.4c-0.2,0.8-0.7,1.6-1.3,2.2
			C154.1,85.6,153.3,85.9,152.5,85.9z"/>
		<path class="st2" d="M153.2,87.8c-0.4,0-0.9-0.1-1.3-0.2c-1-0.3-1.8-0.9-2.3-1.7c-0.5-0.7-0.9-1.5-1.2-2.3l1.3-0.5
			c0.3,0.7,0.6,1.4,1.1,2c0.4,0.5,0.9,1,1.6,1.2c0.4,0.1,0.8,0.1,1.2,0.1c0.5-0.7,1-1.5,1.6-2.1l1,1c-0.5,0.5-1,1.2-1.3,1.9
			c-0.1,0.3-0.3,0.4-0.5,0.5c-0.3,0.2-0.6,0.2-0.8,0.2C153.4,87.8,153.3,87.8,153.2,87.8z"/>
		<rect x="138.6" y="1.6" class="st2" width="34.1" height="1.4"/>
		
			<rect x="163.2" y="-22.2" transform="matrix(9.012271e-03 -1 1 9.012271e-03 160.2055 165.9893)" class="st2" width="1.4" height="48.7"/>
		<path class="st2" d="M132.5,35.9c-2.1-8.7-1.8-17.8-1.5-26.6c-0.1-1.4,0.2-2.8,0.7-4.1c1.5-3.2,5.4-4.1,8.5-3.7l-0.2,1.4
			c-2.6-0.3-5.9,0.4-7.1,2.9c-0.4,1.1-0.6,2.3-0.6,3.6c-0.3,8.8-0.6,17.8,1.5,26.3L132.5,35.9z"/>
		<path class="st2" d="M131.5,102.9l-1.4,0c0.5-26.4,0.7-53.2,0.6-79.5l1.4,0C132.2,49.7,132,76.5,131.5,102.9z"/>
		<path class="st2" d="M131.6,116.2l-1.4-0.1c1.3-15.9,1-32,0.8-47.6c-0.2-10.1-0.3-20.1-0.5-30.1l1.4,0c0.2,10,0.3,20.1,0.5,30.1
			C132.7,84.1,132.9,100.2,131.6,116.2z"/>
		<path class="st2" d="M141.2,120.5c-1.2,0-2.4,0-3.6-0.1c-1,0-2.1-0.2-3.1-0.6c-1.6-0.9-2.7-2.3-3.5-3.8c-0.9-1.2-1.3-2.9-1.2-4.6
			l0-8.9l1.4,0l0,9c-0.1,1.4,0.2,2.7,1,3.8c0.7,1.4,1.6,2.5,2.9,3.3c0.7,0.3,1.6,0.4,2.5,0.4c2.1,0.1,4.1,0.1,6.1,0l0,1.4
			C143,120.5,142.1,120.5,141.2,120.5z"/>
		<path class="st2" d="M193.2,20.5l-1.1-10.4c0-1.5-0.5-3-1.4-4.1c-0.4-0.4-1-0.7-1.6-1l-2.5-1.2l0.6-1.3l2.5,1.2
			c0.7,0.3,1.4,0.7,2.1,1.3c1.2,1.5,1.8,3.2,1.8,5l1.1,10.3L193.2,20.5z"/>
		<path class="st2" d="M192.2,39.4l-1.8-30.2c-0.1-2.4-0.6-5.7-2.9-6.6l0.5-1.3c3.1,1.2,3.7,5,3.8,7.8l1.8,30.2L192.2,39.4z"/>
		<rect x="192.4" y="20.1" class="st2" width="1.4" height="70.1"/>
		<path class="st2" d="M191.8,101.9c-0.4-19.1-0.5-38.5-0.5-57.6l1.4,0c-0.1,19.1,0.1,38.5,0.5,57.6L191.8,101.9z"/>
		<path class="st2" d="M186.6,119.9l-0.2-1.4c2.1-0.3,4.4-0.8,5.4-2.5c0.5-1,0.8-2.3,0.7-3.5c0.2-7.7,0.4-15.4,0.6-23.1l1.4,0
			c-0.2,7.7-0.4,15.4-0.6,23c0.1,1.4-0.2,2.9-0.9,4.2C191.6,118.9,189,119.5,186.6,119.9z"/>
		<path class="st2" d="M185,120.2c-1.1,0-2.2,0-3.2-0.1l0.1-1.4c2.9,0.2,5.9,0.1,8.8-0.2l0.2,1.4C188.8,120.1,186.9,120.2,185,120.2
			z"/>
		<path class="st2" d="M166.6,14c-9.6,0-19.2-0.1-28.7-0.4l0-1.4c13,0.4,26.2,0.5,39.3,0.3l0,1.4C173.7,14,170.2,14,166.6,14z"/>
		<path class="st2" d="M186.6,12.3c-16.8-0.2-33.7-0.4-50.5-0.8l0-1.4c16.7,0.3,33.7,0.6,50.5,0.8L186.6,12.3z"/>
		<path class="st2" d="M136.4,74.3c-0.7-11.2-0.6-22.7-0.5-33.7c0.1-9.2,0.1-18.8-0.3-28.2l1.4-0.1c0.4,9.4,0.3,19,0.3,28.2
			c-0.1,11-0.2,22.4,0.5,33.6L136.4,74.3z"/>
		<path class="st2" d="M137.1,99.9l-1.4,0c0.1-19.2,0.1-38.6,0-57.5c0.1-1.7-0.1-3.4-0.5-5.1l1.3-0.4c0.5,1.8,0.7,3.6,0.6,5.4
			C137.3,61.4,137.2,80.7,137.1,99.9z"/>
		<path class="st2" d="M189.8,86.2l-1.4,0c0.6-24.7,0.2-49.6-1.1-74.3l1.4-0.1C190,36.5,190.4,61.5,189.8,86.2z"/>
		<path class="st2" d="M188.6,104.8l-1.4,0c0.9-27.7,0.5-55.8-1.2-83.5l1.4-0.1C189.1,49,189.5,77.1,188.6,104.8z"/>
		<path class="st2" d="M144.4,105.5c-2.4,0-4.8-0.1-7.2-0.4c0,0,0,0,0,0c-0.3,0-0.6-0.1-0.9-0.3l-0.1-0.1c-0.3-0.4-0.5-0.9-0.4-1.4
			L136,98l1.4,0l-0.2,5.4c0,0.1,0,0.2,0,0.3c0,0,0.1,0,0.1,0c3.3,0.3,6.6,0.4,9.8,0.3l0.1,1.4C146.2,105.5,145.3,105.5,144.4,105.5z
			"/>
		<rect x="142" y="98.5" transform="matrix(0.1246 -0.9922 0.9922 0.1246 21.7315 232.641)" class="st2" width="1.4" height="11"/>
		<path class="st2" d="M163,105.9l0-1.4c7.1-0.1,14.2-0.1,21.3-0.1l0,1.4C177.2,105.8,170.1,105.8,163,105.9z"/>
		<path class="st2" d="M176.3,104.7c-4.2,0-8.5,0-12.7-0.1l0-1.4c6.8,0.1,13.8,0.1,20.7,0.1l0,1.4
			C181.7,104.6,179,104.7,176.3,104.7z"/>
		
			<rect x="140.7" y="53.5" transform="matrix(0.9995 -3.014283e-02 3.014283e-02 0.9995 -1.8492 4.2906)" class="st2" width="1.4" height="20"/>
		
			<rect x="140.5" y="53.4" transform="matrix(0.9999 -1.659928e-02 1.659928e-02 0.9999 -0.8766 2.6666)" class="st2" width="39.3" height="1.4"/>
		<path class="st2" d="M178.2,54.9c-11.6-1.3-23.4-1.6-35-0.9l-0.1-1.4c11.7-0.7,23.6-0.4,35.3,0.9L178.2,54.9z"/>
		<path class="st2" d="M182.7,71.4l-1.4-0.1c0.2-6.2,0.8-12.4,1.5-18.5l1.4,0.2C183.4,59.1,182.9,65.3,182.7,71.4z"/>
		<path class="st2" d="M183.6,73.9l-1.4-0.3c0.3-1.8,0-3.6-0.3-5.5c-0.2-0.9-0.3-1.8-0.4-2.7c-0.1-1.3-0.1-2.7-0.1-4
			c0-2.6,0-5.1-1-7.4l1.3-0.6c1.1,2.5,1.1,5.3,1.1,8c0,1.3,0,2.6,0.1,3.9c0.1,0.9,0.2,1.7,0.4,2.6C183.6,69.9,184,71.9,183.6,73.9z"
			/>
		
			<rect x="144.6" y="71.9" transform="matrix(6.442603e-02 -0.9979 0.9979 6.442603e-02 60.956 215.3204)" class="st2" width="1.4" height="6.5"/>
		<path class="st2" d="M165.3,75.6c-1.7,0-3.4,0-5.1-0.1l0-1.4c6.1,0.2,12.3,0,18.4-0.5l0.1,1.4C174.3,75.4,169.8,75.6,165.3,75.6z"
			/>
		<path class="st2" d="M181.9,74.9c-7.8-1.2-15.8-1.5-23.7-0.9l-0.1-1.4c8-0.6,16.1-0.3,24,0.9L181.9,74.9z"/>
		<path class="st2" d="M142.9,37.7c-0.4-3.7-0.6-7.5-0.5-11.2l1.4,0c-0.1,3.7,0.1,7.4,0.5,11.1L142.9,37.7z"/>
		
			<rect x="143.1" y="26" transform="matrix(0.9999 -1.004269e-02 1.004269e-02 0.9999 -0.3165 1.446)" class="st2" width="1.4" height="12.5"/>
		<rect x="141.6" y="27.9" class="st2" width="15.8" height="1.4"/>
		<path class="st2" d="M159.8,41l-1.4,0c0.1-4,0.1-8.1-0.1-12.1l0-0.1l0-0.1c0-0.1,0-0.2,0-0.4c0-0.2-0.2-0.4-0.3-0.6
			c-0.2-0.1-0.4-0.2-0.6-0.2c-4.3-0.1-8.5-0.2-12.7-0.1l0-1.4c4.2-0.1,8.4,0,12.6,0.1c0.5-0.1,1.1,0.1,1.5,0.4
			c0.5,0.4,0.8,0.9,0.9,1.5c0,0.3,0,0.5,0,0.8C159.9,32.9,159.9,36.9,159.8,41z"/>
		<rect x="145.6" y="38.3" class="st2" width="8.4" height="1.4"/>
		<path class="st2" d="M144.5,41.5l0-1.4c4.6-0.1,9.3-0.4,13.9-1l0.2,1.4C153.9,41.1,149.2,41.4,144.5,41.5z"/>
		<path class="st2" d="M171.8,28.5c-2.2,0-4.5-0.1-6.7-0.3l0.1-1.4c3.4,0.3,6.8,0.4,10.2,0.2l0.1,1.4
			C174.3,28.4,173.1,28.5,171.8,28.5z"/>
		<path class="st2" d="M165.1,33.7l0-1.4c3.7-0.1,7.5-0.2,11.3-0.4l0.1,1.4C172.7,33.4,168.8,33.6,165.1,33.7z"/>
		
			<rect x="172.8" y="30.1" transform="matrix(1.546115e-02 -0.9999 0.9999 1.546115e-02 133.144 210.5863)" class="st2" width="1.4" height="15.1"/>
		<path class="st3" d="M146.7,69.5h-1.4v-9.1c0-0.2,0-0.4-0.1-0.5l1.1-0.8c0.3,0.4,0.4,0.9,0.4,1.4L146.7,69.5z"/>
		<path class="st3" d="M147.7,70.2l-1.4,0c0.1-4,0-8.1-0.2-12.1l1.4-0.1C147.8,62,147.8,66.1,147.7,70.2z"/>
		<path class="st3" d="M150.7,65.1c-0.1,0-0.2,0-0.2,0c-0.4,0-0.9,0-1.4,0l0-1.4c0.5,0,0.9,0,1.4,0c0.5,0,1,0,1.4-0.2
			c0.6-0.2,1.1-0.7,1.3-1.4c0.2-0.7,0.2-1.4,0.1-2.2c-0.1-0.7-0.5-1.3-1.1-1.5c-0.2,0-0.5,0-0.9,0l-5.6,0.6l-0.2-1.4l5.6-0.6
			c0.5-0.1,1-0.1,1.5,0c1.2,0.5,1.9,1.4,2,2.6c0.2,0.9,0.2,1.9-0.1,2.9c-0.3,1-1.1,1.9-2.1,2.3C151.8,65,151.2,65.1,150.7,65.1z"/>
		<path class="st3" d="M149.3,64.2c-0.3,0-0.7,0-1-0.1l0.1-1.4c1.2,0.1,2.3,0,3.4-0.3c0.1,0,0.2-0.1,0.3-0.1c0-0.1,0-0.2,0-0.3
			l-0.2-1.4c0-0.7-0.3-1.4-0.7-1.8c-0.4-0.2-0.8-0.2-1.3-0.1c-1.1,0.1-2,0.3-3,0.5l-0.3-1.4c1-0.2,2.1-0.4,3.1-0.5
			c0.7-0.1,1.5,0,2.2,0.3l0.2,0.1c0.8,0.7,1.3,1.7,1.3,2.8l0.2,1.2c0.1,0.3,0,0.8-0.1,1.2l-0.1,0.1c-0.3,0.3-0.7,0.6-1.1,0.6
			C151.3,64.1,150.3,64.2,149.3,64.2z"/>
		<path class="st3" d="M159.1,68.9l-1.3-0.3c0.9-3.7,1.8-7.5,2.7-11.2l1.4,0.3C161,61.4,160.1,65.1,159.1,68.9z"/>
		<path class="st3" d="M157.3,72l-0.3-2.1c-0.1-0.7,0.2-1.2,0.6-1.6c0.6-1.3,1.2-2.7,1.7-4.1c0-0.3,0.1-0.7,0.1-1l0.5-5.1l1,0.1
			c0.1-0.3,0.1-0.6,0.2-0.9l1.4,0.2c-0.4,2.4-1,4.8-1.8,7.1c-0.1,0.6-0.2,1.2-0.3,1.8c-0.1,0.7-0.4,1.5-0.9,2.1
			c-0.2,0.2-0.4,0.4-0.6,0.5c-0.1,0-0.1,0.1-0.2,0.1c-0.2,0.3-0.3,0.6-0.5,1L157.3,72z"/>
		
			<rect x="163.1" y="57.8" transform="matrix(0.9163 -0.4004 0.4004 0.9163 -11.4355 70.8336)" class="st3" width="1.4" height="9.9"/>
		<path class="st3" d="M164.9,68.4c-0.3-3.2-1.4-6.3-3.1-9l1.2-0.7c1.8,2.9,3,6.2,3.4,9.6L164.9,68.4z"/>
		
			<rect x="161.5" y="63.5" transform="matrix(2.061790e-02 -0.9998 0.9998 2.061790e-02 93.5312 226.2305)" class="st3" width="1.4" height="3.7"/>
		<path class="st3" d="M162.1,66.3l-0.2-1.4c1.3-0.2,2.5-0.5,3.8-0.9l0.4,1.3C164.8,65.7,163.5,66,162.1,66.3z"/>
		<path class="st3" d="M172.9,65l-0.4-0.4l0.1-0.1c-0.4-0.6-0.8-1.1-1.1-1.7c-0.7-1-1.3-2.1-2.1-3c-0.4-0.5-0.8-0.9-1.4-1.1l0.4-1.3
			c0.9,0.3,1.6,0.8,2.1,1.6c0.8,0.9,1.5,2,2.1,3.1c0.4,0.7,0.9,1.4,1.3,2L172.9,65z"/>
		<path class="st3" d="M173.8,67.3l-0.7-2.3c-0.7-2.4-2.3-4.3-4.4-5.5l0.7-1.2c1.9,1.1,3.4,2.7,4.4,4.6c0.5-1.1,1.3-2.2,2.2-3.1
			c0.1-0.1,0.2-0.2,0.3-0.2c0.4-0.6,0.9-1.2,1.4-1.8l3.6-4.3l-2.4,5c-0.4,0.8-0.9,1.4-1.5,2c-1.1,1.6-2,3.3-2.7,5.2l-0.3-0.1
			L173.8,67.3z"/>
		<path class="st3" d="M173.1,70.9c0-1.9-0.1-3.9-0.2-5.8l0.2,0v-0.5h1.4v6.3L173.1,70.9z"/>
		<path class="st2" d="M67.5,64.1l-1.4,0c0.3-13.4,0-27-0.8-40.4l1.4-0.1C67.6,37,67.8,50.6,67.5,64.1z"/>
		<path class="st2" d="M67,79.2l-1.4,0c0.3-17.8,0.2-35.9-0.3-53.8l1.4,0C67.2,43.3,67.3,61.4,67,79.2z"/>
		<path class="st2" d="M118.2,26.2c-17.2-1.4-34.7-2.1-51.9-2.3l0-1.4c17.3,0.1,34.8,0.9,52,2.3L118.2,26.2z"/>
		<rect x="72.4" y="21.6" class="st2" width="53.5" height="1.4"/>
		<path class="st2" d="M120.8,89.2c-2.3-21.5-3-43.3-1.9-64.9l1.4,0.1c-1,21.5-0.4,43.2,1.9,64.6L120.8,89.2z"/>
		<rect x="119.2" y="28.3" class="st2" width="1.4" height="82"/>
		<path class="st2" d="M93.8,108.9c-8.3,0-16.6,0-24.8-0.1l0-1.4c13.7,0.2,27.6,0.2,41.2,0.1l0,1.4
			C104.8,108.9,99.3,108.9,93.8,108.9z"/>
		<path class="st2" d="M119.1,107.5c-15.8-1.2-31.9-1.5-47.7-0.8l-0.1-1.4c15.9-0.7,32-0.4,47.9,0.8L119.1,107.5z"/>
		
			<rect x="71.7" y="44.4" transform="matrix(0.9999 -1.171795e-02 1.171795e-02 0.9999 -0.5221 1.1012)" class="st2" width="44" height="1.4"/>
		<rect x="84.6" y="35.8" class="st2" width="1.4" height="5.7"/>
		<path class="st2" d="M86.2,43l0-1.4c0.6,0,1.2-0.1,1.8-0.4c0.3-0.1,0.6-0.3,0.8-0.5c0.1-0.1,0.1-0.3,0.1-0.5c0,0-0.1-0.1-0.2-0.2
			c-0.8-0.6-1.6-0.8-2.6-0.8L86,37.8c0.7-0.1,1.3-0.4,1.9-0.8c0.4-0.3,0.4-0.9,0.1-1.3c0,0,0,0-0.1,0l-3.2,0v-1.4h3.1
			c0.2,0,0.4,0,0.6,0.1c0.3,0.1,0.5,0.3,0.7,0.5c0.7,1,0.6,2.4-0.3,3.2c-0.1,0.1-0.2,0.2-0.3,0.3c0.4,0.2,0.7,0.4,1.1,0.6
			c0.2,0.2,0.5,0.4,0.6,0.7c0.3,0.7,0.2,1.5-0.2,2c-0.4,0.4-0.9,0.8-1.4,1C87.8,42.8,87,42.9,86.2,43z"/>
		<path class="st2" d="M91,42.4c-0.1-2.2-0.1-4.5,0-6.7l1.4,0c0,2.2,0,4.4,0,6.7L91,42.4z"/>
		<path class="st2" d="M92.8,36.2c-0.6-0.3-1.3-0.4-1.9-0.2l-0.4-1.3c1-0.3,2.1-0.2,3,0.3L92.8,36.2z"/>
		<rect x="90.7" y="41.6" class="st2" width="2.5" height="1.4"/>
		<path class="st2" d="M97,42.9c-0.3,0-0.6,0-0.9,0c-0.3,0-0.6-0.1-0.9-0.4l-0.1-0.1C95,42.3,95,42.1,95,41.9
			c-0.3-2-0.5-4.2-0.4-6.3l1.4,0c-0.1,2,0.1,4,0.4,5.9c0.4,0,0.8,0,1.3,0l0,1.4C97.4,42.9,97.2,42.9,97,42.9z"/>
		<path class="st2" d="M101,42.5c-0.2,0-0.5,0-0.7,0l-0.2,0c-0.3,0-0.6-0.2-0.7-0.4c-0.2-0.2-0.2-0.5-0.2-0.7
			c-0.3-2.1-0.4-4.2-0.4-6.3l1.4,0c0,2,0.1,4.1,0.4,6.1c0.4,0,0.7,0,1,0l0,1.4C101.4,42.5,101.2,42.5,101,42.5z"/>
		<path class="st2" d="M103.5,51.4c-0.7,0-1.1-0.6-1.3-1c-0.1-0.1-0.2-0.3-0.3-0.4c0,0-0.1,0.2-0.2,0.3c-0.3,0.3-0.6,0.7-1.2,0.8
			l-0.2-1.4l0.1,0.7l-0.1-0.7c0.1,0,0.2-0.2,0.3-0.3c0.3-0.3,0.7-0.8,1.4-0.8c0.7,0.1,1.1,0.6,1.3,1c0.1,0.1,0.1,0.2,0.2,0.3
			c0,0,0.1-0.1,0.1-0.1c0.2-0.2,0.6-0.6,1.3-0.5c0.2,0.1,0.4,0.1,0.6,0.2c0.4,0.2,1,0.3,1.5,0c0.2-0.2,0.7-0.3,1.1-0.3l0.2,0.1
			c0.2,0.1,0.4,0.2,0.6,0.3c0,0,0.3-0.1,0.4-0.2c0.4-0.2,0.9-0.4,1.5-0.2c0.3,0.1,0.5,0.2,0.7,0.4c0,0,0.1,0.1,0.2,0.1
			c0,0,0,0,0.1-0.1l0.1-0.1c0.4-0.5,1.1-0.6,1.5-0.3l-0.8,1.2c0.1,0.1,0.3,0.1,0.3,0l-0.1,0.1c-0.1,0.2-0.4,0.5-0.7,0.6
			c-0.6,0.2-1.1-0.2-1.4-0.4c-0.1-0.1-0.2-0.2-0.3-0.2c-0.1,0-0.4,0.1-0.6,0.2c-0.4,0.2-1,0.4-1.6,0.1c-0.1-0.1-0.3-0.1-0.3-0.2
			c-0.1,0-0.2,0-0.2,0.1c-1,0.5-2,0.4-2.9,0c0-0.1-0.1,0-0.2,0.1c-0.2,0.2-0.5,0.5-1,0.6C103.6,51.4,103.5,51.4,103.5,51.4z"/>
		<path class="st2" d="M104.5,56.8c-0.2,0-0.3,0-0.5-0.1c-0.5-0.2-0.9-0.5-1.2-0.9c0,0,0,0-0.1,0.1c-0.4,0.4-0.9,0.9-1.7,0.8
			c-0.7-0.1-1.1-0.6-1.4-1c0,0,0,0,0,0l-0.4,0.4l-1-1l1.3-1.3l0.5,0.3c0.3,0.2,0.5,0.5,0.7,0.7c0.1,0.2,0.3,0.4,0.4,0.4
			c0.1,0,0.3-0.2,0.5-0.4c0.3-0.3,0.6-0.6,1-0.8l0.7-0.3l0.3,0.7c0.1,0.4,0.4,0.7,0.8,0.8c0.1,0,0.3-0.1,0.3-0.1l0-1.7l1.2,1.1
			c0.2,0.2,0.5,0.3,0.8,0.3c0.3,0,0.5-0.1,0.7-0.3c0.1-0.1,0.3-0.4,0.7-0.5c0.6-0.1,1,0.4,1.2,0.6c0.3,0.3,0.9,0.1,1.2-0.2
			c0.1-0.2,0.4-0.3,0.7-0.4c0.7-0.1,1.1,0.3,1.4,0.6l0.1,0.1c0.3,0.2,0.6,0.2,0.9,0l0.9,1.1c-0.8,0.7-1.9,0.7-2.7,0
			c-0.1-0.1-0.1-0.1-0.2-0.2c0,0-0.1-0.1-0.1-0.1c-1,0.8-2.4,1.1-3.1,0.2c-0.4,0.4-1,0.6-1.6,0.6c-0.3,0-0.7-0.1-1-0.2
			c-0.1,0.1-0.1,0.1-0.2,0.2C105.3,56.7,104.9,56.8,104.5,56.8z"/>
		<path class="st2" d="M101.7,63.5l-0.3-1.4c0.2,0,0.4-0.3,0.6-0.5c0.4-0.4,0.9-0.9,1.6-0.9l0.2,0.1c0.2,0.1,0.4,0.1,0.5,0l0.2-0.1
			c0.7-0.2,1.3,0.2,1.8,0.5c0.1,0.1,0.3,0.2,0.4,0.3c0.4,0.2,0.8,0.1,1.1-0.2c0.1-0.2,0.4-0.3,0.7-0.4l0.1,0l0.1,0
			c0.3,0,0.5,0.1,0.7,0.3l0.2,0.1c0.2,0.2,0.7,0.5,0.8,0.4c0.1,0,0.2-0.1,0.2-0.2c0.2-0.3,0.6-0.7,1.1-0.7c0.4,0,0.7,0.1,0.9,0.3
			c0.4,0.2,0.9,0.1,1.3-0.2l0.8,1.2c-0.8,0.5-1.8,0.6-2.7,0.3c-0.1-0.1-0.2-0.1-0.2-0.1c-0.1,0-0.1,0.1-0.2,0.2
			c-0.2,0.2-0.4,0.4-0.7,0.6c-0.9,0.5-1.7-0.2-2.3-0.6l-0.1-0.1c-0.7,0.6-1.7,0.7-2.6,0.4c-0.2-0.1-0.4-0.2-0.6-0.4
			c-0.2-0.1-0.5-0.3-0.6-0.3c-0.5,0.2-1,0.3-1.5,0.1c-0.1,0-0.3,0.2-0.5,0.4C102.7,62.9,102.3,63.3,101.7,63.5z"/>
		<path class="st2" d="M108.8,69.2c-0.5,0-1-0.3-1.4-0.5c-0.3-0.1-0.5-0.3-0.7-0.3c-0.1,0-0.2,0-0.4,0c-0.4,0.1-0.8,0.2-1.3-0.1
			c-0.2-0.1-0.3-0.2-0.4-0.4c-0.6,0.6-1.4,0.9-2.3,0.7c-0.2,0-0.3-0.1-0.5-0.2c-0.1,0-0.4-0.1-0.5-0.1l-0.6-1.2
			c0.6-0.3,1.2-0.1,1.6,0.1c0.1,0,0.2,0.1,0.3,0.1c0.3,0.1,0.7,0,1-0.3c0.2-0.2,0.4-0.4,0.7-0.5c0.6-0.2,1.1,0.3,1.3,0.5
			c0.1,0.1,0.1,0.1,0.2,0.2c0,0,0.2,0,0.4,0c0.2,0,0.4-0.1,0.6-0.1c0.5,0,1,0.3,1.3,0.5c0.3,0.2,0.5,0.3,0.7,0.3
			c0.1,0,0.3-0.1,0.5-0.2c0.2-0.2,0.5-0.3,0.9-0.4c0.6-0.1,1.1,0,1.6,0.2c0.2,0.1,0.5,0.1,0.7,0.2c0.4,0,1-0.2,1.4-0.5
			c0.7-0.4,1.4-0.2,1.7,0.3l-1.2,0.7c0.1,0.1,0.2,0.2,0.3,0.2c0,0-0.1,0-0.1,0c-0.6,0.4-1.3,0.6-2,0.6c-0.5,0-0.8-0.1-1.1-0.2
			c-0.3-0.1-0.6-0.2-0.8-0.1c-0.1,0-0.3,0.1-0.5,0.2c-0.3,0.2-0.6,0.4-1.1,0.4C108.9,69.2,108.8,69.2,108.8,69.2z"/>
		<path class="st2" d="M109,74.9c-0.2,0-0.5-0.1-0.7-0.2l-0.2-0.1c-0.2-0.2-0.4-0.4-0.5-0.7c-0.1-0.2-0.4-0.3-0.8-0.2
			c-0.2,0.1-0.4,0.2-0.7,0.4c-0.5,0.3-1.1,0.7-1.9,0.5l0.4-1.3c0.2,0,0.4-0.1,0.8-0.3c0.3-0.2,0.7-0.4,1.1-0.5
			c0.9-0.2,1.8,0.1,2.3,0.9c0.1,0.1,0.1,0.2,0.2,0.3c0,0,0.1,0,0.1,0c0.6-0.1,1-0.3,1.4-0.5c0.2-0.2,0.6-0.3,1-0.2
			c0.3,0.1,0.4,0.3,0.5,0.4l1.7-0.1l0,1.4l-1.7,0.1c-0.2,0-0.6,0-0.8-0.2c-0.1-0.1-0.1-0.1-0.2-0.2c-0.5,0.3-1.1,0.5-1.7,0.6
			C109.3,74.9,109.2,74.9,109,74.9z"/>
		<rect x="87.7" y="78.4" class="st2" width="25.5" height="1.4"/>
		
			<rect x="104" y="87.8" transform="matrix(0.9923 -0.1241 0.1241 0.9923 -10.3584 13.6856)" class="st2" width="1.4" height="4.3"/>
		<path class="st2" d="M104.4,89.8l-0.2-1.4c3.5-0.4,7.1-0.7,10.6-0.9l0.1,1.4C111.4,89.1,107.9,89.4,104.4,89.8z"/>
		<rect x="105.6" y="91.3" transform="matrix(0.9936 -0.1133 0.1133 0.9936 -9.7168 13.0686)" class="st2" width="9" height="1.4"/>
		<path class="st2" d="M113.3,91.4c0-1.2-0.1-2.5-0.4-3.7l1.4-0.3c0.3,1.3,0.4,2.6,0.4,4L113.3,91.4z"/>
		
			<rect x="106.9" y="89.8" transform="matrix(0.2462 -0.9692 0.9692 0.2462 -6.6836 172.4112)" class="st2" width="1.2" height="1.4"/>
		
			<rect x="108.9" y="90.1" transform="matrix(0.5452 -0.8383 0.8383 0.5452 -26.2082 133.2955)" class="st2" width="1.6" height="1.4"/>
		
			<rect x="111.8" y="89.9" transform="matrix(0.554 -0.8325 0.8325 0.554 -25.4392 133.7708)" class="st2" width="0.6" height="1.4"/>
		<polygon class="st2" points="108.4,92.1 107.4,91.1 108.5,92 		"/>
		
			<rect x="106.5" y="90.4" transform="matrix(0.3658 -0.9307 0.9307 0.3658 -16.8252 157.518)" class="st2" width="1.4" height="1.4"/>
		<path class="st2" d="M107.2,96.3l0.3-3c-0.2,0.1-0.4,0.1-0.6,0c-0.6-0.2-0.9-0.8-0.7-1.5c0.1-0.2,0.2-0.4,0.2-0.5l1.3,0.2
			c0.1,0,0.1-0.1,0.2-0.1c0.1-0.2,0.2-0.3,0.3-0.5c0.2-0.2,0.4-0.4,0.6-0.5c0,0,0,0,0,0l0,0c0.5-0.2,1-0.1,1.4,0.2l0.1,0.1
			c0.2,0.3,0.4,0.6,0.5,0.9c0.6-0.6,1-1.2,1.4-1.9l1.2-2.1l0.1,2.4c0,0.3-0.1,0.7-0.3,1l-0.1-0.1c-0.4,0.6-0.9,1.2-1.4,1.7
			c-0.2,0.3-0.6,0.5-1,0.5c-0.6,0-1-0.4-1.3-1c0-0.1-0.1-0.2-0.1-0.3c-0.2,0.3-0.4,0.7-0.6,1L107.2,96.3z"/>
		<path class="st2" d="M61.2,84.6l-0.8-1.2c3.3-2.2,6.3-4.8,8.9-7.8c1.1-1.4,2.1-3.1,3.1-4.7c0.8-1.3,1.5-2.6,2.4-3.8
			c2.5-3.5,5.3-5.6,8.4-6.2c2.8-0.5,5.6,0.2,7.7,2.1c2.1,1.9,3.2,4.7,2.8,7.5l-1.4-0.2c0.3-2.4-0.6-4.7-2.4-6.3
			c-1.8-1.6-4.2-2.2-6.6-1.7c-2.7,0.5-5.2,2.4-7.5,5.6c-0.8,1.2-1.6,2.5-2.4,3.7c-1,1.6-2,3.3-3.2,4.8
			C67.6,79.7,64.5,82.4,61.2,84.6z"/>
		<path class="st2" d="M73,103.8l-1.3-0.4c2.1-6.2,5.1-11.9,9-17.1c0.9-1.2,1.8-2.4,2.8-3.5c3-3.7,6.1-7.5,7.4-12
			c0.8-2.5,0.8-6.1-1.5-7.7c-1.6-1.1-3.7-1-6-0.8l-0.1-1.4c2.4-0.2,4.9-0.3,6.9,1c2.9,2.1,2.9,6.3,2,9.2c-1.4,4.8-4.6,8.7-7.7,12.5
			c-0.9,1.2-1.9,2.3-2.8,3.5C78,92.2,75,97.8,73,103.8z"/>
		<path class="st2" d="M46.5,131.5l-0.7-1.2c2.8-1.7,5.4-3.7,7.8-6c2.2-1.9,3.9-4,5.2-6.5c0.3-0.7,0.6-1.4,0.8-2.1
			c0.2-0.5,0.4-1,0.6-1.5c1.6-4,4.5-7.3,7.3-10.5c2.8-3.2,5.6-6.5,7.1-10.4l1.3,0.5c-1.6,4.1-4.5,7.5-7.4,10.8
			c-2.7,3.1-5.5,6.4-7.1,10.2c-0.2,0.5-0.4,1-0.5,1.5c-0.3,0.7-0.5,1.5-0.9,2.3c-1.4,2.7-3.3,5-5.5,6.9
			C52.1,127.7,49.4,129.8,46.5,131.5z"/>
		<path class="st2" d="M54.5,87.2c-1.3,0-2.5-0.3-3.7-0.8l-0.2-0.1c-1.2-0.4-2.5-0.8-3.7-1.3c-0.5-0.2-1-0.5-1.4-0.9
			c-0.5-0.6-0.7-1.3-0.6-2.1c0.1-1.1,0.8-2.2,1.8-2.8c0.7-0.5,1.5-0.8,2.3-1.1c0.7-0.3,1.3-0.5,1.8-0.8c0.8-0.5,1.4-1.1,2.1-1.9
			c0.8-0.9,1.7-1.8,2.9-2.4c1.6-0.8,3.3-0.7,5-0.6c1,0,1.9,0.1,2.7,0l0.2,1.4c-1,0.1-2,0.1-3,0c-1.6-0.1-3-0.1-4.3,0.5
			c-0.9,0.5-1.7,1.2-2.5,2.1c-0.7,0.7-1.4,1.5-2.3,2.1c-0.7,0.4-1.4,0.7-2.1,1c-0.7,0.3-1.4,0.5-2,0.9c-0.6,0.4-1.1,1.2-1.2,1.9
			c0,0.4,0,0.7,0.3,1c0.2,0.2,0.6,0.4,0.9,0.6c1.2,0.5,2.4,0.9,3.6,1.3l0.3,0.1c1.6,0.7,3.2,0.8,4.9,0.5c0.5-0.2,1-0.5,1.6-0.8
			c0.9-0.6,1.8-1.1,3-1.2l0.1,1.4c-0.8,0-1.5,0.5-2.3,1c-0.6,0.4-1.2,0.8-2,1C55.9,87.1,55.2,87.2,54.5,87.2z"/>
		<path class="st2" d="M51.8,86.1c-1.1-0.2-2.2-0.6-3.2-1.2c-1.1-0.7-1.8-2-1.7-3.3c0.2-0.9,0.7-1.7,1.3-2.3c2.4-2.5,5.6-4.1,9-4.5
			l0.1,1.4c-3.1,0.3-6.1,1.8-8.2,4.1c-0.5,0.4-0.8,0.9-0.9,1.5c-0.1,0.7,0.3,1.5,1,1.9c0.8,0.5,1.7,0.9,2.7,1L51.8,86.1z"/>
		<path class="st2" d="M11.9,116.5l-0.3-1.4c0.8-0.2,1.3-1.2,1.6-2.1c4.5-11.9,8-24.4,10.5-36.9c0.3-1.6,0.7-3.1,1.2-4.6
			c1.8-3.8,4.9-6.6,8.7-8c3.7-1.4,7.5-2.2,11.5-2.4l0.1,1.4c-3.8,0.3-7.5,1-11.1,2.4c-3.5,1.3-6.3,3.9-7.9,7.3
			c-0.5,1.4-0.9,2.8-1.1,4.3C22.6,89,19,101.5,14.5,113.5C14.2,114.3,13.5,116.1,11.9,116.5z"/>
		<path class="st2" d="M22.4,83.4l-1.4-0.2c1.3-7.3,2.8-14.1,8-18.4c4.3-3.5,10.2-4.3,14.9-5l6.9-0.9l0.2,1.4l-6.9,0.9
			c-4.6,0.6-10.3,1.4-14.2,4.7C25.2,69.8,23.7,76.4,22.4,83.4z"/>
		<path class="st2" d="M49.6,60.3l-0.3-1.4c3.7-0.8,7.5-0.8,11.2-0.1l-0.3,1.4C56.8,59.5,53.2,59.5,49.6,60.3z"/>
		<path class="st2" d="M61.6,62.5c-5-0.6-10.1-0.6-15.2-0.1L46.3,61c5.1-0.5,10.3-0.5,15.5,0.1L61.6,62.5z"/>
		<path class="st2" d="M13.2,118.1l-1.4-0.1c0.6-7.4,1.4-14.5,4.3-21.1c0.4-0.9,0.9-1.9,1.3-2.8c1.3-2.6,2.5-5,2.8-7.7l1.4,0.2
			c-0.3,2.9-1.6,5.6-2.9,8.2c-0.4,0.9-0.9,1.8-1.3,2.8C14.6,103.8,13.8,110.8,13.2,118.1z"/>
		<path class="st2" d="M10.4,123.4l-1.3-0.5c1.2-2.7,2.5-5.4,4.1-7.9l1.2,0.7C12.9,118.1,11.6,120.7,10.4,123.4z"/>
		<path class="st2" d="M30.9,152c-0.1-1,0.2-1.9,0.4-2.8c0.2-0.9,0.4-1.7,0.3-2.5c-0.3-1.6-1.3-3.1-2.7-4.1c-2.5-2.2-5.4-4.2-8.1-6
			c-3.4-2.3-6.9-4.7-9.9-7.7l-0.2-0.2c-1.2-1.2-2.4-2.4-3.8-2.4l0.1-1.4c2,0.1,3.4,1.5,4.7,2.9l0.2,0.2c2.9,2.9,6.3,5.2,9.7,7.5
			c2.8,1.9,5.6,3.8,8.2,6.1c1.6,1.2,2.8,3,3.2,5c0.1,1.1-0.1,2.1-0.4,3c-0.2,0.8-0.4,1.6-0.3,2.4L30.9,152z"/>
		<path class="st2" d="M3.7,130.2l-1.3-0.6c0.5-1,1.1-2,1.8-2.9c0.8-1,2-1.5,3.3-1.5l0,1.4c-0.9,0-1.7,0.4-2.3,1
			C4.6,128.4,4.1,129.3,3.7,130.2z"/>
		<path class="st2" d="M32.8,139.4l-1.2-0.8c3.9-5.9,10.5-9.6,17.5-9.8l0.1,1.4C42.6,130.4,36.4,133.9,32.8,139.4z"/>
		<path class="st2" d="M34.7,139.5l-1.2-0.7c1.9-3.1,4.6-5.6,7.9-7.2c3.1-1.6,6.4-3,9.7-4.2l0.5,1.3c-3.2,1.2-6.4,2.6-9.5,4.1
			C39,134.3,36.5,136.6,34.7,139.5z"/>
		<path class="st2" d="M83.1,76.6c-0.8,0-1.7-0.2-2.4-0.8c-0.4-0.4-0.7-0.8-1-1.2c-1.2-1.4-2-3.2-2.3-5.1c-0.1-1.2,0.2-2.3,0.9-3.3
			c0.4-0.5,0.7-1.1,0.9-1.6l1.3,0.4c-0.2,0.8-0.6,1.4-1.1,2c-0.4,0.6-0.6,1.5-0.6,2.3c0.2,1.6,0.9,3.2,2,4.5c0.3,0.4,0.5,0.7,0.8,1
			c1.1,0.9,2.9,0.4,4.1-0.4l0.7,1.2C85.5,76.2,84.3,76.6,83.1,76.6z"/>
		<path class="st2" d="M84.8,74.3c-0.2,0-0.3,0-0.5,0c-0.9,0-1.8-0.2-2.6-0.6c-1.1-0.8-1.9-1.8-2.2-3c-0.3-1-0.6-2-1-3l1.3-0.5
			c0.4,1,0.7,2.1,1,3.1c0.2,0.9,0.8,1.7,1.5,2.2c0.5,0.3,1.2,0.4,1.9,0.4c1.9,0,3.7-0.2,5.4-0.7l0.4,1.3
			C88.3,74,86.6,74.3,84.8,74.3z"/>
	</g>
</g>
</svg>
