<svg height="68" viewBox="0 0 59 68" width="59" xmlns="http://www.w3.org/2000/svg"><g fill="none" fill-rule="evenodd"><g stroke-linecap="round" stroke-linejoin="round" stroke-width="2.2" transform="translate(2 2)"><rect height="52.799998" rx="4.4" stroke="#3fbf5e" width="43.999998"/><path d="m21.119999 14.08h14.08" stroke="#2c266d"/><path d="m7.9199997 14.0799995 1.75999993 1.7599999 5.27999977-5.2799998" stroke="#66bb6a"/><path d="m21.119999 26.399999h14.08" stroke="#2c266d"/><path d="m7.9199997 26.399999 1.75999993 1.7599999 5.27999977-5.2799998" stroke="#66bb6a"/><g stroke="#cecbed"><path d="m21.119999 38.719999h8.579999"/><circle cx="10.56" cy="38.719999" r="2.64"/></g></g><g fill-rule="nonzero" transform="translate(32.800001 41.600001)"><path d="m13.0680003 26.1360006c-7.20569536 0-13.0680003-5.8623049-13.0680003-13.0680003 0-7.20569536 5.86230494-13.0680003 13.0680003-13.0680003 7.2056954 0 13.0680003 5.86230494 13.0680003 13.0680003 0 7.2056954-5.8623049 13.0680003-13.0680003 13.0680003z" fill="#72c472"/><path d="m10.7096357 17.1687649-3.48480007-3.4848c-.34018618-.3401862-.34018618-.891743 0-1.2319291.34018619-.3401862.89174292-.3401862 1.2319291 0l2.86883557 2.8688355 6.3536356-6.35363563c.3401862-.34018618.8917429-.34018618 1.2319291 0 .3401862.34018619.3401862.89174292 0 1.23192913l-6.9696002 6.9696001c-.3401862.3401862-.8917429.3401862-1.2319291 0z" fill="#fff"/></g></g></svg>