<?xml version="1.0" encoding="utf-8"?>
<!-- Generator: Adobe Illustrator 25.0.1, SVG Export Plug-In . SVG Version: 6.00 Build 0)  -->
<svg version="1.1" id="Layer_1" xmlns="http://www.w3.org/2000/svg" xmlns:xlink="http://www.w3.org/1999/xlink" x="0px" y="0px"
	 viewBox="0 0 199 199" style="enable-background:new 0 0 199 199;" xml:space="preserve">
<style type="text/css">
	.st0{fill:#FCFAFF;}
	.st1{fill:#5F259F;}
</style>
<g>
	<circle class="st0" cx="99.5" cy="99.5" r="99.5"/>
	<path class="st1" d="M138.91,70.11h-13.52c-4.75-5.58-26.38-30.96-30.24-35.15c-4.35-4.71-8.7-3.62-10.87-2.9
		c-2.17,0.72-10.87,3.62-11.96,4.31c-1.09,0.69,0,2.21,0,2.21l32.59,31.53h-48.7c-1.91,0-3.46,1.55-3.46,3.46v4.08
		c0,4.44,3.6,8.05,8.05,8.05h6.45c0,4.68,0,23.23,0,30.97c0,8.89,6.16,27.37,28.27,27.37c6.97,0,13.94-2.49,15.58-3.12v18.63
		c0,4.44,3.6,8.05,8.05,8.05h8.43c1.91,0,3.46-1.55,3.46-3.46V85.69h11.76c1.91,0,3.46-1.55,3.46-3.46v-4.79
		C146.25,73.39,142.96,70.11,138.91,70.11z M111.1,124.97c-3.32,2.08-8.37,2.4-11.23,2.4c-8.7,0-13.41-5.44-13.41-10.15
		c0-4.15,0-26.35,0-31.53h24.64V124.97z"/>
</g>
</svg>
